<?xml version="1.0" standalone="no"?>
<!DOCTYPE svg PUBLIC "-//W3C//DTD SVG 1.1//EN" "http://www.w3.org/Graphics/SVG/1.1/DTD/svg11.dtd" >
<svg xmlns="http://www.w3.org/2000/svg" xmlns:xlink="http://www.w3.org/1999/xlink" version="1.1">
<metadata>
Created by FontForge 20161013 at Thu Jan 19 16:52:49 2012
 By ,,,
Copyright (c) 2012 by Superstorefont. All rights reserved.
</metadata>
<defs>
<font id="Superstore-Book" horiz-adv-x="0" >
  <font-face 
    font-family="Superstore"
    font-weight="400"
    font-stretch="normal"
    units-per-em="1000"
    panose-1="2 0 0 0 0 0 0 0 0 0"
    ascent="800"
    descent="-200"
    x-height="400"
    cap-height="500"
    bbox="-389 -371 632 783"
    underline-thickness="35"
    underline-position="-176"
    unicode-range="U+0020-F882"
  />
<missing-glyph horiz-adv-x="750" 
d="M133 0h495v623h-495v-623zM616 -4h-471q-16 0 -16 15v600q0 16 16 16h471q16 0 16 -16v-600q0 -15 -16 -15z" />
    <glyph glyph-name="copyright2" unicode="&#x3b;&#x3b;For&#x20;Education&#x20;Used&#x20;Only&#x3b;&#x3b;" horiz-adv-x="620" 
d="M310 505q106 0 180.5 -74.5t74.5 -180.5t-74.5 -180.5t-180.5 -74.5t-180.5 74.5t-74.5 180.5t74.5 180.5t180.5 74.5zM310 36q83 0 148.5 64t65.5 150q0 87 -63.5 150.5t-150.5 63.5t-150.5 -63.5t-63.5 -150.5q0 -86 65.5 -150t148.5 -64zM177 279v-62q0 -72 36 -99.5
t100 -27.5q62 0 107 20l-12 36q-33 -18 -87 -18q-101 0 -101 89v62q0 89 101 89q54 0 87 -18l12 36q-45 20 -107 20q-64 0 -100 -27.5t-36 -99.5z" />
    <glyph glyph-name="registered2" unicode="&#x3b;&#x3b;Registered&#x3b;&#x3b;" horiz-adv-x="620" 
d="M310 505q106 0 180.5 -74.5t74.5 -180.5t-74.5 -180.5t-180.5 -74.5t-180.5 74.5t-74.5 180.5t74.5 180.5t180.5 74.5zM310 36q83 0 148.5 64t65.5 150q0 87 -63.5 150.5t-150.5 63.5t-150.5 -63.5t-63.5 -150.5q0 -86 65.5 -150t148.5 -64zM202 105v298h147q76 0 76 -99
q0 -37 -14.5 -62.5t-38.5 -33.5l45 -103h-46l-43 100h-83v-100h-43zM245 365v-122h95q42 0 42 61t-42 61h-95z" />
    <glyph glyph-name="multiply2" unicode="&#x3b;&#x3b;Multiply&#x3b;&#x3b;" horiz-adv-x="397" 
d="M310 340l33 -33l-112 -113l112 -111l-34 -34l-111 112l-113 -112l-33 33l112 112l-111 112l33 33l112 -111z" />
    <glyph glyph-name="divide2" unicode="&#x3b;&#x3b;Divide&#x3b;&#x3b;" horiz-adv-x="475" 
d="M55 213h365v-40h-365v40zM206 75q0 13 9 22t21 9q13 0 22 -9t9 -22q0 -12 -9 -21t-22 -9q-12 0 -21 9t-9 21zM206 313q0 13 9 22t21 9q13 0 22 -9t9 -22q0 -12 -9 -21t-22 -9q-12 0 -21 9t-9 21z" />
    <glyph glyph-name="quotedblleft" unicode="&#x2018;&#x2018;" horiz-adv-x="281" 
d="M55 441l50 97h33q-14 -42 -34 -97h-49zM143 441l50 97h33q-14 -42 -34 -97h-49z" />
    <glyph glyph-name="quotedblright" unicode="&#x2019;&#x2019;" horiz-adv-x="281" 
d="M138 538l-50 -97h-33q14 42 34 97h49zM226 538l-50 -97h-33q14 42 34 97h49z" />
    <glyph glyph-name="trademark2" unicode="&#x3b;&#x3b;Trademark&#x3b;&#x3b;" horiz-adv-x="666" 
d="M285 500v-36h-95v-274h-40v274h-95v36h230zM491 190h-54l-81 283v-283h-40v310h70l77 -276l78 276h70v-310h-40v283z" />
    <glyph glyph-name="rulakkhangyao" unicode="&#xe24;&#xe32;" horiz-adv-x="640" 
d="M95 44h44v-44h-92v333q51 72 150 72q43 0 75 -12.5t47.5 -28t24 -36.5t10 -31t1.5 -17v-476h-48v476q0 28 -14.5 46t-37.5 24.5t-35 8t-23 1.5q-73 0 -102 -45v-271zM593 -196h-48v478q0 33 -15.5 51.5t-32.5 22.5t-42 4q-56 0 -85 -17l-20 33q32 29 105 29
q138 0 138 -123v-478z" />
    <glyph glyph-name="lulakkhangyao" unicode="&#xe26;&#xe32;" horiz-adv-x="650" 
d="M57 44v289q51 72 150 72q43 0 75 -12.5t47.5 -28t24 -36.5t10 -31t1.5 -17v-476h-48v476q0 28 -14.5 46t-37.5 24.5t-35 8t-23 1.5q-73 0 -102 -45v-315h-90v44h42zM603 -196h-48v478q0 33 -15.5 51.5t-32.5 22.5t-42 4q-56 0 -85 -17l-20 33q32 29 105 29
q138 0 138 -123v-478z" />
    <glyph glyph-name=".notdef" horiz-adv-x="750" 
d="M133 0h495v623h-495v-623zM616 -4h-471q-16 0 -16 15v600q0 16 16 16h471q16 0 16 -16v-600q0 -15 -16 -15z" />
    <glyph glyph-name=".null" 
 />
    <glyph glyph-name="nonmarkingreturn" horiz-adv-x="283" 
 />
    <glyph glyph-name="space" unicode=" " horiz-adv-x="185" 
 />
    <glyph glyph-name="exclam" unicode="!" horiz-adv-x="162" 
d="M99 99h-38q-2 235 -5 401h48q-3 -169 -5 -401zM50 25q0 13 9 22t21 9q13 0 22 -9t9 -22q0 -12 -9 -21t-22 -9q-12 0 -21 9t-9 21z" />
    <glyph glyph-name="quotedbl" unicode="&#x22;" horiz-adv-x="244" 
d="M66 441l-11 97h51l-12 -97h-28zM149 441l-11 97h51l-12 -97h-28z" />
    <glyph glyph-name="numbersign" unicode="#" horiz-adv-x="618" 
d="M322 0l48 141h-206l-48 -141h-47l48 141h-62v39h75l51 151h-68v40h82l43 129h47l-43 -129h206l43 129h48l-44 -129h68v-40h-82l-51 -151h75v-39h-88l-48 -141h-47zM228 331l-51 -151h206l51 151h-206z" />
    <glyph glyph-name="dollar" unicode="$" horiz-adv-x="462" 
d="M407 140q0 -74 -43 -108t-111 -37v-50h-48v50q-108 4 -154 52l35 32q50 -37 119 -40v199q-35 10 -57.5 19.5t-47 24t-37 35.5t-12.5 48q0 137 154 140v55h48v-55q71 -3 116 -23l-18 -40q-32 14 -98 18v-189q35 -11 57.5 -21t47 -25.5t37 -36.5t12.5 -48zM99 365
q0 -27 27 -44.5t79 -34.5v174q-106 -4 -106 -95zM253 39q106 8 106 101q0 30 -27.5 48.5t-78.5 34.5v-184z" />
    <glyph glyph-name="percent" unicode="%" horiz-adv-x="562" 
d="M126 0h-57l368 500h57zM418 0q-90 0 -90 75v86q0 36 26 55.5t64 19.5t64 -19.5t26 -55.5v-86q0 -75 -90 -75zM418 201q-25 0 -38.5 -13.5t-13.5 -26.5v-86q0 -15 13 -27t39 -12t39 12t13 27v86q0 13 -13.5 26.5t-38.5 13.5zM145 270q-90 0 -90 75v86q0 36 26 55.5
t64 19.5t64 -19.5t26 -55.5v-86q0 -75 -90 -75zM145 471q-25 0 -38.5 -13.5t-13.5 -26.5v-86q0 -15 13 -27t39 -12t39 12t13 27v86q0 13 -13.5 26.5t-38.5 13.5z" />
    <glyph glyph-name="ampersand" unicode="&#x26;" horiz-adv-x="516" 
d="M55 143q0 41 31 67t86 46q-41 71 -41 122q0 67 27.5 97t98.5 30t98.5 -30t27.5 -97q0 -87 -146 -140q23 -28 150 -153q36 58 37 123h48q-3 -92 -52 -153l56 -55h-51l-33 30q-58 -35 -135 -35q-43 0 -73.5 4.5t-62.5 18.5t-49 45.5t-17 79.5zM256 39q57 0 101 22
q-18 18 -50.5 48t-59.5 57t-51 56q-33 -14 -48.5 -21.5t-30 -23t-14.5 -34.5q0 -31 7.5 -51t17.5 -30.5t33.5 -15.5t40.5 -6t54 -1zM179 378q0 -49 34 -107q59 21 90.5 44t31.5 63q0 53 -11.5 67.5t-66.5 14.5t-66.5 -14.5t-11.5 -67.5z" />
    <glyph glyph-name="quotesingle" unicode="'" horiz-adv-x="161" 
d="M66 441l-11 97h51l-12 -97h-28z" />
    <glyph glyph-name="parenleft" unicode="(" horiz-adv-x="208" 
d="M153 -53h-47q-23 62 -37 150.5t-14 158.5q0 64 13.5 151t36.5 146h48q-22 -64 -36 -149.5t-14 -151.5q0 -59 15 -148.5t35 -156.5z" />
    <glyph glyph-name="parenright" unicode=")" horiz-adv-x="208" 
d="M102 -53h-47q20 67 35 156.5t15 148.5q0 66 -14 151.5t-36 149.5h48q23 -59 36.5 -146t13.5 -151q0 -70 -14 -158.5t-37 -150.5z" />
    <glyph glyph-name="asterisk" unicode="*" horiz-adv-x="376" 
d="M211 538l-8 -111l106 29l12 -46l-110 -13l70 -80l-37 -32l-56 93l-55 -93l-38 32l70 80l-110 13l12 46l106 -29l-9 111h47z" />
    <glyph glyph-name="plus" unicode="+" horiz-adv-x="475" 
d="M420 215v-44h-159v-160h-47v160h-159v44h159v159h47v-159h159z" />
    <glyph glyph-name="comma" unicode="," horiz-adv-x="157" 
d="M55 -62v120h47v-101z" />
    <glyph glyph-name="hyphen" unicode="-" horiz-adv-x="408" 
d="M55 215h298v-44h-298v44z" />
    <glyph glyph-name="period" unicode="." horiz-adv-x="171" 
d="M55 25q0 13 9 22t21 9q13 0 22 -9t9 -22q0 -12 -9 -21t-22 -9q-12 0 -21 9t-9 21z" />
    <glyph glyph-name="slash" unicode="/" horiz-adv-x="357" 
d="M30 0l251 553h46q-22 -49 -111.5 -245.5t-139.5 -307.5h-46z" />
    <glyph glyph-name="zero" unicode="0" horiz-adv-x="458" 
d="M229 460q-27 0 -41 -1t-34 -5.5t-30.5 -13.5t-18 -27t-7.5 -44v-214q0 -39 10 -63.5t30.5 -35.5t40 -14t50.5 -3t50.5 3t40 14t30.5 35.5t10 63.5v214q0 26 -7.5 44t-18 27t-30.5 13.5t-34 5.5t-41 1zM229 -5q-92 0 -135.5 37.5t-43.5 122.5v214q0 72 44 104t135 32
t135 -32t44 -104v-214q0 -85 -43.5 -122.5t-135.5 -37.5z" />
    <glyph glyph-name="one" unicode="1" horiz-adv-x="280" 
d="M40 435l137 65h48v-500h-48v453l-119 -58z" />
    <glyph glyph-name="two" unicode="2" horiz-adv-x="419" 
d="M94 44h275v-44h-323v50q0 40 27.5 77.5t67 66t79 55t67 54.5t27.5 54v41q0 18 -6.5 30t-15.5 18t-26 9.5t-29 4t-34 0.5q-27 0 -42 -1.5t-33 -6.5t-26.5 -18.5t-8.5 -35.5v-4h-48v4q0 57 37.5 82t120.5 25t121 -25t38 -82v-41q0 -34 -27.5 -67.5t-67 -61l-79 -55t-67 -61
t-27.5 -68.5z" />
    <glyph glyph-name="three" unicode="3" horiz-adv-x="412" 
d="M153 228v45h52q45 0 74.5 21t29.5 63v41q0 18 -6.5 30t-15.5 18t-26 9.5t-29 4t-34 0.5q-27 0 -42 -1.5t-33 -6.5t-26.5 -18.5t-8.5 -35.5v-4h-48v4q0 57 37.5 82t120.5 25t121 -25t38 -82v-41q0 -64 -55 -104q55 -35 55 -91v-40q0 -66 -38 -96.5t-121 -30.5
q-87 0 -122.5 32t-35.5 95h48q0 -83 110 -83q111 0 111 83v40q0 40 -27.5 53t-76.5 13h-52z" />
    <glyph glyph-name="four" unicode="4" horiz-adv-x="408" 
d="M15 190l228 310h64v-318h71v-44h-71v-138h-48v138h-244v52zM60 182h199v266z" />
    <glyph glyph-name="five" unicode="5" horiz-adv-x="425" 
d="M50 112h48q6 -37 37 -55t75 -18q112 0 112 84v90q0 30 -17.5 46t-39 19.5t-55.5 3.5q-50 0 -78.5 -11t-33.5 -47h-48v276h306v-45h-258v-155q47 27 112 27q74 0 117 -28.5t43 -85.5v-90q0 -128 -160 -128q-157 0 -160 117z" />
    <glyph glyph-name="six" unicode="6" horiz-adv-x="407" 
d="M203 303q74 0 116.5 -28.5t42.5 -84.5v-68q0 -64 -42 -95.5t-117 -31.5q-78 0 -118 33.5t-40 93.5v68q0 23 6 38q19 48 104 272h51l-78 -208q39 11 75 11zM314 122v68q0 41 -29 54t-82 13q-34 0 -55 -3.5t-38 -19t-17 -44.5v-68q0 -83 110 -83q111 0 111 83z" />
    <glyph glyph-name="seven" unicode="7" horiz-adv-x="351" 
d="M15 455v45h296v-49l-168 -451h-49l169 455h-248z" />
    <glyph glyph-name="eight" unicode="8" horiz-adv-x="427" 
d="M55 357v41q0 57 39 82t119 25q81 0 120 -25t39 -82v-41q0 -65 -51 -104q51 -33 51 -91v-40q0 -127 -159 -127q-158 0 -158 127v40q0 58 50 91q-50 40 -50 104zM103 398v-41q0 -44 31 -64.5t79 -20.5t79.5 20.5t31.5 64.5v41q0 22 -8.5 35.5t-27 18.5t-33 6.5t-42.5 1.5
q-27 0 -42 -1.5t-33 -6.5t-26.5 -18.5t-8.5 -35.5zM103 162v-40q0 -83 110 -83q111 0 111 83v40q0 28 -16 43t-35 18t-52 4h-8q-26 0 -41.5 -1.5t-33.5 -7.5t-26.5 -20t-8.5 -36z" />
    <glyph glyph-name="nine" unicode="9" horiz-adv-x="387" 
d="M184 197q-74 0 -116.5 28.5t-42.5 84.5v68q0 64 42 95.5t117 31.5q78 0 118 -33.5t40 -93.5v-68q0 -23 -6 -38q-19 -48 -104 -272h-51l78 208q-39 -11 -75 -11zM73 378v-68q0 -41 29 -54t82 -13q34 0 55 3.5t38 19t17 44.5v68q0 83 -110 83q-111 0 -111 -83z" />
    <glyph glyph-name="colon" unicode=":" horiz-adv-x="171" 
d="M55 25q0 13 9 22t21 9q13 0 22 -9t9 -22q0 -12 -9 -21t-22 -9q-12 0 -21 9t-9 21zM55 339q0 13 9 22t21 9q13 0 22 -9t9 -22q0 -12 -9 -21t-22 -9q-12 0 -21 9t-9 21z" />
    <glyph glyph-name="semicolon" unicode=";" horiz-adv-x="171" 
d="M62 -62v120h47v-101zM55 339q0 13 9 22t21 9q13 0 22 -9t9 -22q0 -12 -9 -21t-22 -9q-12 0 -21 9t-9 21z" />
    <glyph glyph-name="less" unicode="&#x3c;" horiz-adv-x="421" 
d="M366 7l-311 148v62l311 148v-47l-271 -131q143 -71 271 -133v-47z" />
    <glyph glyph-name="equal" unicode="=" horiz-adv-x="409" 
d="M56 273h298v-44h-298v44zM56 141h298v-44h-298v44z" />
    <glyph glyph-name="greater" unicode="&#x3e;" horiz-adv-x="421" 
d="M366 155l-311 -148v47q128 62 271 133l-271 131v47l311 -148v-62z" />
    <glyph glyph-name="question" unicode="?" horiz-adv-x="363" 
d="M130 116v98q0 38 20.5 63t44.5 36t44.5 32t20.5 50q0 65 -94 65q-60 0 -95 -15q-1 3 -16 41q38 19 111 19q74 0 108 -27t34 -83q0 -36 -20.5 -62.5t-44.5 -39t-44.5 -33t-20.5 -46.5v-98h-48zM123 25q0 13 9 22t21 9q13 0 22 -9t9 -22q0 -12 -9 -21t-22 -9q-12 0 -21 9
t-9 21z" />
    <glyph glyph-name="at" unicode="@" horiz-adv-x="549" 
d="M250 505h49q195 0 195 -136v-369h-48v44q-41 -49 -123 -49q-144 0 -144 131v90q0 56 40.5 84t113.5 28q81 0 113 -27v68q0 26 -9.5 44t-21.5 27t-35 14t-38.5 5.5t-42.5 0.5h-49q-27 0 -42.5 -0.5t-38.5 -5.5t-35 -14t-21.5 -27t-9.5 -44v-244q0 -23 1 -34t4.5 -25.5
t12 -20.5t23.5 -6h12v-39h-12q-25 0 -42.5 8.5t-26.5 19.5t-13.5 30.5t-5.5 32.5t-1 34v244q0 136 195 136zM446 108v135q-21 40 -113 40q-33 0 -53.5 -3.5t-36.5 -19t-16 -44.5v-90q0 -87 100 -87q49 0 84 21.5t35 47.5z" />
    <glyph glyph-name="A" unicode="A" horiz-adv-x="473" 
d="M409 0l-53 142h-239l-51 -142h-51l188 500h66l189 -500h-49zM132 181h209l-105 286z" />
    <glyph glyph-name="B" unicode="B" horiz-adv-x="469" 
d="M55 0v500h248q62 0 89 -33t27 -105q0 -71 -40 -113q40 -42 40 -112q0 -72 -27 -104.5t-89 -32.5h-248zM303 455h-200v-182h200q43 0 55.5 20.5t12.5 68.5q0 50 -12.5 71.5t-55.5 21.5zM311 228h-208v-184h200q43 0 55.5 21.5t12.5 71.5q0 46 -11.5 68.5t-48.5 22.5z" />
    <glyph glyph-name="C" unicode="C" horiz-adv-x="473" 
d="M50 197v106q0 64 16.5 105.5t49 62t68 27.5t85.5 7q98 0 169 -29l-14 -42q-54 26 -145 26q-20 0 -31.5 -0.5t-33.5 -3.5t-35.5 -8.5t-30.5 -17t-26.5 -27.5t-16.5 -41.5t-7 -57.5v-107q0 -45 13.5 -77t30.5 -47t47 -23.5t47 -9.5t46 -1q86 0 142 27l14 -42
q-71 -29 -169 -29q-50 0 -85.5 7t-68 27.5t-49 62t-16.5 105.5z" />
    <glyph glyph-name="D" unicode="D" horiz-adv-x="483" 
d="M55 0v500h159q50 0 85.5 -7t68 -27.5t49 -62.5t16.5 -105v-96q0 -63 -16.5 -105t-49 -62.5t-68 -27.5t-85.5 -7h-159zM201 455h-98v-411h98q29 0 46 1t47 9.5t47 23.5t30.5 47t13.5 77v96q0 38 -8 66t-25 44.5t-32.5 26.5t-41 14t-39.5 5t-38 1z" />
    <glyph glyph-name="E" unicode="E" horiz-adv-x="425" 
d="M55 0v500h325v-45h-277v-179h277v-44h-277v-188h277v-44h-325z" />
    <glyph glyph-name="F" unicode="F" horiz-adv-x="402" 
d="M55 0v500h322v-45h-274v-160h241v-44h-241v-251h-48z" />
    <glyph glyph-name="G" unicode="G" horiz-adv-x="486" 
d="M294 214v45h147v-234q-72 -30 -172 -30q-50 0 -85.5 7t-68 27.5t-49 62t-16.5 105.5v107q0 64 16.5 105.5t49 61.5t67.5 27t86 7q99 0 169 -29l-14 -43q-56 27 -142 27q-29 0 -46 -1t-47 -9t-47 -23.5t-30.5 -46.5t-13.5 -76v-107q0 -45 13.5 -77t30.5 -47t47 -23.5
t47 -9.5t46 -1q61 0 111 14v161h-99z" />
    <glyph glyph-name="H" unicode="H" horiz-adv-x="491" 
d="M388 0v233h-285v-233h-48v500h48v-223h285v223h48v-500h-48z" />
    <glyph glyph-name="I" unicode="I" horiz-adv-x="158" 
d="M55 0v500h48v-500h-48z" />
    <glyph glyph-name="J" unicode="J" horiz-adv-x="355" 
d="M257 155v345h48v-345q0 -51 -10.5 -84t-32.5 -49t-47.5 -21.5t-65.5 -5.5q-77 0 -134 21l12 44q49 -21 111 -21q28 0 43 2t36 12t30.5 35.5t9.5 66.5z" />
    <glyph glyph-name="K" unicode="K" horiz-adv-x="480" 
d="M408 0l-148 337l-157 -124v-213h-48v500h48v-227l286 227h66l-158 -135l162 -365h-51z" />
    <glyph glyph-name="L" unicode="L" horiz-adv-x="390" 
d="M55 0v500h48v-456h257v-44h-305z" />
    <glyph glyph-name="M" unicode="M" horiz-adv-x="602" 
d="M268 0l-165 461v-461h-48v500h83l163 -461l163 461h83v-500h-48v461l-165 -461h-66z" />
    <glyph glyph-name="N" unicode="N" horiz-adv-x="512" 
d="M376 0l-273 461v-461h-48v500h82l272 -461v461h48v-500h-81z" />
    <glyph glyph-name="O" unicode="O" horiz-adv-x="490" 
d="M245 460q-31 0 -53 -3t-45.5 -12t-36 -30t-12.5 -53v-202q0 -39 12.5 -64.5t35.5 -37t45.5 -15.5t53.5 -4t53.5 4t45.5 15.5t35.5 37t12.5 64.5v208q0 26 -9.5 44.5t-21.5 27.5t-35 14t-38.5 5.5t-42.5 0.5zM245 -5q-195 0 -195 160v213q0 137 195 137t195 -137v-213
q0 -160 -195 -160z" />
    <glyph glyph-name="P" unicode="P" horiz-adv-x="438" 
d="M55 0v500h232q116 0 116 -153q0 -159 -116 -159h-184v-188h-48zM103 455v-221h184q42 0 55 30t13 83q0 52 -13 80t-55 28h-184z" />
    <glyph glyph-name="Q" unicode="Q" horiz-adv-x="490" 
d="M245 -5q-195 0 -195 160v213q0 137 195 137t195 -137v-213q0 -118 -103 -149q46 -35 103 -35v-44q-87 0 -148 71q-22 -3 -47 -3zM245 460q-31 0 -53 -3t-45.5 -12t-36 -30t-12.5 -53v-202q0 -39 12.5 -64.5t35.5 -37t45.5 -15.5t53.5 -4t53.5 4t45.5 15.5t35.5 37
t12.5 64.5v208q0 26 -9.5 44.5t-21.5 27.5t-35 14t-38.5 5.5t-42.5 0.5z" />
    <glyph glyph-name="R" unicode="R" horiz-adv-x="436" 
d="M55 0v500h232q116 0 116 -153q0 -131 -87 -153q97 -189 100 -194h-50l-98 193h-165v-193h-48zM103 455v-216h184q42 0 55 28t13 80t-13 80t-55 28h-184z" />
    <glyph glyph-name="S" unicode="S" horiz-adv-x="436" 
d="M88 365q0 -28 31.5 -47.5t77 -32.5t91 -29t77 -45t31.5 -71q0 -145 -174 -145q-132 0 -182 52l35 32q54 -40 146 -40q127 0 127 101q0 30 -31.5 51t-77 34t-91 27.5t-77 43t-31.5 69.5q0 140 160 140q107 0 158 -23q-4 -7 -9.5 -21t-8.5 -20q-44 19 -140 19
q-112 0 -112 -95z" />
    <glyph glyph-name="T" unicode="T" horiz-adv-x="421" 
d="M393 500v-45h-159v-455h-48v455h-158v45h365z" />
    <glyph glyph-name="U" unicode="U" horiz-adv-x="490" 
d="M392 500h48v-345q0 -160 -195 -160t-195 160v345h48v-345q0 -39 12 -63.5t36 -35t45.5 -14t53.5 -3.5t53.5 3.5t45.5 14t36 35t12 63.5v345z" />
    <glyph glyph-name="V" unicode="V" horiz-adv-x="473" 
d="M458 500l-189 -500h-66l-188 500h52l169 -461l172 461h50z" />
    <glyph glyph-name="W" unicode="W" horiz-adv-x="584" 
d="M267 341h51q15 -46 57 -153t56 -149l88 461h50l-103 -500h-64q-14 38 -54 141t-56 150q-16 -47 -56 -150t-54 -141h-64l-103 500h50l88 -461q14 43 56.5 149.5t57.5 152.5z" />
    <glyph glyph-name="X" unicode="X" horiz-adv-x="444" 
d="M222 218q-22 -31 -49 -68t-59.5 -82t-49.5 -68h-49l182 252q-32 43 -94 129t-87 119h54l152 -213l152 213h54q-25 -33 -87 -119t-94 -129l182 -252h-49q-17 23 -49.5 68t-59.5 82t-49 68z" />
    <glyph glyph-name="Y" unicode="Y" horiz-adv-x="454" 
d="M203 229l-188 271h55l156 -226l157 226h56l-188 -271v-229h-48v229z" />
    <glyph glyph-name="Z" unicode="Z" horiz-adv-x="437" 
d="M45 455v45h346v-41l-287 -415h288v-44h-347v41l291 414h-291z" />
    <glyph glyph-name="bracketleft" unicode="[" horiz-adv-x="205" 
d="M150 509h-47v-518h47v-44h-95v606h95v-44z" />
    <glyph glyph-name="backslash" unicode="\" horiz-adv-x="357" 
d="M76 553l251 -553h-46q-50 111 -139.5 307.5t-111.5 245.5h46z" />
    <glyph glyph-name="bracketright" unicode="]" horiz-adv-x="205" 
d="M102 509h-47v44h95v-606h-95v44h47v518z" />
    <glyph glyph-name="asciicircum" unicode="^" horiz-adv-x="366" 
d="M55 246l98 254h60l98 -254h-47l-81 221l-81 -221h-47z" />
    <glyph glyph-name="underscore" unicode="_" horiz-adv-x="365" 
d="M0 -50h365v-44h-365v44z" />
    <glyph glyph-name="grave" unicode="`" horiz-adv-x="194" 
d="M113 439l-56 99h50q5 -14 15 -47t17 -52h-26z" />
    <glyph glyph-name="a" unicode="a" horiz-adv-x="423" 
d="M195 39q53 0 89 21t36 49v25q0 17 -11.5 28t-34 15t-38 5t-41.5 1q-102 0 -102 -65q0 -19 1 -27.5t6 -21t15 -17.5t30 -9t50 -4zM368 297v-297h-48v43q-28 -48 -126 -48q-51 0 -83 10t-45.5 30t-17 37t-3.5 44q0 57 40 84.5t109 27.5q89 0 126 -17v81q0 42 -27.5 55
t-79.5 13t-79.5 -13t-27.5 -55v-6h-48v11q0 108 155 108t155 -108z" />
    <glyph glyph-name="b" unicode="b" horiz-adv-x="417" 
d="M103 538v-161q40 28 114 28q155 0 155 -108v-170q0 -132 -144 -132q-80 0 -125 44v-39h-48v538h48zM217 360q-92 0 -114 -40v-211q0 -26 35.5 -48t85.5 -22q47 0 73.5 24t26.5 69v161q0 41 -27.5 54t-79.5 13z" />
    <glyph glyph-name="c" unicode="c" horiz-adv-x="380" 
d="M45 157v86q0 51 13.5 84.5t39.5 49.5t54.5 22t68.5 6q77 0 134 -22l-11 -43q-45 20 -113 20q-30 0 -47 -2.5t-41.5 -12t-37 -35.5t-12.5 -67v-86q0 -34 10 -57.5t22 -35t34 -17.5t35.5 -7t36.5 -1q68 0 113 20l11 -42q-57 -22 -134 -22q-40 0 -68.5 6t-54.5 22
t-39.5 49.5t-13.5 84.5z" />
    <glyph glyph-name="d" unicode="d" horiz-adv-x="417" 
d="M314 377v161h48v-538h-48v39q-45 -44 -125 -44q-144 0 -144 132v170q0 108 155 108q74 0 114 -28zM200 360q-34 0 -54.5 -3.5t-36.5 -19t-16 -44.5v-161q0 -45 26.5 -69t73.5 -24q50 0 85.5 22t35.5 48v211q-22 40 -114 40z" />
    <glyph glyph-name="e" unicode="e" horiz-adv-x="409" 
d="M354 59l12 -42q-57 -22 -140 -22q-86 0 -133.5 33t-47.5 129v120q0 64 43 96t118 32q80 0 120.5 -33.5t40.5 -94.5v-86h-274v-34q0 -34 10.5 -57.5t23 -35t36 -17.5t37 -7t37.5 -1q73 0 117 20zM93 272v-37h226v37q0 44 -32.5 66t-80.5 22t-80.5 -22t-32.5 -66z" />
    <glyph glyph-name="f" unicode="f" horiz-adv-x="269" 
d="M192 505q-33 0 -41 -14.5t-8 -68.5v-22h112v-45h-112v-355h-48v355h-69v45h69v22q0 70 19.5 99t76.5 29q43 0 73 -18l-15 -37q-30 10 -57 10z" />
    <glyph glyph-name="g" unicode="g" horiz-adv-x="417" 
d="M200 40q92 0 114 40v211q0 26 -35.5 48t-85.5 22q-47 0 -73.5 -24t-26.5 -69v-161q0 -41 27.5 -54t79.5 -13zM314 -19v42q-40 -28 -114 -28q-155 0 -155 108v170q0 132 144 132q80 0 125 -44v39h48v-419q0 -99 -39 -132.5t-119 -33.5q-77 0 -134 22l11 41q45 -19 113 -19
q23 0 35 1t31 7t28.5 18t17.5 36.5t8 59.5z" />
    <glyph glyph-name="h" unicode="h" horiz-adv-x="420" 
d="M375 0h-48v267q0 46 -27 69.5t-75 23.5q-54 0 -88 -25t-34 -68v-267h-48v538h48v-185q48 52 126 52q146 0 146 -134v-271z" />
    <glyph glyph-name="i" unicode="i" horiz-adv-x="165" 
d="M58 0v400h48v-400h-48zM50 494q0 13 9.5 23t21.5 10q13 0 23 -9.5t10 -23.5q0 -12 -10 -21.5t-23 -9.5q-12 0 -21.5 9.5t-9.5 21.5z" />
    <glyph glyph-name="j" unicode="j" horiz-adv-x="155" 
d="M96 400h-48v-458q0 -46 -7.5 -64t-30.5 -18q-34 0 -60 18l-26 -35q29 -28 86 -28q24 0 40.5 6.5t25.5 16t13.5 28.5t5.5 34t1 42v458zM40 494q0 13 9.5 23t21.5 10q13 0 23 -9.5t10 -23.5q0 -12 -10 -21.5t-23 -9.5q-12 0 -21.5 9.5t-9.5 21.5z" />
    <glyph glyph-name="k" unicode="k" horiz-adv-x="406" 
d="M337 0l-139 251l-95 -84v-167h-48v538h48v-310l197 172h67l-135 -119l154 -281h-49z" />
    <glyph glyph-name="l" unicode="l" horiz-adv-x="158" 
d="M55 0v538h48v-538h-48z" />
    <glyph glyph-name="m" unicode="m" horiz-adv-x="595" 
d="M337 0h-48v268q0 49 -17 70.5t-63 21.5q-49 0 -77.5 -27.5t-28.5 -64.5v-268h-48v400h48v-45q34 50 106 50q71 0 110 -45q12 20 38.5 31t39.5 12.5t22 1.5q73 0 102 -34t29 -99v-272h-48v268q0 48 -18.5 70t-64.5 22q-58 0 -89 -36q7 -26 7 -56v-268z" />
    <glyph glyph-name="n" unicode="n" horiz-adv-x="420" 
d="M375 0h-48v267q0 46 -27 69.5t-75 23.5q-54 0 -88 -25t-34 -68v-267h-48v400h48v-47q48 52 126 52q146 0 146 -134v-271z" />
    <glyph glyph-name="o" unicode="o" horiz-adv-x="410" 
d="M93 292v-164q0 -45 32 -67t80 -22t80 22t32 67v164q0 42 -29.5 55t-82.5 13t-82.5 -13t-29.5 -55zM45 123v174q0 108 160 108t160 -108v-174q0 -65 -42.5 -96.5t-117.5 -31.5q-79 0 -119.5 33.5t-40.5 94.5z" />
    <glyph glyph-name="p" unicode="p" horiz-adv-x="417" 
d="M103 23v-208h-48v585h48v-39q45 44 125 44q144 0 144 -132v-170q0 -108 -155 -108q-74 0 -114 28zM217 40q34 0 54.5 3.5t36.5 19t16 44.5v161q0 45 -26.5 69t-73.5 24q-50 0 -85.5 -22t-35.5 -48v-211q22 -40 114 -40z" />
    <glyph glyph-name="q" unicode="q" horiz-adv-x="417" 
d="M314 -185v208q-40 -28 -114 -28q-155 0 -155 108v170q0 132 144 132q80 0 125 -44v39h48v-585h-48zM200 40q92 0 114 40v211q0 26 -35.5 48t-85.5 22q-47 0 -73.5 -24t-26.5 -69v-161q0 -41 27.5 -54t79.5 -13z" />
    <glyph glyph-name="r" unicode="r" horiz-adv-x="222" 
d="M215 405v-45q-49 -2 -80.5 -28.5t-31.5 -68.5v-268h-48v405h48v-45q45 47 112 50z" />
    <glyph glyph-name="s" unicode="s" horiz-adv-x="335" 
d="M73 294q0 -23 24.5 -38t59.5 -25t69.5 -22.5t59 -37t24.5 -61.5q0 -115 -138 -115q-109 0 -146 40q5 6 14 19t14 18q43 -33 117 -33q40 0 65.5 18t25.5 53q0 25 -24.5 40.5t-59 24t-69.5 19.5t-59.5 36t-24.5 64q0 111 128 111q84 0 127 -19q-3 -7 -7.5 -20.5t-7.5 -20.5
q-41 15 -112 15q-80 0 -80 -66z" />
    <glyph glyph-name="t" unicode="t" horiz-adv-x="244" 
d="M10 355v45h72v120h48v-120h92v-45h-92v-230q0 -22 0.5 -32.5t4.5 -24t12.5 -19t23.5 -5.5h50v-44h-50q-25 0 -43 8.5t-26.5 19.5t-13.5 30.5t-5.5 32t-0.5 34.5v230h-72z" />
    <glyph glyph-name="u" unicode="u" horiz-adv-x="430" 
d="M55 400h48v-268q0 -46 27 -69.5t75 -23.5q54 0 88 25t34 68v268h48v-400h-48v47q-48 -52 -126 -52q-146 0 -146 134v271z" />
    <glyph glyph-name="v" unicode="v" horiz-adv-x="383" 
d="M373 400l-152 -400h-59l-152 400h48l133 -361l134 361h48z" />
    <glyph glyph-name="w" unicode="w" horiz-adv-x="528" 
d="M233 344h62l93 -288l65 344h47l-77 -400h-65q-68 211 -94 298q-26 -87 -94 -298h-65l-77 400h47l65 -344z" />
    <glyph glyph-name="x" unicode="x" horiz-adv-x="395" 
d="M370 400l-146 -200q24 -34 73.5 -101t72.5 -99h-55l-118 162q-4 -5 -50 -68.5t-67 -93.5h-55l143 200q-71 96 -143 200h55l117 -163q6 9 51.5 71t66.5 92h55z" />
    <glyph glyph-name="y" unicode="y" horiz-adv-x="394" 
d="M63 400l141 -351l127 351h48l-215 -585h-49l63 175l-163 410h48z" />
    <glyph glyph-name="z" unicode="z" horiz-adv-x="356" 
d="M35 355v45h285v-42l-228 -314h229v-44h-286v42l232 313h-232z" />
    <glyph glyph-name="braceleft" unicode="{" horiz-adv-x="264" 
d="M124 249q41 -27 41 -115v-124q0 -13 5.5 -16t21.5 -3h17v-44h-58q-34 0 -34 51v136q0 27 -3 44.5t-17.5 33t-41.5 18.5v40q22 1 35.5 6.5t18.5 18t6.5 23t1.5 30.5v154q0 51 34 51h58v-44h-17q-11 0 -15.5 -0.5t-8 -5t-3.5 -13.5v-127q0 -87 -41 -114z" />
    <glyph glyph-name="bar" unicode="|" horiz-adv-x="158" 
d="M55 -53v606h48v-606h-48z" />
    <glyph glyph-name="braceright" unicode="}" horiz-adv-x="264" 
d="M140 249q-41 27 -41 114v127q0 13 -5.5 16t-21.5 3h-17v44h58q34 0 34 -51v-154q0 -20 1.5 -30.5t6.5 -23t18.5 -18t35.5 -6.5v-40q-27 -3 -41.5 -18.5t-17.5 -33t-3 -44.5v-136q0 -51 -34 -51h-58v44h17q11 0 15.5 0.5t8 5t3.5 13.5v124q0 88 41 115z" />
    <glyph glyph-name="asciitilde" unicode="~" horiz-adv-x="463" 
d="M137 260q-31 0 -64 -26l-18 35q41 35 82 35q35 0 98 -28t91 -28q32 0 64 26l20 -34q-43 -36 -84 -36q-23 0 -90.5 28t-98.5 28z" />
    <glyph glyph-name="uni00A0" unicode="&#xa0;" horiz-adv-x="452" 
 />
    <glyph glyph-name="onequarter" unicode="&#xbc;" horiz-adv-x="565" 
d="M126 0l240 500h45l-240 -500h-45zM47 459l81 41h36v-303h-36v268l-65 -35zM293 118l137 185h46v-185h42v-32h-42v-86h-36v86h-147v32zM333 118h107v140z" />
    <glyph glyph-name="onehalf" unicode="&#xbd;" horiz-adv-x="599" 
d="M126 0l240 500h45l-240 -500h-45zM47 459l81 41h36v-303h-36v268l-65 -35zM390 32h163v-32h-201v32q0 31 24.5 59t54 44.5t54 36.5t24.5 37v24q0 22 -17 32.5t-42 10.5q-26 0 -47 -11t-21 -32v-8h-36v8q0 36 29 55.5t75 19.5q45 0 70 -19.5t25 -55.5v-24q0 -26 -24 -49.5
t-53.5 -39.5t-53.5 -39.5t-24 -48.5z" />
    <glyph glyph-name="threequarters" unicode="&#xbe;" horiz-adv-x="627" 
d="M124 335v32h31q24 0 44 12t20 34v18q0 19 -12 28.5t-24 11.5t-32 2q-19 0 -31.5 -2t-24.5 -11.5t-12 -28.5v-9h-36v9q0 74 104 74t104 -74v-18q0 -37 -33 -60q33 -21 33 -53v-17q0 -41 -26.5 -63.5t-77.5 -22.5q-104 0 -104 86v6h36v-6q0 -29 20 -41.5t48 -12.5t48 12.5
t20 41.5v17q0 35 -64 35h-31zM188 0l240 500h45l-240 -500h-45zM355 118l137 185h46v-185h42v-32h-42v-86h-36v86h-147v32zM395 118h107v140z" />
    <glyph glyph-name="questiondown" unicode="&#xbf;" horiz-adv-x="363" 
d="M233 284v-98q0 -38 -20.5 -63t-44.5 -36t-44.5 -32t-20.5 -50q0 -65 94 -65q60 0 95 15q1 -3 16 -41q-38 -19 -111 -19q-74 0 -108 27t-34 83q0 36 20.5 62.5t44.5 39t44.5 33t20.5 46.5v98h48zM240 375q0 -13 -9 -22t-21 -9q-13 0 -22 9t-9 22q0 12 9 21t22 9
q12 0 21 -9t9 -21z" />
    <glyph glyph-name="nptp3.001march2007p" unicode="&#xdb;" 
 />
    <glyph glyph-name="nptp3.001march2007p" unicode="&#xe3b;" 
 />
    <glyph glyph-name="nptp3.001march2007u" unicode="&#xdc;" 
 />
    <glyph glyph-name="nptp3.001march2007u" unicode="&#xe3c;" 
 />
    <glyph glyph-name="nptp3.001march2007c" unicode="&#xdd;" 
 />
    <glyph glyph-name="nptp3.001march2007c" unicode="&#xe3d;" 
 />
    <glyph glyph-name="Naipol" unicode="&#xff;" horiz-adv-x="948" 
 />
    <glyph glyph-name="kokaithai" unicode="&#xe01;" horiz-adv-x="399" 
d="M92 315v-315h-48v333q51 72 150 72q43 0 75 -12.5t47.5 -28t24 -36.5t10 -31t1.5 -17v-280h-48v280q0 28 -14.5 46t-37.5 24.5t-35 8t-23 1.5q-74 0 -102 -45z" />
    <glyph glyph-name="khokhaithai" unicode="&#xe02;" horiz-adv-x="355" 
d="M175 39q58 1 73.5 21t15.5 66v274h48v-273q0 -66 -29 -99t-108 -33q-46 0 -75.5 11.5t-42 34t-16 42t-3.5 48.5v35q0 34 28 77t28 66q0 38 -4.5 44.5t-31.5 6.5h-20v40h20q61 0 71.5 -11.5t10.5 -79.5q0 -35 -27 -72.5t-27 -70.5v-35q0 -46 16 -68.5t73 -23.5z" />
    <glyph glyph-name="khokhuatthai" unicode="&#xe03;" horiz-adv-x="363" 
d="M102 309q0 34 -7 48l-39 -33q-7 6 -24.5 22.5t-26.5 24.5l27 29l25 -24q29 23 27 24q45 0 54.5 -16.5t9.5 -74.5q0 -35 -27 -72.5t-27 -70.5v-35q0 -23 2.5 -36.5t10.5 -28t27 -21t49 -6.5q58 0 73.5 20.5t15.5 66.5v274h48v-273q0 -66 -29 -99t-108 -33
q-46 0 -75.5 11.5t-42 34t-16 42t-3.5 48.5v35q0 34 28 77t28 66z" />
    <glyph glyph-name="khokhwaithai" unicode="&#xe04;" horiz-adv-x="409" 
d="M201 405q82 0 121.5 -28.5t39.5 -94.5v-282h-48v292q0 29 -18 45t-39.5 19.5t-55.5 3.5q-53 0 -83 -13t-30 -55v-90q34 18 88 18h37v-45h-37q-72 0 -88 -25v-150h-48v282q0 66 39.5 94.5t121.5 28.5z" />
    <glyph glyph-name="khokhonthai" unicode="&#xe05;" horiz-adv-x="413" 
d="M131 405l71 -33l70 33q94 -19 94 -118v-287h-48v298q0 46 -47 62q-11 -4 -35 -14.5t-34 -14.5l-69 29q-45 -15 -45 -62v-92q34 18 90 18h37v-45h-37q-74 0 -90 -26v-153h-48v287q0 97 91 118z" />
    <glyph glyph-name="khorakhangthai" unicode="&#xe06;" horiz-adv-x="406" 
d="M89 166v-34q0 -42 34 -67.5t87 -25.5q47 0 74 24t27 69v268h48v-273q0 -132 -145 -132q-77 0 -125 52v-47h-48v166q0 34 28 77t28 66q0 34 -7 48l-39 -33q-7 6 -24.5 22.5t-26.5 24.5l27 29l25 -24q29 23 27 24q45 0 54.5 -16.5t9.5 -74.5q0 -35 -27 -72.5t-27 -70.5z
" />
    <glyph glyph-name="ngonguthai" unicode="&#xe07;" horiz-adv-x="284" 
d="M139 360v40h98v-304q0 -101 -119 -101q-79 0 -113 37l28 35q34 -28 85 -28q71 0 71 62v259h-50z" />
    <glyph glyph-name="chochanthai" unicode="&#xe08;" horiz-adv-x="374" 
d="M286 109v183q0 42 -27.5 55t-79.5 13q-53 0 -81 -13t-28 -55v-11h-48v16q0 108 157 108q155 0 155 -108v-187q0 -48 -27.5 -79t-72.5 -31h-98l-26 143h-42v45h85l25 -143h56q22 2 33.5 11t14 20t4.5 33z" />
    <glyph glyph-name="chochingthai" unicode="&#xe09;" horiz-adv-x="394" 
d="M299 127v165q0 42 -27.5 55t-79.5 13t-80 -13t-28 -55v-6h-48v11q0 108 156 108q155 0 155 -108v-297h-48v44q-36 -49 -113 -49q-72 0 -97 33t-25 99v16h-29v44h77v-60q0 -48 16 -68t63 -20q51 0 79.5 23t28.5 65z" />
    <glyph glyph-name="chochangthai" unicode="&#xe0a;" horiz-adv-x="360" 
d="M38 131v35q0 34 28 77t28 66q0 38 -4.5 44.5t-31.5 6.5h-20v40h20q61 0 71.5 -11.5t10.5 -79.5q0 -35 -27 -72.5t-27 -70.5v-35q0 -31 4 -48t24.5 -30.5t60.5 -13.5q58 0 73.5 20.5t15.5 66.5v99q0 63 -74 66v40q32 0 53.5 19t25.5 50h48q-1 -21 -4.5 -35t-16.5 -29.5
t-37 -23.5q25 -12 37 -28t14 -27t2 -32v-98q0 -66 -29 -99t-108 -33q-46 0 -75.5 11.5t-42 34t-16 42t-3.5 48.5z" />
    <glyph glyph-name="sosothai" unicode="&#xe0b;" horiz-adv-x="368" 
d="M46 131v35q0 34 28 77t28 66q0 34 -7 48l-39 -33q-7 6 -24.5 22.5t-26.5 24.5l27 29l25 -24q29 23 27 24q45 0 54.5 -16.5t9.5 -74.5q0 -35 -27 -72.5t-27 -70.5v-35q0 -31 4 -48t24.5 -30.5t60.5 -13.5q58 0 73.5 20.5t15.5 66.5v99q0 63 -74 66v40q32 0 53.5 19
t25.5 50h48q-1 -21 -4.5 -35t-16.5 -29.5t-37 -23.5q25 -12 37 -28t14 -27t2 -32v-98q0 -66 -29 -99t-108 -33q-46 0 -75.5 11.5t-42 34t-16 42t-3.5 48.5z" />
    <glyph glyph-name="chochoethai" unicode="&#xe0c;" horiz-adv-x="633" 
d="M304 0v280q0 28 -14.5 46t-37.5 24.5t-35 8t-23 1.5q-74 0 -102 -45v-271h44v-44h-92v333q51 72 150 72q43 0 75 -12.5t47.5 -28t24 -36.5t10 -31t1.5 -17v-132q0 -46 25 -77.5t75 -31.5q46 0 66 23t20 70v268h48v-273q0 -132 -117 -132q-84 0 -117 51v-46h-48z" />
    <glyph glyph-name="yoyingthai" unicode="&#xe0d;" horiz-adv-x="633" 
d="M538 8v38q-33 -51 -117 -51q-117 0 -117 132v153q0 28 -14.5 46t-37.5 24.5t-35 8t-23 1.5q-74 0 -102 -45v-271h44v-44h-92v333q51 72 150 72q43 0 75 -12.5t47.5 -28t24 -36.5t10 -31t1.5 -17v-148q0 -47 20 -70t66 -23q50 0 75 31.5t25 77.5v252h48v-383
q0 -66 -35 -94t-109 -28q-55 0 -97 8l10 43q30 -6 87 -6q50 0 73 12.5t23 55.5z" />
    <glyph glyph-name="dochadathai" unicode="&#xe0e;" horiz-adv-x="412" 
d="M317 -66v346q0 28 -14.5 46t-37.5 24.5t-35 8t-23 1.5q-73 0 -102 -45v-315h-90v44h42v289q51 72 150 72q43 0 75 -12.5t47.5 -28t24 -36.5t10 -31t1.5 -17v-350q0 -11 -1.5 -22.5t-9.5 -31.5t-22 -34.5t-43 -26t-68 -11.5h-159v45h160q10 0 20.5 1.5t30 8.5t32 26.5
t12.5 48.5z" />
    <glyph glyph-name="topatakthai" unicode="&#xe0f;" horiz-adv-x="412" 
d="M317 -94v374q0 28 -14.5 46t-37.5 24.5t-35 8t-23 1.5q-73 0 -102 -45v-315h-90v44h42v289q51 72 150 72q43 0 75 -12.5t47.5 -28t24 -36.5t10 -31t1.5 -17v-362q0 -95 -90 -114l-63 26l-65 -26h-85v45h88l62 26l61 -26q44 17 44 57z" />
    <glyph glyph-name="thothanthai" unicode="&#xe10;" horiz-adv-x="374" 
d="M286 -17h48q0 -48 -22.5 -67.5t-68.5 -19.5h-157v45h157q23 0 33 8t10 34zM286 109v183q0 42 -27.5 55t-79.5 13q-53 0 -81 -13t-28 -55v-11h-48v16q0 108 157 108q15 0 22 -1l115 36l18 -40l-50 -16q50 -27 50 -87v-187q0 -48 -27.5 -79t-72.5 -31h-98l-26 143h-42v45
h85l25 -143h56q22 2 33.5 11t14 20t4.5 33z" />
    <glyph glyph-name="thonangmonthothai" unicode="&#xe11;" horiz-adv-x="416" 
d="M249 405q72 0 96 -32.5t24 -99.5v-273h-48v273q0 48 -17 67.5t-64 19.5q-58 0 -98.5 -53t-40.5 -149v-158h-48v158q0 87 32 148q0 37 -7 51l-39 -33q-7 6 -24.5 22.5t-26.5 24.5l27 29l25 -24q29 23 27 24q35 0 48 -10t15 -37q24 52 119 52z" />
    <glyph glyph-name="thophuthaothai" unicode="&#xe12;" horiz-adv-x="647" 
d="M318 0v300q0 46 -47 61q-12 -4 -36.5 -16.5t-31.5 -15.5l-70 32q-45 -14 -45 -61v-171q0 -23 1 -34.5t4.5 -25.5t13 -19.5t24.5 -5.5h31v-44h-31q-26 0 -44 8.5t-27 20t-14 31.5t-5.5 33.5t-0.5 35.5v158q0 97 92 118l71 -33l69 33q94 -19 94 -118v-139q0 -46 25 -77.5
t75 -31.5q46 0 66 23t20 70v268h48v-273q0 -132 -117 -132q-84 0 -117 51v-46h-48z" />
    <glyph glyph-name="nonenthai" unicode="&#xe13;" horiz-adv-x="633" 
d="M304 127v153q0 28 -14.5 46t-37.5 24.5t-35 8t-23 1.5q-74 0 -102 -45v-271h44v-44h-92v333q51 72 150 72q43 0 75 -12.5t47.5 -28t24 -36.5t10 -31t1.5 -17v-148q0 -47 20 -70t66 -23q50 0 75 31.5t25 77.5v252h48v-400h-48v46q-33 -51 -117 -51q-117 0 -117 132z" />
    <glyph glyph-name="dodekthai" unicode="&#xe14;" horiz-adv-x="409" 
d="M40 126v156q0 66 39.5 94.5t121.5 28.5t121.5 -28.5t39.5 -94.5v-282h-48v292q0 29 -18 45t-39.5 19.5t-55.5 3.5q-53 0 -83 -13t-30 -55v-161q0 -23 1 -34t4.5 -26t12.5 -21t24 -6h30v-44h-30q-25 0 -43 8.5t-27 19.5t-13.5 30.5t-5.5 33t-1 34.5z" />
    <glyph glyph-name="totaothai" unicode="&#xe15;" horiz-adv-x="413" 
d="M132 405l71 -33l69 33q94 -19 94 -118v-287h-48v300q0 46 -47 61q-12 -4 -36.5 -16.5t-31.5 -15.5l-70 32q-45 -14 -45 -61v-171q0 -23 1 -34.5t4.5 -25.5t13 -19.5t24.5 -5.5h31v-44h-31q-26 0 -44 8.5t-27 20t-14 31.5t-5.5 33.5t-0.5 35.5v158q0 97 92 118z" />
    <glyph glyph-name="thothungthai" unicode="&#xe16;" horiz-adv-x="399" 
d="M92 44h44v-44h-92v333q51 72 150 72q43 0 75 -12.5t47.5 -28t24 -36.5t10 -31t1.5 -17v-280h-48v280q0 28 -14.5 46t-37.5 24.5t-35 8t-23 1.5q-74 0 -102 -45v-271z" />
    <glyph glyph-name="thothahanthai" unicode="&#xe17;" horiz-adv-x="412" 
d="M365 0h-48v268q0 45 -27 69t-74 24q-53 0 -87 -25.5t-34 -67.5v-268h-48v400h48v-47q48 52 125 52q145 0 145 -132v-273z" />
    <glyph glyph-name="thothongthai" unicode="&#xe18;" horiz-adv-x="341" 
d="M163 405q87 0 135 -19q-3 -5 -16 -40q-45 14 -119 14q-43 0 -63 -11t-20 -47q0 -20 24.5 -33t59 -22t69 -19t59 -30.5t24.5 -50.5v-53q0 -99 -133 -99q-111 0 -153 45v121h48v-101q42 -21 104 -21q43 0 64.5 12t21.5 48v53q0 15 -24.5 26.5t-59 20t-69 19.5t-59 32.5
t-24.5 51.5q0 32 11 53.5t31.5 32t41 14t47.5 3.5z" />
    <glyph glyph-name="nonuthai" unicode="&#xe19;" horiz-adv-x="405" 
d="M40 400h48v-268q0 -45 27 -69t74 -24q53 0 87 25.5t34 67.5v268h48v-400h-48v47q-48 -52 -125 -52q-145 0 -145 132v273z" />
    <glyph glyph-name="bobaimaithai" unicode="&#xe1a;" horiz-adv-x="395" 
d="M300 400h48v-274q0 -20 -1.5 -33t-9.5 -33.5t-23.5 -33t-46.5 -22t-75 -9.5t-75.5 9.5t-46.5 22t-23.5 33t-10 33.5t-1.5 33v274h48v-274q0 -87 109 -87q27 0 43 2.5t32.5 10.5t24.5 26.5t8 47.5v274z" />
    <glyph glyph-name="poplathai" unicode="&#xe1b;" horiz-adv-x="395" 
d="M300 530h48v-404q0 -20 -1.5 -33t-9.5 -33.5t-23.5 -33t-46.5 -22t-75 -9.5t-75.5 9.5t-46.5 22t-23.5 33t-10 33.5t-1.5 33v274h48v-274q0 -87 109 -87q27 0 43 2.5t32.5 10.5t24.5 26.5t8 47.5v404z" />
    <glyph glyph-name="phophungthai" unicode="&#xe1c;" horiz-adv-x="483" 
d="M47 400h115v-40h-67v-261q0 -35 15 -47.5t47 -12.5q61 0 61 60v164h48v-164q0 -60 61 -60q32 0 46.5 12.5t14.5 47.5v301h48v-301q0 -35 -9 -57.5t-26.5 -31.5t-33 -12t-39.5 -3h-7.5t-17 2.5t-23 6.5t-21.5 13t-17 22q-9 -20 -30.5 -31t-38.5 -12l-17 -1q-24 0 -39.5 3
t-33.5 12t-27 31.5t-9 57.5v301z" />
    <glyph glyph-name="fofathai" unicode="&#xe1d;" horiz-adv-x="483" 
d="M47 400h115v-40h-67v-261q0 -35 15 -47.5t47 -12.5q61 0 61 60v164h48v-164q0 -60 61 -60q32 0 46.5 12.5t14.5 47.5v431h48v-431q0 -35 -9 -57.5t-26.5 -31.5t-33 -12t-39.5 -3h-7.5t-17 2.5t-23 6.5t-21.5 13t-17 22q-9 -20 -30.5 -31t-38.5 -12l-17 -1q-24 0 -39.5 3
t-33.5 12t-27 31.5t-9 57.5v301z" />
    <glyph glyph-name="phophanthai" unicode="&#xe1e;" horiz-adv-x="483" 
d="M388 400h48v-301q0 -35 -9 -57.5t-26.5 -31.5t-33 -12t-39.5 -3h-7.5t-17 2.5t-23 6.5t-21.5 13t-17 22q-9 -20 -30.5 -31t-38.5 -12l-17 -1q-24 0 -39.5 3t-33.5 12t-27 31.5t-9 57.5v301h48v-301q0 -35 15 -47.5t47 -12.5q61 0 61 60v263h48v-263q0 -60 61 -60
q32 0 46.5 12.5t14.5 47.5v301z" />
    <glyph glyph-name="fofanthai" unicode="&#xe1f;" horiz-adv-x="483" 
d="M388 530h48v-431q0 -35 -9 -57.5t-26.5 -31.5t-33 -12t-39.5 -3h-7.5t-17 2.5t-23 6.5t-21.5 13t-17 22q-9 -20 -30.5 -31t-38.5 -12l-17 -1q-24 0 -39.5 3t-33.5 12t-27 31.5t-9 57.5v301h48v-301q0 -35 15 -47.5t47 -12.5q61 0 61 60v263h48v-263q0 -60 61 -60
q32 0 46.5 12.5t14.5 47.5v431z" />
    <glyph glyph-name="phosamphaothai" unicode="&#xe20;" horiz-adv-x="412" 
d="M57 44v289q51 72 150 72q43 0 75 -12.5t47.5 -28t24 -36.5t10 -31t1.5 -17v-280h-48v280q0 28 -14.5 46t-37.5 24.5t-35 8t-23 1.5q-73 0 -102 -45v-315h-90v44h42z" />
    <glyph glyph-name="momathai" unicode="&#xe21;" horiz-adv-x="412" 
d="M317 400h48v-273q0 -132 -145 -132q-77 0 -125 52v-47h-48v400h48v-268q0 -42 34 -67.5t87 -25.5q47 0 74 24t27 69v268z" />
    <glyph glyph-name="yoyakthai" unicode="&#xe22;" horiz-adv-x="411" 
d="M316 400h48v-295q0 -50 -28 -80t-82 -30h-104q-68 0 -90 30.5t-22 89.5q0 16 1 25t6.5 23.5t18.5 26t35 20.5q-41 9 -54 32t-13 57q0 46 25 73.5t69 27.5h73v-40h-34q-50 0 -67.5 -10t-17.5 -51q0 -35 23 -52t57 -17h39v-40h-36q-36 0 -56.5 -20.5t-20.5 -54.5
q0 -38 12.5 -57t55.5 -19h100q31 2 45 18.5t17 46.5v296z" />
    <glyph glyph-name="roruathai" unicode="&#xe23;" horiz-adv-x="325" 
d="M77 294q0 -24 22.5 -39t54.5 -24.5t64 -21.5t54.5 -36.5t22.5 -62.5q0 -115 -139 -115q-98 0 -136 40q5 6 14 19t14 18q43 -33 107 -33q40 0 66 18t26 53q0 28 -22.5 44.5t-54.5 24.5t-64 18t-54.5 34t-22.5 63q0 111 127 111q77 0 119 -19q-14 -35 -17 -41
q-36 15 -102 15q-79 0 -79 -66z" />
    <glyph glyph-name="ruthai" unicode="&#xe24;" horiz-adv-x="399" 
d="M92 44h44v-44h-92v333q51 72 150 72q43 0 75 -12.5t47.5 -28t24 -36.5t10 -31t1.5 -17v-440h-48v440q0 28 -14.5 46t-37.5 24.5t-35 8t-23 1.5q-74 0 -102 -45v-271z" />
    <glyph glyph-name="lolingthai" unicode="&#xe25;" horiz-adv-x="392" 
d="M297 211v81q0 42 -27.5 55t-79.5 13t-79.5 -13t-27.5 -55v-6h-48v11q0 108 155 108t155 -108v-297h-48v134q0 17 -11.5 28t-34 15t-38 5t-41.5 1q-94 0 -94 -65q0 -48 11.5 -61t67.5 -13h4v-44h-24q-38 0 -61 9t-32.5 28.5t-11.5 34.5t-2 44q0 112 141 112q90 0 126 -17z
" />
    <glyph glyph-name="luthai" unicode="&#xe26;" horiz-adv-x="412" 
d="M57 44v289q51 72 150 72q43 0 75 -12.5t47.5 -28t24 -36.5t10 -31t1.5 -17v-440h-48v440q0 28 -14.5 46t-37.5 24.5t-35 8t-23 1.5q-73 0 -102 -45v-315h-90v44h42z" />
    <glyph glyph-name="wowaenthai" unicode="&#xe27;" horiz-adv-x="348" 
d="M253 111v181q0 43 -23 55.5t-74 12.5q-49 0 -68.5 -12.5t-19.5 -55.5v-6h-48v11q0 58 32 83t104 25q73 0 109 -25.5t36 -82.5v-176q0 -68 -32.5 -97t-103.5 -29q-60 0 -89 12l14 41q30 -9 75 -9q48 0 68 14t20 58z" />
    <glyph glyph-name="sosalathai" unicode="&#xe28;" horiz-adv-x="409" 
d="M201 405q16 0 24 -1l119 36l18 -40l-53 -16q53 -27 53 -102v-282h-48v292q0 29 -18 45t-39.5 19.5t-55.5 3.5q-53 0 -83 -13t-30 -55v-90q34 18 88 18h37v-45h-37q-72 0 -88 -25v-150h-48v282q0 66 39.5 94.5t121.5 28.5z" />
    <glyph glyph-name="sorusithai" unicode="&#xe29;" horiz-adv-x="403" 
d="M300 400h48v-154h35v-44h-35v-76q0 -20 -1.5 -33t-9.5 -33.5t-23.5 -33t-46.5 -22t-75 -9.5t-75.5 9.5t-46.5 22t-23.5 33t-10 33.5t-1.5 33v274h48v-274q0 -87 109 -87q27 0 43 2.5t32.5 10.5t24.5 26.5t8 47.5v76h-121v76h48v-32h73v154z" />
    <glyph glyph-name="sosuathai" unicode="&#xe2a;" horiz-adv-x="392" 
d="M297 211v81q0 42 -27.5 55t-79.5 13t-79.5 -13t-27.5 -55v-6h-48v11q0 108 155 108q13 0 19 -1l117 36l18 -40l-49 -15q50 -27 50 -88v-297h-48v134q0 17 -11.5 28t-34 15t-38 5t-41.5 1q-94 0 -94 -65q0 -48 11.5 -61t67.5 -13h4v-44h-24q-38 0 -61 9t-32.5 28.5
t-11.5 34.5t-2 44q0 112 141 112q90 0 126 -17z" />
    <glyph glyph-name="hohipthai" unicode="&#xe2b;" horiz-adv-x="405" 
d="M47 0v400h48v-107h164q24 0 37.5 18.5t13.5 43.5v45h48v-45q0 -21 -10.5 -45.5t-27.5 -38.5q38 -36 38 -102v-169h-48v164q0 32 -12.5 58t-40.5 26h-162v-248h-48z" />
    <glyph glyph-name="lochulathai" unicode="&#xe2c;" horiz-adv-x="488" 
d="M388 99v283q0 63 -74 66v40q32 0 53.5 19t25.5 50h48q-1 -21 -4.5 -35t-16.5 -29.5t-37 -23.5q25 -12 37 -28t14 -27t2 -32v-283q0 -35 -9 -57.5t-26.5 -31.5t-33 -12t-39.5 -3h-7.5t-17 2.5t-23 6.5t-21.5 13t-17 22q-9 -20 -30.5 -31t-38.5 -12l-17 -1q-24 0 -39.5 3
t-33.5 12t-27 31.5t-9 57.5v301h48v-301q0 -35 15 -47.5t47 -12.5q61 0 61 60v263h48v-263q0 -60 61 -60q32 0 46.5 12.5t14.5 47.5z" />
    <glyph glyph-name="oangthai" unicode="&#xe2d;" horiz-adv-x="388" 
d="M348 297v-174q0 -128 -155 -128q-156 0 -156 128v81h98v-40h-50v-41q0 -84 108 -84q107 0 107 84v174q0 39 -28 51t-79 12q-52 0 -80 -12t-28 -51v-20h-48v20q0 108 156 108q155 0 155 -108z" />
    <glyph glyph-name="honokhukthai" unicode="&#xe2e;" horiz-adv-x="388" 
d="M299 385q49 -27 49 -88v-174q0 -128 -155 -128q-156 0 -156 128v81h98v-40h-50v-41q0 -84 108 -84q107 0 107 84v174q0 39 -28 51t-79 12q-52 0 -80 -12t-28 -51v-20h-48v20q0 108 156 108q14 0 21 -1l116 36l18 -40z" />
    <glyph glyph-name="paiyannoithai" unicode="&#xe2f;" horiz-adv-x="337" 
d="M242 -66v340q-43 -27 -90 -27q-78 0 -107.5 35t-29.5 102v16h48v-17q0 -24 2.5 -37.5t10.5 -27.5t27 -20t49 -6q58 0 74 24t16 72v12h48v-466h-48z" />
    <glyph glyph-name="saraathai" unicode="&#xe30;" horiz-adv-x="226" 
d="M45 333h48v-31h89v-45h-120q-17 3 -17 18v58zM45 154h48v-31h89v-45h-120q-17 3 -17 18v58z" />
    <glyph glyph-name="maihanakatthai" unicode="&#xe31;" 
d="M15 530v-45h-253v83h48v-38h205z" />
    <glyph glyph-name="saraaathai" unicode="&#xe32;" horiz-adv-x="290" 
d="M243 0h-48v282q0 33 -15.5 51.5t-32.5 22.5t-42 4q-56 0 -85 -17l-20 33q32 29 105 29q138 0 138 -123v-282z" />
    <glyph glyph-name="saraamthai" unicode="&#xe33;" horiz-adv-x="290" 
d="M243 0h-48v282q0 33 -15.5 51.5t-32.5 22.5t-42 4q-56 0 -85 -17l-20 33q32 29 105 29q138 0 138 -123v-282zM-109 583q26 0 44 -18t18 -44t-18 -43.5t-44 -17.5q-25 0 -42.5 18t-17.5 43q0 26 17.5 44t42.5 18zM-109 498q10 0 16.5 7t6.5 16t-6.5 16t-16.5 7
q-9 0 -15.5 -7t-6.5 -16t6.5 -16t15.5 -7z" />
    <glyph glyph-name="saraithai" unicode="&#xe34;" 
d="M-340 485v45h293v-45h-293z" />
    <glyph glyph-name="saraiithai" unicode="&#xe35;" 
d="M-340 485v45h238v38h55v-83h-293z" />
    <glyph glyph-name="sarauethai" unicode="&#xe36;" 
d="M-100 597q22 0 37.5 -15.5t15.5 -37.5q0 -25 -16 -42t-39 -17h-238v45h185v14q0 22 16 37.5t39 15.5zM-100 522q8 0 14 6t6 15q0 8 -6 14t-14 6q-10 0 -16 -6t-6 -14q0 -9 6 -15t16 -6z" />
    <glyph glyph-name="saraueethai" unicode="&#xe37;" 
d="M-340 485v45h140v38h56v-38h42v38h55v-83h-293z" />
    <glyph glyph-name="sarauthai" unicode="&#xe38;" 
d="M-47 -177h-48v67h-33v45h81v-112z" />
    <glyph glyph-name="sarauuthai" unicode="&#xe39;" 
d="M-47 -65v-39q0 -55 -15.5 -72t-66.5 -17t-67 17t-16 67h-24v44h72v-44q0 -31 4.5 -36.5t30.5 -5.5q25 0 29.5 5.5t4.5 36.5v44h48z" />
    <glyph glyph-name="phinthuthai" unicode="&#xe3a;" 
d="M-75 -65q11 0 19.5 -8t8.5 -20q0 -11 -8.5 -19t-19.5 -8t-19 8t-8 19q0 12 8 20t19 8z" />
    <glyph glyph-name="nptp3.001march2007r" unicode="&#xe3e;" 
 />
    <glyph glyph-name="bahtthai" unicode="&#xe3f;" horiz-adv-x="469" 
d="M419 362q0 -71 -40 -113q40 -42 40 -112q0 -72 -27 -104.5t-89 -32.5h-42v-55h-48v55h-158v500h158v60h48v-60h42q62 0 89 -33t27 -105zM103 455v-182h110v182h-110zM103 44h110v184h-110v-184zM303 44q43 0 55.5 21.5t12.5 71.5q0 46 -11.5 68.5t-48.5 22.5h-50v-184h42
zM303 273q43 0 55.5 20.5t12.5 68.5q0 50 -12.5 71.5t-55.5 21.5h-42v-182h42z" />
    <glyph glyph-name="saraethai" unicode="&#xe40;" horiz-adv-x="142" 
d="M47 0v400h48v-400h-48z" />
    <glyph glyph-name="saraaethai" unicode="&#xe41;" horiz-adv-x="288" 
d="M50 0v400h48v-400h-48zM193 0v400h48v-400h-48z" />
    <glyph glyph-name="saraothai" unicode="&#xe42;" horiz-adv-x="178" 
d="M67 0v403q0 20 -10.5 37.5t-23 28t-23 30t-10.5 42.5q0 17 1.5 27t8.5 24.5t25 21.5t46 7h141v-45h-141q-22 0 -27.5 -9t-5.5 -31q0 -16 16.5 -35t33.5 -43.5t17 -54.5v-403h-48z" />
    <glyph glyph-name="saraaimaimuanthai" unicode="&#xe43;" horiz-adv-x="163" 
d="M150 539q0 -29 -19.5 -75t-19.5 -72v-392h-48v392q0 34 19.5 77t19.5 72q0 35 -53 35q-31 0 -59 -24q-5 4 -27 32q31 37 86 37q101 0 101 -82z" />
    <glyph glyph-name="saraaimaimalaithai" unicode="&#xe44;" horiz-adv-x="176" 
d="M123 403v-403h-48v403q0 30 16.5 54.5t33.5 43.5t17 35q0 15 -1.5 22t-9 12.5t-22.5 5.5h-141v45h141q28 0 46 -7t25 -21.5t8.5 -24.5t1.5 -27q0 -23 -10.5 -42.5t-23 -30t-23 -28t-10.5 -37.5z" />
    <glyph glyph-name="lakkhangyaothai" unicode="&#xe45;" horiz-adv-x="290" 
d="M243 -196h-48v478q0 33 -15.5 51.5t-32.5 22.5t-42 4q-56 0 -85 -17l-20 33q32 29 105 29q138 0 138 -123v-478z" />
    <glyph glyph-name="maiyamokthai" unicode="&#xe46;" horiz-adv-x="362" 
d="M39 230v57q0 53 19 81t62 37l55 -25l54 25q86 -20 86 -118v-352h-48v364q0 47 -40 61q-26 -11 -52 -26l-52 26q-22 -7 -29 -20.5t-7 -40.5v-24h51v-45h-99z" />
    <glyph glyph-name="maitaikhuthai" unicode="&#xe47;" 
d="M-243 576v-8q0 -40 35 -40l43 25l44 -25q20 6 26.5 13t7.5 25h40q0 -64 -71 -81l-47 24l-47 -24q-42 9 -61 27t-19 59q0 44 18 59.5t58 15.5h197v-45h-191q-23 0 -28 -3.5t-5 -21.5z" />
    <glyph glyph-name="maiekthai" unicode="&#xe48;" 
d="M-102 635v99h55v-99h-55z" />
    <glyph glyph-name="maithothai" unicode="&#xe49;" 
d="M-150 635v45h-38v45h86v-45h97v-45h-145z" />
    <glyph glyph-name="maitrithai" unicode="&#xe4a;" 
d="M-47 680h28v-45h-73v56q0 26 -8 36t-30 13l-38 -20l-37 20q-23 -3 -31 -13t-8 -36v-11h36v-45h-85v45q0 52 19 72.5t63 30.5l43 -24l43 24q45 -10 61.5 -28.5t16.5 -74.5z" />
    <glyph glyph-name="maichattawathai" unicode="&#xe4b;" 
d="M-3 713v-41h-44v-37h-48v37h-45v41h45v40h48v-40h44z" />
    <glyph glyph-name="thanthakhatthai" unicode="&#xe4c;" 
d="M-150 635v85h164v-45h-116v-40h-48z" />
    <glyph glyph-name="nikhahitthai" unicode="&#xe4d;" 
d="M-109 583q26 0 44 -18t18 -44t-18 -43.5t-44 -17.5q-25 0 -42.5 18t-17.5 43q0 26 17.5 44t42.5 18zM-109 498q10 0 16.5 7t6.5 16t-6.5 16t-16.5 7q-9 0 -15.5 -7t-6.5 -16t6.5 -16t15.5 -7z" />
    <glyph glyph-name="yamakkanthai" unicode="&#xe4e;" 
 />
    <glyph glyph-name="fongmanthai" unicode="&#xe4f;" horiz-adv-x="447" 
d="M222 380q71 0 120.5 -49.5t49.5 -120.5q0 -70 -49.5 -118.5t-120.5 -48.5q-70 0 -118.5 48.5t-48.5 118.5q0 71 48.5 120.5t118.5 49.5zM222 66q62 0 104.5 41.5t42.5 102.5q0 62 -42.5 104.5t-104.5 42.5q-61 0 -102.5 -42.5t-41.5 -104.5q0 -61 41.5 -102.5
t102.5 -41.5zM123 210q0 41 29 70.5t70 29.5q40 0 69 -29.5t29 -70.5q0 -40 -29 -69t-69 -29q-41 0 -70 28.5t-29 69.5z" />
    <glyph glyph-name="zerothai" unicode="&#xe50;" horiz-adv-x="403" 
d="M363 190v-65q0 -65 -43 -97.5t-119 -32.5q-80 0 -120.5 34t-40.5 96v65q0 66 42.5 98t118.5 32q81 0 121.5 -33.5t40.5 -96.5zM315 125v65q0 45 -32.5 65.5t-81.5 20.5t-81 -20.5t-32 -65.5v-65q0 -45 32 -65.5t81 -20.5t81.5 20.5t32.5 65.5z" />
    <glyph glyph-name="onethai" unicode="&#xe51;" horiz-adv-x="377" 
d="M148 124v-44q-77 1 -105 21.5t-28 73.5v15q0 66 42.5 98t119.5 32q80 0 120 -33.5t40 -96.5v-68q0 -71 -37.5 -110t-108.5 -39q-57 0 -99 8l13 43q35 -7 86 -7q45 0 71.5 23.5t26.5 66.5v83q0 86 -112 86q-114 0 -114 -86v-15q0 -33 19.5 -42t65.5 -9z" />
    <glyph glyph-name="twothai" unicode="&#xe52;" horiz-adv-x="430" 
d="M122 191v12q0 52 20 80t63 37l52 -27l43 27q90 -21 90 -117v-74q0 -22 -0.5 -35.5t-5.5 -33.5t-14 -31.5t-27.5 -20t-44.5 -8.5h-166q-26 0 -44 8.5t-27.5 20t-14 31.5t-5.5 33.5t-1 35.5v263h48v-254q0 -24 1 -35.5t4.5 -28t13 -23.5t25.5 -7h166q21 0 31 15.5
t11.5 31.5t1.5 47v74q0 47 -48 64q-5 -4 -38 -26l-45 26q-24 -10 -32.5 -24t-8.5 -40v-21h-48z" />
    <glyph glyph-name="threethai" unicode="&#xe53;" horiz-adv-x="406" 
d="M132 320l71 -29l70 29q93 -18 93 -117v-203h-48v213q0 45 -46 63q-13 -4 -38.5 -14.5t-30.5 -12.5l-70 27q-45 -17 -45 -63v-84q0 -23 1 -34.5t4.5 -25.5t13 -19.5t24.5 -5.5h30v-44h-30q-26 0 -44 8.5t-27 20t-14 31.5t-5.5 33.5t-0.5 35.5v74q0 98 92 117z" />
    <glyph glyph-name="fourthai" unicode="&#xe54;" horiz-adv-x="416" 
d="M242 276h-60q-47 0 -70.5 -19.5t-23.5 -67.5v-64q0 -47 23.5 -66.5t70.5 -19.5q57 0 85 26q-9 26 -9 77v56h97v-44h-49q0 -28 1.5 -43.5t9 -34t24.5 -27.5t45 -10v-44q-73 3 -101 28q-26 -28 -103 -28t-109.5 33t-32.5 97v64q0 68 34 99.5t108 31.5h60q23 0 34.5 1
t27.5 4.5t23 13t7 24.5v29h48v-33q0 -24 -10 -40.5t-22.5 -24.5t-35 -12.5t-36 -5t-36.5 -0.5z" />
    <glyph glyph-name="fivethai" unicode="&#xe55;" horiz-adv-x="416" 
d="M205 410q26 0 44 -18t18 -44q0 -17 -7 -28q74 0 74 43v29h48v-33q0 -24 -10 -40.5t-22.5 -24.5t-35 -12.5t-36 -5t-36.5 -0.5h-60q-47 0 -70.5 -19.5t-23.5 -67.5v-64q0 -47 23.5 -66.5t70.5 -19.5q57 0 85 26q-9 26 -9 77v56h97v-44h-49q0 -28 1.5 -43.5t9 -34
t24.5 -27.5t45 -10v-44q-73 3 -101 28q-26 -28 -103 -28t-109.5 33t-32.5 97v64q0 61 27 92.5t85 37.5q-7 11 -7 29q0 26 17.5 44t42.5 18zM205 325q10 0 16.5 7t6.5 16t-6.5 16t-16.5 7q-9 0 -15.5 -7t-6.5 -16t6.5 -16t15.5 -7z" />
    <glyph glyph-name="sixthai" unicode="&#xe56;" horiz-adv-x="385" 
d="M53 127h48q0 -51 20.5 -69.5t88.5 -18.5q46 0 66.5 19t20.5 67v57q0 45 -23.5 69.5t-67.5 24.5q-78 0 -101 -38h-50q-7 33 -20 89.5t-15 64.5h49l23 -108q25 36 114 36q70 0 104.5 -39t34.5 -110v-46q0 -65 -29.5 -97.5t-105.5 -32.5q-55 0 -88 9t-47.5 29.5t-18 39.5
t-3.5 54z" />
    <glyph glyph-name="seventhai" unicode="&#xe57;" horiz-adv-x="510" 
d="M318 0v213q0 45 -46 63q-13 -4 -38.5 -14.5t-30.5 -12.5l-70 27q-45 -17 -45 -63v-84q0 -23 1 -34.5t4.5 -25.5t13 -19.5t24.5 -5.5h30v-44h-30q-26 0 -44 8.5t-27 20t-14 31.5t-5.5 33.5t-0.5 35.5v74q0 98 92 117l71 -29l70 29q93 -18 93 -117v-159q16 0 23.5 1t16.5 6
t12.5 17.5t3.5 33.5v290h48v-290q0 -60 -20 -81t-86 -21h-46z" />
    <glyph glyph-name="eightthai" unicode="&#xe58;" horiz-adv-x="413" 
d="M243 276h-60q-48 0 -71.5 -19.5t-23.5 -66.5v-89q0 -43 54 -62q15 6 62 27l64 -27q38 13 38 62v44h-50v44h98v-76q0 -57 -20 -83t-64 -35l-66 29l-64 -29q-49 9 -74.5 35.5t-25.5 82.5v77q0 67 35 98.5t108 31.5h60q23 0 34.5 1t27.5 4.5t23 13t7 24.5v29h48v-33
q0 -24 -10 -40.5t-22.5 -24.5t-35 -12.5t-36 -5t-36.5 -0.5z" />
    <glyph glyph-name="ninethai" unicode="&#xe59;" horiz-adv-x="419" 
d="M371 392h48v-29q0 -30 -8.5 -48.5t-25.5 -26.5t-32.5 -10t-40.5 -2q-49 0 -49 -33q0 -5 2 -13q33 -83 71 -230h-45q-35 124 -60 185t-41.5 76t-41.5 15q-38 0 -49 -16t-11 -48v-84q0 -23 1 -34t4.5 -25t13 -19.5t24.5 -5.5h30v-44h-30q-26 0 -44 8.5t-27 20t-14 31.5
t-5.5 33t-0.5 35v88q0 51 28.5 77.5t79.5 26.5q54 0 89 -36q22 36 75 36q40 0 49.5 6t9.5 37v29z" />
    <glyph glyph-name="angkhankhuthai" unicode="&#xe5a;" horiz-adv-x="435" 
d="M242 -66v340q-43 -27 -90 -27q-78 0 -107.5 35t-29.5 102v16h48v-17q0 -24 2.5 -37.5t10.5 -27.5t27 -20t49 -6q58 0 74 24t16 72v12h48v-466h-48zM340 -66v466h48v-466h-48z" />
    <glyph glyph-name="khomutthai" unicode="&#xe5b;" 
 />
    <glyph glyph-name="ZWSP" unicode="&#x200b;" 
 />
    <glyph glyph-name="endash" unicode="&#x2013;" horiz-adv-x="490" 
d="M55 213h380v-44h-380v44z" />
    <glyph glyph-name="emdash" unicode="&#x2014;" horiz-adv-x="574" 
d="M55 213h464v-44h-464v44z" />
    <glyph glyph-name="quoteleft" unicode="&#x2018;" horiz-adv-x="192" 
d="M54 441l50 97h33q-14 -42 -34 -97h-49z" />
    <glyph glyph-name="quoteright" unicode="&#x2019;" horiz-adv-x="193" 
d="M138 538l-50 -97h-33q14 42 34 97h49z" />
    <glyph glyph-name="bullet" unicode="&#x2022;" horiz-adv-x="262" 
d="M70 184q0 26 18 44t43 18t43 -18t18 -44q0 -25 -18 -43t-43 -18t-43 18t-18 43z" />
    <glyph glyph-name="ellipsis" unicode="&#x2026;" horiz-adv-x="415" 
d="M55 25q0 13 9 22t21 9q13 0 22 -9t9 -22q0 -12 -9 -21t-22 -9q-12 0 -21 9t-9 21zM177 25q0 13 9 22t21 9q13 0 22 -9t9 -22q0 -12 -9 -21t-22 -9q-12 0 -21 9t-9 21zM299 25q0 13 9 22t21 9q13 0 22 -9t9 -22q0 -12 -9 -21t-22 -9q-12 0 -21 9t-9 21z" />
    <glyph glyph-name="uni25CC" unicode="&#x25cc;" horiz-adv-x="512" 
 />
    <glyph glyph-name="thothannobasethai" unicode="&#xf700;" horiz-adv-x="384" 
d="M296 109v183q0 42 -27.5 55t-79.5 13q-53 0 -81 -13t-28 -55v-11h-48v16q0 108 157 108q15 0 22 -1l115 36l18 -40l-50 -16q50 -27 50 -87v-187q0 -48 -27.5 -79t-72.5 -31h-98l-26 143h-42v45h85l25 -143h56q22 2 33.5 11t14 20t4.5 33z" />
    <glyph glyph-name="saraileftthai" unicode="&#xf701;" 
d="M-360 485v45h223v-45h-223z" />
    <glyph glyph-name="saraiileftthai" unicode="&#xf702;" 
d="M-360 485v45h168v38h55v-83h-223z" />
    <glyph glyph-name="saraueleftthai" unicode="&#xf703;" 
d="M-190 597q22 0 37.5 -15.5t15.5 -37.5q0 -25 -16 -42t-39 -17h-168v45h115v14q0 22 16 37.5t39 15.5zM-190 522q8 0 14 6t6 15q0 8 -6 14t-14 6q-10 0 -16 -6t-6 -14q0 -9 6 -15t16 -6z" />
    <glyph glyph-name="saraueeleftthai" unicode="&#xf704;" 
d="M-360 485v45h81v38h48v-38h46v38h48v-83h-223z" />
    <glyph glyph-name="maieklowleftthai" unicode="&#xf705;" 
d="M-185 485v95h48v-95h-48z" />
    <glyph glyph-name="maitholowleftthai" unicode="&#xf706;" 
d="M-282 485v55h-38v45h86v-55h97v-45h-145z" />
    <glyph glyph-name="maitrilowleftthai" unicode="&#xf707;" 
d="M-143 530h23v-45h-68v56q0 26 -8 36t-30 13l-38 -20l-37 20q-23 -3 -31 -13t-8 -36v-11h36v-45h-85v45q0 52 19 72.5t63 30.5l43 -24l43 24q45 -10 61.5 -28.5t16.5 -74.5z" />
    <glyph glyph-name="maichattawalowleftthai" unicode="&#xf708;" 
d="M-137 568v-41h-44v-42h-48v42h-45v41h45v45h48v-45h44z" />
    <glyph glyph-name="thanthakhatlowleftthai" unicode="&#xf709;" 
d="M-301 485v85h164v-45h-116v-40h-48z" />
    <glyph glyph-name="maieklowrightthai" unicode="&#xf70a;" 
d="M-95 485v95h48v-95h-48z" />
    <glyph glyph-name="maitholowrightthai" unicode="&#xf70b;" 
d="M-143 485v55h-38v45h86v-55h97v-45h-145z" />
    <glyph glyph-name="maitrilowrightthai" unicode="&#xf70c;" 
d="M-47 530h30v-45h-75v56q0 26 -8 36t-30 13l-38 -20l-37 20q-23 -3 -31 -13t-8 -36v-11h36v-45h-85v45q0 52 19 72.5t63 30.5l43 -24l43 24q45 -10 61.5 -28.5t16.5 -74.5z" />
    <glyph glyph-name="maichattawalowrightthai" unicode="&#xf70d;" 
d="M-3 568v-41h-44v-42h-48v42h-45v41h45v45h48v-45h44z" />
    <glyph glyph-name="thanthakhatlowrightthai" unicode="&#xf70e;" 
d="M-164 485v85h164v-45h-116v-40h-48z" />
    <glyph glyph-name="yoyingnobasethai" unicode="&#xf70f;" horiz-adv-x="632" 
d="M304 127v153q0 28 -14.5 46t-37.5 24.5t-35 8t-23 1.5q-74 0 -102 -45v-271h44v-44h-92v333q51 72 150 72q43 0 75 -12.5t47.5 -28t24 -36.5t10 -31t1.5 -17v-153q0 -88 95 -88q47 0 69 21t22 67v273h47v-273q0 -72 -35 -102t-103 -30q-69 0 -106 30t-37 102z" />
    <glyph glyph-name="maihanakatleftthai" unicode="&#xf710;" 
d="M-137 530v-45h-223v83h48v-38h175z" />
    <glyph glyph-name="nikhahitleftthai" unicode="&#xf711;" 
d="M-199 583q26 0 44 -18t18 -44t-18 -43.5t-44 -17.5q-25 0 -42.5 18t-17.5 43q0 26 17.5 44t42.5 18zM-199 498q10 0 16.5 7t6.5 16t-6.5 16t-16.5 7q-9 0 -15.5 -7t-6.5 -16t6.5 -16t15.5 -7z" />
    <glyph glyph-name="maitaikhuleftthai" unicode="&#xf712;" 
d="M-313 576v-8q0 -40 35 -40l43 25l44 -25q20 6 26.5 13t7.5 25h40q0 -64 -71 -81l-47 24l-47 -24q-42 9 -61 27t-19 59q0 44 18 59.5t58 15.5h197v-45h-191q-23 0 -28 -3.5t-5 -21.5z" />
    <glyph glyph-name="maiekupperleftthai" unicode="&#xf713;" 
d="M-192 635v99h55v-99h-55z" />
    <glyph glyph-name="maithoupperleftthai" unicode="&#xf714;" 
d="M-240 635v45h-38v45h86v-45h97v-45h-145z" />
    <glyph glyph-name="maitriupperleftthai" unicode="&#xf715;" 
d="M-114 680h28v-45h-73v56q0 26 -8 36t-30 13l-38 -20l-37 20q-23 -3 -31 -13t-8 -36v-11h36v-45h-85v45q0 52 19 72.5t63 30.5l43 -24l43 24q45 -10 61.5 -28.5t16.5 -74.5z" />
    <glyph glyph-name="maichattawaupperleftthai" unicode="&#xf716;" 
d="M-93 713v-41h-44v-37h-48v37h-45v41h45v40h48v-40h44z" />
    <glyph glyph-name="thanthakhatupperleftthai" unicode="&#xf717;" 
d="M-240 635v85h164v-45h-116v-40h-48z" />
    <glyph glyph-name="saraulowthai" unicode="&#xf718;" 
d="M-47 -355h-48v67h-33v45h81v-112z" />
    <glyph glyph-name="sarauulowthai" unicode="&#xf719;" 
d="M-47 -243v-39q0 -55 -15.5 -72t-66.5 -17t-67 17t-16 67h-24v44h72v-44q0 -31 4.5 -36.5t30.5 -5.5q25 0 29.5 5.5t4.5 36.5v44h48z" />
    <glyph glyph-name="phinthulowthai" unicode="&#xf71a;" 
d="M-75 -243q11 0 19.5 -8t8.5 -20q0 -11 -8.5 -19t-19.5 -8t-19 8t-8 19q0 12 8 20t19 8z" />
    <glyph glyph-name="lochula.short" unicode="&#xf71d;" horiz-adv-x="484" 
d="M388 99v126q0 63 -74 66v40q32 0 53.5 19t25.5 50h48q-1 -21 -4.5 -35t-16.5 -29.5t-37 -23.5q25 -12 37 -28t14 -27t2 -32v-126q0 -35 -9 -57.5t-26.5 -31.5t-33 -12t-39.5 -3h-7.5t-17 2.5t-23 6.5t-21.5 13t-17 22q-9 -20 -30.5 -31t-38.5 -12l-17 -1q-24 0 -39.5 3
t-33.5 12t-27 31.5t-9 57.5v301h48v-301q0 -35 15 -47.5t47 -12.5q61 0 61 60v263h48v-263q0 -60 61 -60q32 0 46.5 12.5t14.5 47.5z" />
    <glyph glyph-name="saraamleft" horiz-adv-x="290" 
d="M243 0h-48v282q0 33 -15.5 51.5t-32.5 22.5t-42 4q-56 0 -85 -17l-20 33q32 29 105 29q138 0 138 -123v-282zM-199 583q26 0 44 -18t18 -44t-18 -43.5t-44 -17.5q-25 0 -42.5 18t-17.5 43q0 26 17.5 44t42.5 18zM-199 498q10 0 16.5 7t6.5 16t-6.5 16t-16.5 7
q-9 0 -15.5 -7t-6.5 -16t6.5 -16t15.5 -7z" />
    <glyph glyph-name="yamakkanleftthai" 
 />
    <glyph glyph-name="_0015" 
 />
    <glyph glyph-name="_0016" 
 />
    <glyph glyph-name="Superstore" horiz-adv-x="614" 
d="M306 505q106 0 180 -74t74 -180q0 -104 -74 -177.5t-180 -73.5q-104 0 -177.5 74t-73.5 177q0 106 73.5 180t177.5 74zM413 90q32 0 32 27q0 30 -24 30v133q0 43 -32 71q6 2 19 2t19 -2h11v65q-73 -9 -115 -32q-12 2 -37 2q-49 0 -88 -14v-63h6q50 16 76 16q74 0 74 -43
l-82 -8q-46 -4 -74 -23t-28 -69q0 -42 28.5 -67t73.5 -25q30 0 43 3v54l-6 4q-9 -4 -23 -4q-18 0 -31.5 10t-13.5 31q0 16 18 22.5t95 18.5v-71q0 -37 10.5 -52.5t39.5 -15.5h9z" />
    </font>
</defs>
</svg>
