<?xml version="1.0" standalone="no"?>
<!DOCTYPE svg PUBLIC "-//W3C//DTD SVG 1.1//EN" "http://www.w3.org/Graphics/SVG/1.1/DTD/svg11.dtd" >
<svg xmlns="http://www.w3.org/2000/svg" xmlns:xlink="http://www.w3.org/1999/xlink" version="1.1">
<metadata>
Created by FontForge 20161013 at Thu Jan 19 16:53:13 2012
 By ,,,
Copyright (c) 2012 by Superstorefont. All rights reserved.
</metadata>
<defs>
<font id="Superstore-BoldItalic" horiz-adv-x="0" >
  <font-face 
    font-family="Superstore"
    font-weight="700"
    font-style="italic"
    font-stretch="normal"
    units-per-em="1000"
    panose-1="2 0 0 0 0 0 0 0 0 0"
    ascent="800"
    descent="-200"
    x-height="400"
    cap-height="500"
    bbox="-328 -397 757 818"
    underline-thickness="35"
    underline-position="-176"
    unicode-range="U+0020-F882"
  />
<missing-glyph horiz-adv-x="750" 
d="M621 0h-509l110 628h509zM164 35l2 11h-8q8 -2 6 -11zM679 590l-2 -8h8q-8 0 -6 8zM591 46h-8l-2 -9q2 8 10 9zM252 582h8l2 8q-3 -8 -10 -8zM260 582l-94 -536h417l94 536h-417z" />
    <glyph glyph-name="copyright2" unicode="&#x3b;&#x3b;For&#x20;Education&#x20;Used&#x20;Only&#x3b;&#x3b;" horiz-adv-x="620" 
d="M398 503q105 0 167 -75t43 -180q-19 -106 -107 -180.5t-193 -74.5q-106 0 -167.5 74.5t-42.5 180.5q19 105 106.5 180t193.5 75zM319 60q78 0 143.5 55t78.5 133q14 78 -31.5 133.5t-123.5 55.5t-143 -55.5t-79 -133.5t31.5 -133t123.5 -55zM219 277l-10 -58
q-13 -75 17 -100.5t95 -25.5q62 0 115 23l-9 56q-45 -21 -89 -21q-19 0 -32.5 3t-24 18t-5.5 42l11 63q12 63 84 63q40 0 85 -17l28 60q-54 20 -108 20q-65 0 -104 -25t-53 -101z" />
    <glyph glyph-name="registered2" unicode="&#x3b;&#x3b;Registered&#x3b;&#x3b;" horiz-adv-x="620" 
d="M398 503q105 0 167 -75t43 -180q-19 -106 -107 -180.5t-193 -74.5q-106 0 -167.5 74.5t-42.5 180.5q19 105 106.5 180t193.5 75zM319 60q78 0 143.5 55t78.5 133q14 78 -31.5 133.5t-123.5 55.5t-143 -55.5t-79 -133.5t31.5 -133t123.5 -55zM230 118l49 277h139
q36 0 53.5 -24.5t10.5 -65.5q-10 -56 -61 -83l34 -104h-64l-32 97h-44l-17 -97h-68zM336 331l-9 -52h57q15 0 21 4.5t9 21.5q3 15 -1.5 20.5t-19.5 5.5h-57z" />
    <glyph glyph-name="multiply2" unicode="&#x3b;&#x3b;Multiply&#x3b;&#x3b;" horiz-adv-x="428" 
d="M390 96l-63 -54l-88 107l-126 -107l-45 54l126 107l-88 107l64 54l88 -107l126 107l44 -54l-126 -107z" />
    <glyph glyph-name="divide2" unicode="&#x3b;&#x3b;Divide&#x3b;&#x3b;" horiz-adv-x="489" 
d="M96 238h379l-13 -77h-379zM209 84q4 21 20.5 35.5t37.5 14.5t33 -14.5t8 -35.5t-20.5 -35t-37.5 -14t-33 14t-8 35zM250 314q4 21 20.5 35.5t37.5 14.5t33 -14.5t8 -35.5t-21 -35t-38 -14t-32.5 14t-7.5 35z" />
    <glyph glyph-name="quotedblleft" unicode="&#x2018;&#x2018;" horiz-adv-x="365" 
d="M125 401l91 137h67l-70 -137h-88zM246 401l91 137h67l-70 -137h-88z" />
    <glyph glyph-name="quotedblright" unicode="&#x2019;&#x2019;" horiz-adv-x="365" 
d="M404 538l-91 -137h-67l70 137h88zM283 538l-91 -137h-67l70 137h88z" />
    <glyph glyph-name="trademark2" unicode="&#x3b;&#x3b;Trademark&#x3b;&#x3b;" horiz-adv-x="724" 
d="M389 500l-12 -64h-89l-45 -260h-69l45 260h-88l12 64h246zM577 176h-102l-6 270l-47 -270h-69l57 324h123l1 -278l102 278h121l-57 -324h-68l47 270z" />
    <glyph glyph-name="rulakkhangyao" unicode="&#xe24;&#xe32;" horiz-adv-x="693" 
d="M149 72h42l-12 -72h-132l57 325q68 80 170 80q45 0 75.5 -13.5t43 -30.5t17.5 -39.5t4 -33t-2 -18.5l-82 -466h-90l82 466q3 18 -4.5 29.5t-22 15.5t-22 5t-14.5 1q-24 0 -41.5 -7.5t-23.5 -14.5l-6 -7zM611 -196h-90l83 469q5 27 -9.5 37.5t-35.5 10.5q-51 0 -82 -26
l-35 58q51 47 131 47q66 0 99 -32.5t21 -98.5z" />
    <glyph glyph-name="lulakkhangyao" unicode="&#xe26;&#xe32;" horiz-adv-x="701" 
d="M619 -196h-90l83 469q5 27 -9.5 37.5t-35.5 10.5q-51 0 -82 -26l-35 58q51 47 131 47q66 0 99 -32.5t21 -98.5zM27 72h40l45 253q68 80 170 80q45 0 75.5 -13.5t43 -30.5t17.5 -39.5t4 -33t-2 -18.5l-82 -466h-90l82 466q3 18 -4.5 29.5t-22 15.5t-22 5t-14.5 1
q-24 0 -41.5 -7.5t-23.5 -14.5l-6 -7l-51 -292h-130z" />
    <glyph glyph-name=".notdef" horiz-adv-x="750" 
d="M621 0h-509l110 628h509zM164 35l2 11h-8q8 -2 6 -11zM679 590l-2 -8h8q-8 0 -6 8zM591 46h-8l-2 -9q2 8 10 9zM252 582h8l2 8q-3 -8 -10 -8zM260 582l-94 -536h417l94 536h-417z" />
    <glyph glyph-name=".null" 
 />
    <glyph glyph-name="nonmarkingreturn" horiz-adv-x="283" 
 />
    <glyph glyph-name="space" unicode=" " horiz-adv-x="185" 
 />
    <glyph glyph-name="exclam" unicode="!" horiz-adv-x="200" 
d="M165 137h-81q40 241 59 363h90q-43 -224 -68 -363zM57 44q4 21 20.5 35.5t37.5 14.5t33 -14.5t8 -35.5t-20.5 -35t-37.5 -14t-33 14t-8 35z" />
    <glyph glyph-name="quotedbl" unicode="&#x22;" horiz-adv-x="326" 
d="M141 401l8 137h95l-40 -137h-63zM262 401l8 137h95l-40 -137h-63z" />
    <glyph glyph-name="numbersign" unicode="#" horiz-adv-x="616" 
d="M287 0l69 134h-135l-70 -134h-92l69 134h-50l14 77h75l49 95h-56l14 77h81l61 117h92l-61 -117h137l60 117h92l-60 -117h52l-14 -77h-77l-49 -95h59l-14 -77h-84l-70 -134h-92zM309 306l-50 -95h136l50 95h-136z" />
    <glyph glyph-name="dollar" unicode="$" horiz-adv-x="487" 
d="M458 152q-13 -76 -60 -113.5t-113 -43.5l-9 -50h-90l9 50q-95 11 -133 72l70 52q40 -38 76 -47l27 150q-57 19 -87.5 49.5t-20.5 85.5q24 131 158 148l9 55h90l-10 -56q76 -7 117 -34l-54 -76q-30 16 -78 21l-22 -123q63 -21 97 -52.5t24 -87.5zM217 357q-3 -21 35 -37
l16 94q-42 -12 -51 -57zM298 72q25 8 45.5 31t24.5 49q3 15 -9.5 25.5t-38.5 19.5z" />
    <glyph glyph-name="percent" unicode="%" horiz-adv-x="637" 
d="M199 254q-100 0 -85 85l15 81q7 41 40 63.5t75 22.5t67 -22.5t18 -63.5l-15 -81q-15 -85 -115 -85zM231 433q-20 0 -23 -16l-13 -75q0 -4 -0.5 -7t4 -5.5t13.5 -2.5q21 0 23 15l13 75q0 3 0.5 6.5t-4 6.5t-13.5 3zM85 0l460 500h95l-460 -500h-95zM482 0q-45 0 -69.5 20
t-16.5 65l15 81q7 41 40 63.5t75 22.5t67 -22.5t18 -63.5l-15 -81q-15 -85 -114 -85zM513 179q-20 0 -23 -16l-13 -75q0 -4 -0.5 -7t4 -5.5t13.5 -2.5q21 0 23 15l13 75q0 3 0.5 6.5t-4 6.5t-13.5 3z" />
    <glyph glyph-name="ampersand" unicode="&#x26;" horiz-adv-x="552" 
d="M81 153q13 74 113 115q-15 43 -6 98q13 73 48 106t113 33t101 -32.5t10 -106.5q-9 -51 -45.5 -80t-96.5 -51q5 -7 79 -95q19 35 30 97h90q-18 -105 -65 -162l60 -75h-110l-20 22q-52 -27 -123 -27q-21 0 -37 1t-36 3.5t-33.5 7.5t-29 13t-23.5 19.5t-16 28t-6.5 37.5
t3.5 48zM271 72q40 0 57 9q-60 60 -102 122q-50 -20 -55 -50q-8 -51 15.5 -66t84.5 -15zM278 366q-6 -38 6 -68q38 13 60 28.5t26 39.5q7 34 1.5 44.5t-37.5 10.5t-41 -9.5t-15 -45.5z" />
    <glyph glyph-name="quotesingle" unicode="'" horiz-adv-x="205" 
d="M141 401l8 137h95l-40 -137h-63z" />
    <glyph glyph-name="parenleft" unicode="(" horiz-adv-x="254" 
d="M189 -53h-90q-13 71 -12 157t13 152q11 66 40.5 152t65.5 145h90q-35 -65 -66 -153.5t-41 -147.5q-11 -60 -11.5 -148t11.5 -157z" />
    <glyph glyph-name="parenright" unicode=")" horiz-adv-x="254" 
d="M135 -53h-90q34 64 65.5 154t42.5 151q10 60 10.5 146t-11.5 155h90q15 -72 14 -151t-12 -146q-12 -68 -42.5 -157t-66.5 -152z" />
    <glyph glyph-name="asterisk" unicode="*" horiz-adv-x="396" 
d="M246 538h92l-36 -101l104 34l2 -89l-102 -4l63 -65l-83 -54l-28 86l-58 -86l-63 54l85 65l-100 4l34 89l92 -34z" />
    <glyph glyph-name="plus" unicode="+" horiz-adv-x="488" 
d="M474 238l-13 -77h-144l-27 -150h-90l27 150h-144l13 77h144l27 149h90l-27 -149h144z" />
    <glyph glyph-name="comma" unicode="," horiz-adv-x="201" 
d="M37 -98l28 156h91l-21 -118z" />
    <glyph glyph-name="hyphen" unicode="-" horiz-adv-x="428" 
d="M96 238h318l-13 -77h-318z" />
    <glyph glyph-name="period" unicode="." horiz-adv-x="209" 
d="M62 44q4 21 20.5 35.5t37.5 14.5t33 -14.5t8 -35.5t-20.5 -35t-37.5 -14t-33 14t-8 35z" />
    <glyph glyph-name="slash" unicode="/" horiz-adv-x="405" 
d="M30 0l347 553h95l-347 -553h-95z" />
    <glyph glyph-name="zero" unicode="0" horiz-adv-x="468" 
d="M308 421q-22 0 -36.5 -1.5t-30.5 -7.5t-25 -19.5t-13 -34.5l-36 -202q-9 -52 12.5 -68t66.5 -16q46 0 73 16t36 68l36 202q7 40 -15 51.5t-68 11.5zM233 -5q-95 0 -132.5 39t-22.5 130l34 193q14 78 65.5 113t145.5 35t132.5 -35t24.5 -113l-34 -193q-15 -91 -66 -130
t-147 -39z" />
    <glyph glyph-name="one" unicode="1" horiz-adv-x="316" 
d="M115 429l144 71h90l-88 -500h-90l70 400l-101 -48z" />
    <glyph glyph-name="two" unicode="2" horiz-adv-x="435" 
d="M147 77h251l-13 -77h-340l12 70q9 50 55 96t96 74t92.5 57.5t46.5 49.5l6 37q4 22 -14.5 29.5t-53.5 7.5q-75 0 -82 -37l-5 -29h-90l5 28q21 122 187 122q78 0 116 -29.5t27 -92.5l-6 -36q-6 -36 -48 -75t-90 -67.5t-94 -64t-58 -63.5z" />
    <glyph glyph-name="three" unicode="3" horiz-adv-x="425" 
d="M177 215l14 77h72q69 0 78 58l7 37q4 22 -15 29.5t-54 7.5q-74 0 -81 -37l-5 -29h-90l5 28q21 122 186 122q79 0 117 -29.5t27 -92.5l-7 -36q-11 -62 -56 -93q35 -29 25 -83l-7 -40q-12 -70 -61.5 -104.5t-127.5 -34.5q-85 0 -119.5 33.5t-21.5 105.5l5 28h90l-6 -36
q-5 -28 13.5 -41t51.5 -13q75 0 85 54l8 48q4 22 -13.5 31.5t-47.5 9.5h-72z" />
    <glyph glyph-name="four" unicode="4" horiz-adv-x="420" 
d="M52 213l268 287h93l-51 -287h65l-14 -77h-65l-23 -136h-90l23 136h-220zM153 213h119l28 157z" />
    <glyph glyph-name="five" unicode="5" horiz-adv-x="436" 
d="M74 141h90q-6 -35 12.5 -52t51.5 -17q75 0 85 54l15 89q4 22 -14.5 29.5t-53.5 7.5q-36 0 -58 -10t-27 -42h-90l53 300h321l-15 -84h-231l-18 -102q35 15 92 15q77 0 109.5 -28.5t20.5 -92.5l-13 -74q-12 -70 -61.5 -104.5t-127.5 -34.5q-166 0 -141 146z" />
    <glyph glyph-name="six" unicode="6" horiz-adv-x="420" 
d="M264 316q79 0 117.5 -29t27.5 -92l-11 -61q-12 -70 -61.5 -104.5t-127.5 -34.5q-83 0 -118 36.5t-23 102.5l11 61q4 23 16 45l144 260h96l-105 -187q10 3 34 3zM307 126l12 69q4 22 -15 29.5t-54 7.5q-74 0 -81 -37l-12 -69q-5 -28 13.5 -41t51.5 -13q75 0 85 54z" />
    <glyph glyph-name="seven" unicode="7" horiz-adv-x="372" 
d="M88 416l15 84h317l-15 -84l-233 -416h-96l228 416h-216z" />
    <glyph glyph-name="eight" unicode="8" horiz-adv-x="442" 
d="M116 347l6 36q21 122 188 122q78 0 116.5 -29.5t27.5 -92.5l-6 -36q-11 -62 -60 -93q39 -28 29 -83l-7 -37q-12 -69 -62 -104t-128 -35q-83 0 -118.5 36.5t-23.5 102.5l7 37q9 54 55 82q-36 29 -24 94zM175 171l-8 -45q-5 -27 14 -40.5t52 -13.5q32 0 56.5 13.5
t29.5 40.5l8 45q3 21 -14.5 30t-48.5 10h-6q-77 0 -83 -40zM213 387l-8 -45q-5 -27 14.5 -40.5t52.5 -13.5q75 0 85 54l8 45q3 21 -13.5 28.5t-49.5 8.5h-6q-76 0 -83 -37z" />
    <glyph glyph-name="nine" unicode="9" horiz-adv-x="400" 
d="M223 184q-79 0 -117.5 29t-27.5 92l11 61q12 69 62 104t128 35q83 0 117.5 -36.5t22.5 -102.5l-11 -61q-5 -27 -16 -45l-143 -260h-96l104 187q-10 -3 -34 -3zM179 367l-12 -67q-3 -23 16 -31t53 -8q75 0 81 39l12 67q5 28 -13.5 41t-51.5 13q-75 0 -85 -54z" />
    <glyph glyph-name="colon" unicode=":" horiz-adv-x="209" 
d="M62 44q4 21 20.5 35.5t37.5 14.5t33 -14.5t8 -35.5t-20.5 -35t-37.5 -14t-33 14t-8 35zM113 331q4 21 20.5 35.5t37.5 14.5t33 -14.5t8 -35.5t-21 -35t-38 -14t-32.5 14t-7.5 35z" />
    <glyph glyph-name="semicolon" unicode=";" horiz-adv-x="209" 
d="M113 331q4 21 20.5 35.5t37.5 14.5t33 -14.5t8 -35.5t-21 -35t-38 -14t-32.5 14t-7.5 35zM41 -98l28 156h91l-21 -118z" />
    <glyph glyph-name="less" unicode="&#x3c;" horiz-adv-x="439" 
d="M383 -2l-304 141l20 116l354 141l-16 -95l-271 -104l234 -104z" />
    <glyph glyph-name="equal" unicode="=" horiz-adv-x="429" 
d="M84 164h318l-13 -77h-318zM108 295h318l-14 -77h-318z" />
    <glyph glyph-name="greater" unicode="&#x3e;" horiz-adv-x="439" 
d="M408 139l-354 -141l17 95l270 104l-233 104l16 95l304 -141z" />
    <glyph glyph-name="question" unicode="?" horiz-adv-x="393" 
d="M152 130l16 87q6 36 29 63t47.5 40t46 29t24.5 32q4 20 -12 30t-42 10q-55 0 -104 -22l-19 76q61 30 138 30q79 0 109.5 -30.5t19.5 -93.5q-6 -33 -28.5 -56.5t-47 -35t-46 -30.5t-25.5 -42l-16 -87h-90zM132 44q4 21 20.5 35.5t37.5 14.5t33 -14.5t8 -35.5t-20.5 -35
t-37.5 -14t-33 14t-8 35z" />
    <glyph glyph-name="at" unicode="@" horiz-adv-x="598" 
d="M365 -5q-73 0 -104.5 34.5t-22.5 108.5l14 81q21 121 167 121q60 0 90 -20l6 37q7 40 -20 52t-76 12h-92q-23 0 -39 -2t-35 -8t-30.5 -19.5t-15.5 -34.5l-40 -228q-7 -43 -4 -50t28 -7h14l-12 -72h-35q-30 0 -49 9.5t-27 21.5t-9.5 33t0.5 35t6 38l38 220q27 148 225 148
h92q96 0 140.5 -36t30.5 -112l-62 -357h-90l6 38q-32 -43 -94 -43zM472 109l22 128q-10 19 -73 19q-72 0 -79 -37l-16 -89q-4 -28 11 -43t45 -15q34 0 61 12t29 25z" />
    <glyph glyph-name="A" unicode="A" horiz-adv-x="494" 
d="M398 500l81 -500h-95l-21 139h-186l-69 -139h-93l256 500h127zM321 428l-105 -212h136z" />
    <glyph glyph-name="B" unicode="B" horiz-adv-x="479" 
d="M55 0l88 500h248q64 0 88.5 -36t11.5 -112q-15 -75 -52 -103q29 -29 15 -102q-13 -76 -49.5 -111.5t-101.5 -35.5h-248zM376 416h-158l-23 -128h158q22 0 32 15.5t16 48.5q7 28 2 46t-27 18zM364 145q4 21 4 33.5t-5 22t-18 10.5h-163l-24 -134h158q37 0 48 68z" />
    <glyph glyph-name="C" unicode="C" horiz-adv-x="488" 
d="M193 306l-19 -112q-3 -18 -3.5 -33t2.5 -26.5t7 -20.5t12 -15.5t14.5 -11t17 -7.5t17.5 -4.5t19 -2.5t17.5 -1h16.5q81 0 149 34l15 -74q-89 -37 -188 -37q-29 0 -51 2t-45 7.5t-38.5 15.5t-30 25t-19.5 37t-7.5 52t6.5 68l17 96q9 52 27.5 90.5t41 60.5t55 35t63 17
t71.5 4q99 0 175 -37l-39 -75q-62 28 -140 28q-26 0 -45.5 -3t-46.5 -13t-45.5 -35t-25.5 -64z" />
    <glyph glyph-name="D" unicode="D" horiz-adv-x="492" 
d="M55 0l88 500h167q33 0 58 -3t51 -11t40.5 -22t27.5 -37t12 -56t-6 -78l-15 -87q-12 -65 -35.5 -107.5t-59.5 -63t-73 -28t-88 -7.5h-167zM283 416h-65l-60 -339h65q22 0 35.5 1t37.5 7t39.5 18t30.5 36.5t21 59.5l16 94q3 18 3.5 33.5t-2.5 26.5t-7 20.5t-12 16t-14.5 11
t-17 7.5t-17.5 4.5t-18.5 2.5t-17.5 1h-17z" />
    <glyph glyph-name="E" unicode="E" horiz-adv-x="440" 
d="M55 0l88 500h340l-15 -84h-250l-22 -123h250l-13 -77h-250l-25 -139h250l-13 -77h-340z" />
    <glyph glyph-name="F" unicode="F" horiz-adv-x="417" 
d="M55 0l88 500h337l-15 -84h-247l-19 -108h218l-14 -77h-218l-40 -231h-90z" />
    <glyph glyph-name="G" unicode="G" horiz-adv-x="497" 
d="M355 421q-21 0 -35 -1t-37.5 -7.5t-39 -18.5t-30.5 -36.5t-21 -59.5l-18 -104q-3 -18 -3.5 -33t2.5 -26.5t7 -20.5t12 -15.5t14 -11t16.5 -7.5t18 -4.5t19 -2.5t17 -1h16.5q46 0 78 6l21 115h-90l13 77h180l-42 -240q-84 -35 -184 -35q-29 0 -51 2t-45 7.5t-38 15.5
t-29.5 25t-19.5 37t-7.5 52t6.5 68l17 96q12 65 35.5 108t60 63.5t73 28t88.5 7.5q99 0 175 -37l-39 -75q-62 28 -140 28z" />
    <glyph glyph-name="H" unicode="H" horiz-adv-x="500" 
d="M355 0l38 216h-210l-38 -216h-90l88 500h90l-37 -207h210l37 207h90l-88 -500h-90z" />
    <glyph glyph-name="I" unicode="I" horiz-adv-x="200" 
d="M55 0l88 500h90l-88 -500h-90z" />
    <glyph glyph-name="J" unicode="J" horiz-adv-x="377" 
d="M264 157l61 343h90l-60 -336q-18 -103 -62.5 -136t-129.5 -33q-82 0 -144 30l36 72q58 -25 112 -25q15 0 23.5 0.5t22.5 5t22 13t16.5 25.5t12.5 41z" />
    <glyph glyph-name="K" unicode="K" horiz-adv-x="527" 
d="M383 0l-77 291l-126 -88l-35 -203h-90l88 500h90l-33 -188l262 188h132l-207 -152l93 -348h-97z" />
    <glyph glyph-name="L" unicode="L" horiz-adv-x="411" 
d="M55 0l88 500h90l-75 -423h236l-13 -77h-326z" />
    <glyph glyph-name="M" unicode="M" horiz-adv-x="614" 
d="M377 0h-141l-18 416l-73 -416h-90l88 500h165l11 -428l164 428h164l-88 -500h-90l73 416z" />
    <glyph glyph-name="N" unicode="N" horiz-adv-x="516" 
d="M316 0l-98 416l-73 -416h-90l88 500h151l89 -428l76 428h90l-88 -500h-145z" />
    <glyph glyph-name="O" unicode="O" horiz-adv-x="497" 
d="M321 416q-24 0 -39.5 -1.5t-34.5 -7t-30 -19.5t-15 -35l-35 -197q-5 -27 1 -45t22 -26t31.5 -10.5t38.5 -2.5t40 2.5t36 10.5t31 26t17 45l35 197q5 28 -11 43t-35 17.5t-52 2.5zM247 -5q-97 0 -140.5 40t-28.5 129l34 193q27 148 225 148q96 0 141 -36t31 -112l-34 -193
q-29 -169 -228 -169z" />
    <glyph glyph-name="P" unicode="P" horiz-adv-x="449" 
d="M55 0l88 500h232q63 0 87.5 -42.5t10.5 -120.5q-14 -77 -53.5 -119.5t-102.5 -42.5h-142l-30 -175h-90zM218 416l-29 -164h135q43 0 59 85q8 29 2.5 54t-32.5 25h-135z" />
    <glyph glyph-name="Q" unicode="Q" horiz-adv-x="497" 
d="M247 -5q-97 0 -140.5 40t-28.5 129l34 193q27 148 225 148q96 0 141 -36t31 -112l-34 -193q-17 -102 -95 -142q34 -12 68 -12l-13 -75q-29 0 -79.5 16.5t-68.5 45.5q-26 -2 -40 -2zM321 416q-24 0 -39.5 -1.5t-34.5 -7t-30 -19.5t-15 -35l-35 -197q-5 -27 1 -45t22 -26
t31.5 -10.5t38.5 -2.5t40 2.5t36 10.5t31 26t17 45l35 197q5 28 -11 43t-35 17.5t-52 2.5z" />
    <glyph glyph-name="R" unicode="R" horiz-adv-x="463" 
d="M55 0l88 500h233q63 0 87 -42.5t10 -120.5q-20 -115 -94 -150l64 -187h-94l-60 175h-114l-30 -175h-90zM218 416l-29 -164h136q42 0 58 85q8 29 2.5 54t-31.5 25h-136z" />
    <glyph glyph-name="S" unicode="S" horiz-adv-x="461" 
d="M206 355q-3 -18 23 -31t65 -24.5t77 -27t61 -47t15 -75.5q-28 -155 -206 -155q-143 0 -189 74l70 52q48 -49 131 -49q34 0 66 21.5t38 56.5q3 17 -15.5 30t-48 20t-63 18.5t-62 26t-44 43t-8.5 67.5q27 150 195 150q113 0 169 -37l-54 -76q-45 24 -131 24q-78 0 -89 -61z
" />
    <glyph glyph-name="T" unicode="T" horiz-adv-x="435" 
d="M495 500l-15 -84h-145l-73 -416h-90l73 416h-144l15 84h379z" />
    <glyph glyph-name="U" unicode="U" horiz-adv-x="497" 
d="M445 500h90l-60 -336q-29 -169 -228 -169q-97 0 -140.5 40t-28.5 129l60 336h90l-61 -343q-9 -51 18 -68t75 -17q49 0 82 17t42 68z" />
    <glyph glyph-name="V" unicode="V" horiz-adv-x="494" 
d="M567 500l-257 -500h-127l-80 500h93l62 -428l214 428h95z" />
    <glyph glyph-name="W" unicode="W" horiz-adv-x="593" 
d="M573 500h93l-175 -500h-139l-8 271l-100 -271h-141v500h92l-8 -428l106 284h133l4 -284z" />
    <glyph glyph-name="X" unicode="X" horiz-adv-x="501" 
d="M574 500l-227 -249l139 -251h-104l-101 180l-163 -180h-103l226 251l-138 249h109l95 -175l157 175h110z" />
    <glyph glyph-name="Y" unicode="Y" horiz-adv-x="504" 
d="M246 224l-143 276h108l95 -189l163 189h108l-241 -275l-39 -225h-90z" />
    <glyph glyph-name="Z" unicode="Z" horiz-adv-x="451" 
d="M118 416l15 84h361l-13 -70l-310 -353h248l-13 -77h-361l12 70l307 346h-246z" />
    <glyph glyph-name="bracketleft" unicode="[" horiz-adv-x="242" 
d="M270 476h-42l-79 -452h42l-14 -77h-132l107 606h132z" />
    <glyph glyph-name="backslash" unicode="\" horiz-adv-x="405" 
d="M222 553l153 -553h-95l-153 553h95z" />
    <glyph glyph-name="bracketright" unicode="]" horiz-adv-x="242" 
d="M180 476h-42l14 77h132l-107 -606h-132l14 77h42z" />
    <glyph glyph-name="asciicircum" unicode="^" horiz-adv-x="412" 
d="M347 500l49 -278h-94l-23 194l-90 -194h-95l148 278h105z" />
    <glyph glyph-name="underscore" unicode="_" horiz-adv-x="378" 
d="M-8 -50h377l-14 -77h-377z" />
    <glyph glyph-name="grave" unicode="`" horiz-adv-x="256" 
d="M205 400l-54 138h97l23 -138h-66z" />
    <glyph glyph-name="a" unicode="a" horiz-adv-x="431" 
d="M325 226l11 59q3 22 -14 29t-50 7q-34 0 -54 -7t-23 -29l-5 -25h-90l5 25q21 120 182 120q77 0 113.5 -29t25.5 -91l-50 -285h-90l7 42q-29 -47 -94 -47q-53 0 -85 11.5t-41 30.5t-11 42t5 47q11 62 55.5 87.5t119.5 25.5q52 0 83 -13zM213 72q34 0 62 14t31 29l5 28
q2 12 -21.5 15.5t-60.5 3.5q-66 0 -72 -34q-4 -19 -3.5 -31.5t14 -18.5t45.5 -6z" />
    <glyph glyph-name="b" unicode="b" horiz-adv-x="428" 
d="M238 530l-27 -154q29 29 92 29q71 0 106 -29t24 -91l-27 -150q-25 -140 -175 -140q-59 0 -81 39l-5 -34h-90l93 530h90zM278 321q-56 0 -81 -25l-33 -188q-2 -13 20 -24.5t56 -11.5q66 0 75 56l28 157q3 22 -14 29t-51 7z" />
    <glyph glyph-name="c" unicode="c" horiz-adv-x="395" 
d="M73 162l13 76q9 52 28.5 86.5t48.5 51.5t59 23t71 6q72 0 143 -27l-36 -79q-58 22 -113 22q-21 0 -33 -1.5t-30.5 -8.5t-30.5 -25.5t-17 -47.5l-14 -83q-5 -29 0 -47.5t21 -25.5t27.5 -8.5t32.5 -1.5q59 0 118 28l12 -75q-70 -30 -152 -30q-23 0 -40.5 1.5t-36 6
t-31 12.5t-24 20.5t-15.5 30t-6 41.5t5 55z" />
    <glyph glyph-name="d" unicode="d" horiz-adv-x="428" 
d="M349 376l27 154h90l-93 -530h-90l5 34q-34 -39 -93 -39q-152 0 -127 140l27 150q21 120 172 120q63 0 82 -29zM262 321q-34 0 -54 -7t-23 -29l-28 -157q-9 -56 55 -56q34 0 61 11.5t29 24.5l33 188q-17 25 -73 25z" />
    <glyph glyph-name="e" unicode="e" horiz-adv-x="421" 
d="M371 99l12 -74q-71 -30 -157 -30q-27 0 -47.5 2.5t-41.5 9t-34 18t-24 30t-10.5 45t4.5 62.5l19 106q12 69 61.5 103t127.5 34q82 0 117 -36t23 -101l-17 -96h-239l-3 -17q-5 -29 1 -47.5t23 -25.5t29 -8.5t33 -1.5q68 0 123 27zM182 268l-3 -13h149l3 13q4 27 -15 40
t-50 13q-33 0 -56.5 -13t-27.5 -40z" />
    <glyph glyph-name="f" unicode="f" horiz-adv-x="285" 
d="M298 475q-18 0 -28.5 -11t-14 -22.5t-6.5 -32.5l-2 -9h100l-14 -77h-100l-56 -323h-90l56 323h-61l14 77h61l2 9q13 76 41 108.5t92 32.5q47 0 81 -20l-38 -64q-21 9 -37 9z" />
    <glyph glyph-name="g" unicode="g" horiz-adv-x="428" 
d="M302 108l33 188q-17 25 -73 25q-34 0 -54 -7t-23 -29l-28 -157q-9 -56 55 -56q34 0 61 11.5t29 24.5zM280 -16l6 36q-34 -25 -91 -25q-152 0 -127 140l27 150q21 120 172 120q66 0 80 -39l6 34h90l-73 -416q-16 -92 -64.5 -130.5t-128.5 -38.5q-83 0 -145 30l37 73
q50 -26 111 -26q18 0 30.5 3t27.5 11.5t26 28t16 49.5z" />
    <glyph glyph-name="h" unicode="h" horiz-adv-x="428" 
d="M383 0h-90l46 263q10 58 -56 58q-36 0 -61.5 -15t-30.5 -43l-46 -263h-90l94 538h90l-31 -179q45 46 101 46q145 0 120 -143z" />
    <glyph glyph-name="i" unicode="i" horiz-adv-x="200" 
d="M55 0l70 400h90l-70 -400h-90zM141 518q4 21 20.5 35.5t37.5 14.5t33 -14.5t8 -35.5t-21 -35t-38 -14t-32.5 14t-7.5 35z" />
    <glyph glyph-name="j" unicode="j" horiz-adv-x="200" 
d="M141 518q4 21 20.5 35.5t37.5 14.5t33 -14.5t8 -35.5t-21 -35t-38 -14t-32.5 14t-7.5 35zM215 400h-90l-76 -432q-9 -48 -17.5 -62t-33.5 -14q-37 0 -59 17l-42 -63q27 -31 88 -31q64 0 100.5 28.5t48.5 94.5z" />
    <glyph glyph-name="k" unicode="k" horiz-adv-x="440" 
d="M319 0l-83 208l-63 -49l-28 -159h-90l94 538h90l-47 -266l175 128h123l-179 -135l101 -265h-93z" />
    <glyph glyph-name="l" unicode="l" horiz-adv-x="200" 
d="M55 0l94 538h90l-94 -538h-90z" />
    <glyph glyph-name="m" unicode="m" horiz-adv-x="582" 
d="M350 0h-90l46 264q5 30 -2.5 43.5t-34.5 13.5q-32 0 -53 -17t-25 -40l-46 -264h-90l70 400h90l-7 -41q31 46 85 46q60 0 78 -52q13 23 39 36t38.5 14.5t21.5 1.5q78 0 101.5 -36t11.5 -105l-46 -264h-90l46 264q6 30 -2.5 43.5t-35.5 13.5q-35 0 -59 -8q5 -21 0 -49z" />
    <glyph glyph-name="n" unicode="n" horiz-adv-x="428" 
d="M383 0h-90l46 263q10 58 -56 58q-36 0 -61.5 -15t-30.5 -43l-46 -263h-90l70 400h90l-7 -41q45 46 101 46q145 0 120 -143z" />
    <glyph glyph-name="o" unicode="o" horiz-adv-x="418" 
d="M185 285l-28 -160q-5 -27 13 -40t51 -13q31 0 55 13t29 40l28 160q3 22 -15.5 29t-52.5 7q-74 0 -80 -36zM68 132l27 153q21 120 185 120q77 0 115.5 -29t27.5 -91l-27 -153q-12 -69 -61.5 -103t-126.5 -34q-82 0 -117 36t-23 101z" />
    <glyph glyph-name="p" unicode="p" horiz-adv-x="428" 
d="M148 20l-36 -204h-90l103 584h90l-6 -34q28 39 94 39q71 0 106 -29t24 -91l-27 -150q-25 -140 -175 -140q-57 0 -83 25zM197 296l-33 -188q-2 -13 20 -24.5t56 -11.5q66 0 75 56l28 157q3 22 -14 29t-51 7q-56 0 -81 -25z" />
    <glyph glyph-name="q" unicode="q" horiz-adv-x="428" 
d="M250 -184l36 204q-34 -25 -91 -25q-152 0 -127 140l27 150q21 120 172 120q66 0 80 -39l6 34h90l-103 -584h-90zM302 108l33 188q-17 25 -73 25q-34 0 -54 -7t-23 -29l-28 -157q-9 -56 55 -56q34 0 61 11.5t29 24.5z" />
    <glyph glyph-name="r" unicode="r" horiz-adv-x="252" 
d="M316 405l-15 -84q-43 0 -74 -15t-36 -42l-46 -264h-90l70 400h90l-7 -39q37 44 108 44z" />
    <glyph glyph-name="s" unicode="s" horiz-adv-x="356" 
d="M172 283q-3 -18 27.5 -31t68 -22.5t65 -37t19.5 -71.5q-23 -126 -168 -126q-112 0 -149 62l56 50q39 -35 105 -35q57 0 66 49q2 14 -17.5 23.5t-48.5 18t-57.5 21t-45.5 38t-11 61.5q23 122 162 122q84 0 133 -30l-45 -74q-41 20 -103 20q-50 0 -57 -38z" />
    <glyph glyph-name="t" unicode="t" horiz-adv-x="270" 
d="M66 323l14 77h65l21 121h90l-21 -121h83l-14 -77h-83l-32 -186q-6 -22 -4 -41t21 -19h55l-13 -77h-70q-30 0 -49 9.5t-27 21.5t-9.5 33t0.5 35t6 38l32 186h-65z" />
    <glyph glyph-name="u" unicode="u" horiz-adv-x="436" 
d="M125 400h90l-48 -271q-9 -57 55 -57q36 0 61.5 15.5t29.5 41.5l48 271h90l-70 -400h-90l7 42q-34 -47 -103 -47q-142 0 -117 141z" />
    <glyph glyph-name="v" unicode="v" horiz-adv-x="407" 
d="M467 400l-204 -400h-120l-63 400h93l42 -328l160 328h92z" />
    <glyph glyph-name="w" unicode="w" horiz-adv-x="539" 
d="M492 400h89l-136 -400h-126l-2 269l-93 -269h-130l4 400h89l-15 -328l95 279h127l-2 -279z" />
    <glyph glyph-name="x" unicode="x" horiz-adv-x="438" 
d="M483 400l-182 -200l112 -200h-102l-70 129l-114 -129h-102l179 200l-109 200h102l69 -129l115 129h102z" />
    <glyph glyph-name="y" unicode="y" horiz-adv-x="419" 
d="M474 400l-318 -585h-92l83 161l-62 424h93l35 -328l168 328h93z" />
    <glyph glyph-name="z" unicode="z" horiz-adv-x="370" 
d="M91 321l14 79h300l-14 -79l-230 -244h187l-13 -77h-300l13 77l231 244h-188z" />
    <glyph glyph-name="braceleft" unicode="{" horiz-adv-x="297" 
d="M173 353l22 129q13 71 68 71h76l-14 -77h-25q-16 0 -19 -18l-18 -105q-14 -73 -61 -104q37 -29 24 -103l-18 -104q-3 -18 13 -18h25l-14 -77h-76q-55 0 -42 71l22 128q9 24 1 44.5t-45 20.5l13 77q20 0 33 5t20 16t9.5 19.5t5.5 24.5z" />
    <glyph glyph-name="bar" unicode="|" horiz-adv-x="200" 
d="M45 -53l107 606h90l-107 -606h-90z" />
    <glyph glyph-name="braceright" unicode="}" horiz-adv-x="297" 
d="M270 482l-22 -129q-9 -24 -1 -44.5t45 -20.5l-13 -77q-20 0 -33 -5t-20 -16t-9.5 -19.5t-5.5 -24.5l-22 -128q-13 -71 -68 -71h-76l14 77h25q16 0 19 18l18 104q13 72 60 103q-37 31 -23 104l18 105q3 18 -13 18h-25l14 77h76q55 0 42 -71z" />
    <glyph glyph-name="asciitilde" unicode="~" horiz-adv-x="493" 
d="M203 243q-19 0 -70 -34l-31 61q68 50 115 50q35 0 86 -25t75 -25q22 0 70 34l32 -61q-66 -50 -115 -50q-31 0 -80 25t-82 25z" />
    <glyph glyph-name="uni00A0" unicode="&#xa0;" horiz-adv-x="452" 
 />
    <glyph glyph-name="onequarter" unicode="&#xbc;" horiz-adv-x="667" 
d="M162 0l328 500h84l-327 -500h-85zM126 453l89 47h73l-56 -315h-73l41 234l-58 -29zM392 132l168 183h75l-32 -182h40l-11 -61h-40l-12 -72h-73l12 72h-138zM469 133h61l14 82z" />
    <glyph glyph-name="onehalf" unicode="&#xbd;" horiz-adv-x="693" 
d="M162 0l328 500h84l-327 -500h-85zM126 453l89 47h73l-56 -315h-73l41 234l-58 -29zM511 61h145l-10 -61h-219l8 51q5 30 33 55.5t58 39t56 31t29 34.5l5 31q2 10 -8 13.5t-29 3.5q-39 0 -42 -17l-5 -31h-74l6 34q12 75 126 75q112 0 100 -75l-6 -34q-6 -31 -37 -57.5
t-75.5 -52t-60.5 -40.5z" />
    <glyph glyph-name="threequarters" unicode="&#xbe;" horiz-adv-x="712" 
d="M207 0l328 500h84l-327 -500h-85zM437 132l168 183h75l-32 -182h40l-11 -61h-40l-12 -72h-73l12 72h-138zM514 133h61l14 82zM184 315l11 61h35q36 0 40 23l5 29q1 10 -8.5 13t-28.5 3q-40 0 -42 -16l-5 -31h-74l4 23q7 41 42.5 63t85.5 22t77.5 -22t20.5 -63l-3 -17
q-7 -36 -38 -56q25 -18 19 -50l-3 -16q-8 -45 -44.5 -70.5t-85.5 -25.5q-52 0 -78 27t-18 69l4 21h74l-5 -29q-3 -14 7 -20.5t27 -6.5q40 0 45 27l5 29q1 9 -7 11t-27 2h-35z" />
    <glyph glyph-name="questiondown" unicode="&#xbf;" horiz-adv-x="393" 
d="M310 270l-15 -87q-6 -36 -29.5 -63t-48 -40t-45.5 -29t-24 -32q-4 -20 12 -30t42 -10q55 0 104 22l18 -76q-61 -30 -137 -30q-79 0 -109.5 30.5t-19.5 93.5q6 33 28.5 56.5t46.5 35t46 30.5t26 42l15 87h90zM330 356q-4 -21 -20.5 -35.5t-37.5 -14.5t-33 14.5t-8 35.5
t21 35t38 14t32.5 -14t7.5 -35z" />
    <glyph glyph-name="nptp3.001march2007p" unicode="&#xdb;" 
 />
    <glyph glyph-name="nptp3.001march2007p" unicode="&#xe3b;" 
 />
    <glyph glyph-name="nptp3.001march2007u" unicode="&#xdc;" 
 />
    <glyph glyph-name="nptp3.001march2007u" unicode="&#xe3c;" 
 />
    <glyph glyph-name="nptp3.001march2007c" unicode="&#xdd;" 
 />
    <glyph glyph-name="nptp3.001march2007c" unicode="&#xe3d;" 
 />
    <glyph glyph-name="Naipol" unicode="&#xff;" horiz-adv-x="948" 
 />
    <glyph glyph-name="kokaithai" unicode="&#xe01;" horiz-adv-x="409" 
d="M185 292l-51 -292h-90l57 325q68 80 170 80q45 0 75.5 -13.5t43 -30.5t17.5 -39.5t4 -33t-2 -18.5l-47 -270h-90l47 270q3 18 -4.5 29.5t-22 15.5t-22 5t-14.5 1q-24 0 -41.5 -7.5t-23.5 -14.5z" />
    <glyph glyph-name="khokhaithai" unicode="&#xe02;" horiz-adv-x="375" 
d="M199 72q36 0 48 13t17 43l48 272h90l-47 -264q-12 -71 -48.5 -106t-120.5 -35q-39 0 -65.5 9t-39 22t-17 34.5t-3 38t5.5 41.5l5 29q5 26 21 49t31.5 42.5t18.5 36.5q2 10 2.5 14t0 7.5t-1.5 4t-4 0.5h-46l14 77h46h41t25.5 -4.5t16 -8t4.5 -18.5t-0.5 -28t-7.5 -44
q-6 -35 -36 -68.5t-35 -59.5l-6 -36q-2 -17 -2.5 -30.5t10.5 -22t35 -8.5z" />
    <glyph glyph-name="khokhuatthai" unicode="&#xe03;" horiz-adv-x="385" 
d="M243 297q-6 -35 -36 -68.5t-35 -59.5l-6 -36q-2 -17 -2.5 -30.5t10.5 -22t35 -8.5q36 0 48 13t17 43l48 272h90l-47 -264q-12 -71 -48.5 -106t-120.5 -35q-39 0 -65.5 9t-39 22t-17 34.5t-3 38t5.5 41.5l5 29q5 26 21 49t31.5 42.5t18.5 36.5q1 6 1 12l-31 -21l-57 60
l60 52l19 -19l28 19q61 0 72.5 -24t-2.5 -79z" />
    <glyph glyph-name="khokhwaithai" unicode="&#xe04;" horiz-adv-x="416" 
d="M276 405q84 0 118.5 -30.5t21.5 -102.5l-47 -272h-90l50 285q3 22 -15.5 29t-52.5 7q-75 0 -81 -36l-12 -66q18 10 66 10h40l-14 -77h-40q-56 0 -65 -10l-25 -142h-90l47 272q13 72 58.5 102.5t130.5 30.5z" />
    <glyph glyph-name="khokhonthai" unicode="&#xe05;" horiz-adv-x="418" 
d="M181 291l-13 -72q18 10 66 10h40l-14 -77h-40q-56 0 -65 -10l-25 -142h-90l48 275q20 110 129 130l55 -28l68 28q98 -20 79 -130l-48 -275h-90l51 292q4 21 -10 29l-64 -23l-56 23q-17 -7 -21 -30z" />
    <glyph glyph-name="khorakhangthai" unicode="&#xe06;" horiz-adv-x="420" 
d="M48 0l29 169q5 26 21 49t31.5 42.5t18.5 36.5q1 6 1 12l-31 -21l-57 60l60 52l19 -19l28 19q61 0 72.5 -24t-2.5 -79q-6 -35 -36 -68.5t-35 -59.5l-7 -40q-4 -27 15 -42t55 -15q66 0 75 57l48 271h90l-47 -264q-25 -141 -165 -141q-71 0 -86 47l-7 -42h-90z" />
    <glyph glyph-name="ngonguthai" unicode="&#xe07;" horiz-adv-x="320" 
d="M204 120l35 203h-49l14 77h139l-53 -299q-9 -50 -55.5 -78t-110.5 -28q-40 0 -70 12.5t-42 33.5l53 59q27 -28 72 -28q57 0 67 48z" />
    <glyph glyph-name="chochanthai" unicode="&#xe08;" horiz-adv-x="383" 
d="M273 114l30 171q3 22 -14 29t-50 7q-34 0 -54 -7t-23 -29l-6 -33h-90l6 33q21 120 182 120q77 0 113.5 -29t25.5 -91l-29 -164q-9 -53 -46 -87t-87 -34h-105l-1 126h-42l13 77h121l-2 -126h28q19 1 30 37z" />
    <glyph glyph-name="chochingthai" unicode="&#xe09;" horiz-adv-x="405" 
d="M71 208h116l-14 -79q-8 -29 -1 -43t41 -14q68 0 77 57l28 156q3 22 -14 29t-51 7q-70 0 -76 -36l-6 -33h-90l6 33q21 120 181 120q77 0 114 -29t26 -91l-50 -285h-90l7 42q-31 -47 -100 -47q-71 0 -87.5 32t-3.5 104h-26z" />
    <glyph glyph-name="chochangthai" unicode="&#xe0a;" horiz-adv-x="385" 
d="M259 259l14 77h13q12 0 19.5 9.5t10 20.5t6.5 34h90q-5 -26 -8.5 -39.5t-16.5 -33t-34 -31.5q38 -14 28 -73l-16 -87q-12 -70 -51 -105.5t-123 -35.5q-39 0 -66 9t-40.5 22.5t-18.5 34t-4 38t5 41.5l5 29q5 26 21 49t31.5 42.5t18.5 36.5q2 10 2.5 14t0 7.5t-1.5 4
t-4 0.5h-46l14 77h46h41t25.5 -4.5t16 -8t4.5 -18.5t-0.5 -28t-7.5 -44q-6 -35 -36 -68.5t-35 -59.5l-6 -36q-5 -29 4 -45t44 -16q36 0 50.5 14t19.5 42l17 95q5 17 1 26.5t-23 9.5h-10z" />
    <glyph glyph-name="sosothai" unicode="&#xe0b;" horiz-adv-x="385" 
d="M67 140l5 29q5 26 21 49t31.5 42.5t18.5 36.5q1 6 1 12l-31 -21l-57 60l60 52l19 -19l28 19q61 0 72.5 -24t-2.5 -79q-6 -35 -36 -68.5t-35 -59.5l-6 -36q-5 -29 4 -45t44 -16q36 0 50.5 14t19.5 42l17 95q5 17 1 26.5t-23 9.5h-10l14 77h13q12 0 19.5 9.5t10 20.5
t6.5 34h90q-5 -26 -8.5 -39.5t-16.5 -33t-34 -31.5q38 -14 28 -73l-16 -87q-12 -70 -51 -105.5t-123 -35.5q-39 0 -66 9t-40.5 22.5t-18.5 34t-4 38t5 41.5z" />
    <glyph glyph-name="chochoethai" unicode="&#xe0c;" horiz-adv-x="615" 
d="M409 270l-25 -141q-10 -57 54 -57q53 0 62 57l48 271h90l-47 -264q-12 -66 -47 -103.5t-93 -37.5q-65 0 -82 47l-7 -42h-90l47 270q3 18 -4.5 29.5t-22 15.5t-22 5t-14.5 1q-24 0 -41.5 -7.5t-23.5 -14.5l-6 -7l-39 -220h42l-12 -72h-132l57 325q68 80 170 80
q45 0 75.5 -13.5t43 -30.5t17.5 -39.5t4 -33t-2 -18.5z" />
    <glyph glyph-name="yoyingthai" unicode="&#xe0d;" horiz-adv-x="615" 
d="M394 -125q-76 0 -108 12l30 74q19 -9 92 -9q62 0 70 51l5 30q-20 -38 -84 -38q-129 0 -104 140l24 135q3 18 -4.5 29.5t-22 15.5t-22 5t-14.5 1q-24 0 -41.5 -7.5t-23.5 -14.5l-6 -7l-39 -220h42l-12 -72h-132l57 325q68 80 170 80q45 0 75.5 -13.5t43 -30.5t17.5 -39.5
t4 -33t-2 -18.5l-25 -141q-5 -29 5 -43t38 -14q63 0 73 57l48 271h90l-68 -385q-25 -140 -176 -140z" />
    <glyph glyph-name="dochadathai" unicode="&#xe0e;" horiz-adv-x="420" 
d="M420 270l-60 -340q-22 -126 -175 -126h-169l14 77h170q6 0 13 1t20.5 5t24 16t13.5 30l59 337q3 18 -4.5 29.5t-22 15.5t-22 5t-14.5 1q-24 0 -41.5 -7.5t-23.5 -14.5l-6 -7l-51 -292h-130l12 72h40l45 253q68 80 170 80q45 0 75.5 -13.5t43 -30.5t17.5 -39.5t4 -33
t-2 -18.5z" />
    <glyph glyph-name="topatakthai" unicode="&#xe0f;" horiz-adv-x="420" 
d="M267 -89l63 359q3 18 -4.5 29.5t-22 15.5t-22 5t-14.5 1q-24 0 -41.5 -7.5t-23.5 -14.5l-6 -7l-51 -292h-130l12 72h40l45 253q68 80 170 80q45 0 75.5 -13.5t43 -30.5t17.5 -39.5t4 -33t-2 -18.5l-61 -345q-9 -56 -40.5 -84t-86.5 -38l-51 28l-58 -27h-107l14 77h101
l63 25l52 -24q17 8 21 29z" />
    <glyph glyph-name="thothanthai" unicode="&#xe10;" horiz-adv-x="383" 
d="M247 -24h91l-4 -24q-9 -51 -38.5 -71t-83.5 -20h-166l14 77h166q15 0 17 14zM273 114l30 171q3 22 -14 29t-50 7q-34 0 -54 -7t-23 -29l-6 -33h-90l6 33q21 120 182 120q12 0 18 -1l126 52l13 -67l-42 -15q34 -31 24 -89l-29 -164q-9 -53 -46 -87t-87 -34h-105l-1 126
h-42l13 77h121l-2 -126h28q19 1 30 37z" />
    <glyph glyph-name="thonangmonthothai" unicode="&#xe11;" horiz-adv-x="430" 
d="M226 361q30 44 96 44q78 0 99 -35t8 -106l-46 -264h-90l46 264q5 30 -3 43.5t-35 13.5q-41 0 -77 -42t-50 -116l-28 -163h-90l28 163q13 73 51 127q2 12 2 19l-31 -21l-57 60l60 52l19 -19l28 19q26 0 41.5 -3.5t21.5 -10.5t7 -11.5t0 -13.5z" />
    <glyph glyph-name="thophuthaothai" unicode="&#xe12;" horiz-adv-x="624" 
d="M419 275l-26 -146q-9 -57 54 -57q53 0 62 57l48 271h90l-47 -264q-12 -66 -47 -103.5t-93 -37.5q-65 0 -82 47l-7 -42h-90l51 292q4 21 -10 29l-64 -23l-56 23q-17 -7 -21 -30l-28 -157q-3 -15 -3.5 -22t1 -17t8 -14t18.5 -4h30l-13 -77h-41q-52 0 -75.5 22.5t-20.5 53
t7 61.5l24 138q20 110 129 130l55 -28l68 28q98 -20 79 -130z" />
    <glyph glyph-name="nonenthai" unicode="&#xe13;" horiz-adv-x="615" 
d="M295 136l24 134q3 18 -4.5 29.5t-22 15.5t-22 5t-14.5 1q-24 0 -41.5 -7.5t-23.5 -14.5l-6 -7l-39 -220h42l-12 -72h-132l57 325q68 80 170 80q45 0 75.5 -13.5t43 -30.5t17.5 -39.5t4 -33t-2 -18.5l-25 -141q-5 -29 4.5 -43t37.5 -14q64 0 74 57l48 271h90l-70 -400h-90
l7 42q-33 -47 -98 -47q-58 0 -81 37.5t-11 103.5z" />
    <glyph glyph-name="dodekthai" unicode="&#xe14;" horiz-adv-x="416" 
d="M64 137l23 135q13 72 58.5 102.5t130.5 30.5q84 0 118.5 -30.5t21.5 -102.5l-47 -272h-90l50 285q3 22 -15.5 29t-52.5 7q-75 0 -81 -36l-27 -151q-3 -15 -3.5 -22t1 -17t8 -14t18.5 -4h30l-13 -77h-41q-52 0 -75.5 22.5t-20.5 53t7 61.5z" />
    <glyph glyph-name="totaothai" unicode="&#xe15;" horiz-adv-x="418" 
d="M272 377l68 28q98 -20 79 -130l-48 -275h-90l51 292q4 21 -10 29l-64 -23l-56 23q-17 -7 -21 -30l-28 -157q-3 -15 -3.5 -22t1 -17t8 -14t18.5 -4h30l-13 -77h-41q-52 0 -75.5 22.5t-20.5 53t7 61.5l24 138q20 110 129 130z" />
    <glyph glyph-name="thothungthai" unicode="&#xe16;" horiz-adv-x="409" 
d="M146 72h42l-12 -72h-132l57 325q68 80 170 80q45 0 75.5 -13.5t43 -30.5t17.5 -39.5t4 -33t-2 -18.5l-47 -270h-90l47 270q3 18 -4.5 29.5t-22 15.5t-22 5t-14.5 1q-24 0 -41.5 -7.5t-23.5 -14.5l-6 -7z" />
    <glyph glyph-name="thothahanthai" unicode="&#xe17;" horiz-adv-x="419" 
d="M372 0h-90l46 264q10 57 -55 57q-36 0 -60.5 -15t-29.5 -42l-46 -264h-90l70 400h90l-8 -48q34 53 103 53q141 0 116 -141z" />
    <glyph glyph-name="thothongthai" unicode="&#xe18;" horiz-adv-x="354" 
d="M241 405q94 0 144 -30l-45 -74q-43 20 -114 20q-49 0 -54 -31q-3 -13 28 -24t68.5 -19.5t65.5 -32.5t21 -61l-8 -47q-20 -111 -161 -111q-113 0 -148 56l19 105h90l-13 -76q26 -8 64 -8q54 0 58 27l9 53q1 5 -9.5 9.5t-28 8.5t-39 9.5t-42 15t-36.5 21.5t-24 31t-4 43
q10 60 48.5 87.5t110.5 27.5z" />
    <glyph glyph-name="nonuthai" unicode="&#xe19;" horiz-adv-x="412" 
d="M110 400h90l-48 -271q-9 -57 55 -57q36 0 61 15t29 42l48 271h90l-70 -400h-90l7 42q-31 -47 -102 -47q-142 0 -117 141z" />
    <glyph glyph-name="bobaimaithai" unicode="&#xe1a;" horiz-adv-x="405" 
d="M338 400h90l-47 -265q-4 -21 -7.5 -34.5t-16 -36t-30.5 -35.5t-52.5 -23.5t-79.5 -10.5t-75.5 10.5t-44 23.5t-18.5 35t-4 36t5 35l47 265h90l-48 -272q-4 -26 9 -41t52 -15q35 0 55.5 11t26.5 45z" />
    <glyph glyph-name="poplathai" unicode="&#xe1b;" horiz-adv-x="405" 
d="M361 530h90l-70 -395q-4 -21 -7.5 -34.5t-16 -36t-30.5 -35.5t-52.5 -23.5t-79.5 -10.5t-75.5 10.5t-44 23.5t-18.5 35t-4 36t5 35l47 265h90l-48 -272q-4 -26 9 -41t52 -15q35 0 55.5 11t26.5 45z" />
    <glyph glyph-name="phophungthai" unicode="&#xe1c;" horiz-adv-x="482" 
d="M66 111l51 289h150l-14 -77h-60l-38 -219q-4 -18 2 -25t21 -7q32 0 37 32l26 151h88l-26 -151q-5 -32 25 -32q29 0 35 32l52 296h90l-51 -289q-7 -39 -20.5 -63.5t-34.5 -35.5t-39 -14t-45 -3q-49 0 -69 34q-14 -15 -34.5 -23.5t-33.5 -9.5l-13 -1q-17 0 -29 1t-27 5
t-22.5 11.5t-16 20.5t-7.5 32t3 46z" />
    <glyph glyph-name="fofathai" unicode="&#xe1d;" horiz-adv-x="482" 
d="M66 111l51 289h150l-14 -77h-60l-38 -219q-4 -18 2 -25t21 -7q32 0 37 32l26 151h88l-26 -151q-5 -32 25 -32q29 0 35 32l75 426h90l-74 -419q-7 -39 -20.5 -63.5t-34.5 -35.5t-39 -14t-45 -3q-49 0 -69 34q-14 -15 -34.5 -23.5t-33.5 -9.5l-13 -1q-17 0 -29 1t-27 5
t-22.5 11.5t-16 20.5t-7.5 32t3 46z" />
    <glyph glyph-name="phophanthai" unicode="&#xe1e;" horiz-adv-x="496" 
d="M253 29q-14 -15 -34.5 -23.5t-33.5 -9.5l-13 -1q-27 0 -45 3.5t-36.5 14t-25 35.5t0.5 63l51 289h90l-52 -296q-6 -32 30 -32q32 0 37 32l46 262h88l-46 -262q-5 -32 25 -32q36 0 42 32l52 296h90l-51 -289q-7 -38 -22 -63t-37 -35.5t-41 -14t-46 -3.5q-49 0 -69 34z" />
    <glyph glyph-name="fofanthai" unicode="&#xe1f;" horiz-adv-x="496" 
d="M253 29q-14 -15 -34.5 -23.5t-33.5 -9.5l-13 -1q-27 0 -45 3.5t-36.5 14t-25 35.5t0.5 63l51 289h90l-52 -296q-6 -32 30 -32q32 0 37 32l46 262h88l-46 -262q-5 -32 25 -32q36 0 42 32l75 426h90l-74 -419q-7 -38 -22 -63t-37 -35.5t-41 -14t-46 -3.5q-49 0 -69 34z" />
    <glyph glyph-name="phosamphaothai" unicode="&#xe20;" horiz-adv-x="420" 
d="M27 72h40l45 253q68 80 170 80q45 0 75.5 -13.5t43 -30.5t17.5 -39.5t4 -33t-2 -18.5l-47 -270h-90l47 270q3 18 -4.5 29.5t-22 15.5t-22 5t-14.5 1q-24 0 -41.5 -7.5t-23.5 -14.5l-6 -7l-51 -292h-130z" />
    <glyph glyph-name="momathai" unicode="&#xe21;" horiz-adv-x="419" 
d="M352 400h90l-47 -264q-25 -141 -165 -141q-71 0 -86 47l-7 -42h-90l70 400h90l-48 -271q-4 -27 15 -42t55 -15q66 0 75 57z" />
    <glyph glyph-name="yoyakthai" unicode="&#xe22;" horiz-adv-x="417" 
d="M350 400h90l-55 -311q-16 -94 -135 -94h-92q-123 0 -100 130q7 46 51 80q-37 30 -27 82q9 52 42 82.5t83 30.5h88l-14 -77h-53q-28 0 -40 -7.5t-16 -28.5q-4 -19 7.5 -29.5t30.5 -10.5h58l-14 -77h-55q-20 0 -34 -13t-17 -32q-11 -53 27 -53h86q32 3 36 26z" />
    <glyph glyph-name="roruathai" unicode="&#xe23;" horiz-adv-x="347" 
d="M174 283q-3 -15 25 -28.5t62 -25t59 -40t18 -68.5q-11 -60 -59.5 -93t-107.5 -33q-104 0 -141 62l59 53q42 -38 94 -38q22 0 41.5 14.5t23.5 34.5q3 17 -24.5 30.5t-62 24t-59.5 38t-18 69.5q23 122 159 122q75 0 127 -32l-43 -72q-41 20 -99 20q-47 0 -54 -38z" />
    <glyph glyph-name="ruthai" unicode="&#xe24;" horiz-adv-x="409" 
d="M146 72h42l-12 -72h-132l57 325q68 80 170 80q45 0 75.5 -13.5t43 -30.5t17.5 -39.5t4 -33t-2 -18.5l-82 -466h-90l82 466q3 18 -4.5 29.5t-22 15.5t-22 5t-14.5 1q-24 0 -41.5 -7.5t-23.5 -14.5l-6 -7z" />
    <glyph glyph-name="lolingthai" unicode="&#xe25;" horiz-adv-x="409" 
d="M309 211l13 74q3 22 -14 29t-51 7q-70 0 -76 -36l-5 -27h-90l5 27q21 120 181 120q77 0 114 -29t26 -91l-50 -285h-90l22 129q1 7 -6 11t-22 5.5t-25.5 2t-28.5 0.5q-66 0 -72 -34q-1 -9 -1.5 -17.5t11 -14t35.5 -5.5h28l-13 -77h-46q-41 0 -66.5 11.5t-32.5 28.5
t-9 36.5t3 35.5q11 62 55.5 87.5t119.5 25.5q53 0 85 -14z" />
    <glyph glyph-name="luthai" unicode="&#xe26;" horiz-adv-x="420" 
d="M27 72h40l45 253q68 80 170 80q45 0 75.5 -13.5t43 -30.5t17.5 -39.5t4 -33t-2 -18.5l-82 -466h-90l82 466q3 18 -4.5 29.5t-22 15.5t-22 5t-14.5 1q-24 0 -41.5 -7.5t-23.5 -14.5l-6 -7l-51 -292h-130z" />
    <glyph glyph-name="wowaenthai" unicode="&#xe27;" horiz-adv-x="361" 
d="M245 122l29 163q3 22 -10.5 29t-44.5 7q-29 0 -42 -7t-17 -29l-6 -33h-90l6 33q11 64 50 92t114 28q77 0 109 -28.5t21 -91.5l-27 -154q-13 -72 -52.5 -104t-114.5 -32q-70 0 -109 20l42 71q34 -14 80 -14q28 0 42.5 11t19.5 39z" />
    <glyph glyph-name="sosalathai" unicode="&#xe28;" horiz-adv-x="416" 
d="M276 405q15 0 23 -1l125 52l13 -67l-42 -16q34 -31 21 -101l-47 -272h-90l50 285q3 22 -15.5 29t-52.5 7q-75 0 -81 -36l-12 -66q18 10 66 10h40l-14 -77h-40q-56 0 -65 -10l-25 -142h-90l47 272q13 72 58.5 102.5t130.5 30.5z" />
    <glyph glyph-name="sorusithai" unicode="&#xe29;" horiz-adv-x="408" 
d="M274 253h38l26 147h90l-26 -147h30l-13 -77h-30l-8 -41q-4 -21 -7.5 -34.5t-16 -36t-30.5 -35.5t-52.5 -23.5t-79.5 -10.5t-75.5 10.5t-44 23.5t-18.5 35t-4 36t5 35l47 265h90l-48 -272q-4 -26 9 -41t52 -15q35 0 55.5 11t26.5 45l9 48h-110l19 113h72z" />
    <glyph glyph-name="sosuathai" unicode="&#xe2a;" horiz-adv-x="409" 
d="M388 374q34 -31 24 -89l-50 -285h-90l22 129q1 7 -6 11t-22 5.5t-25.5 2t-28.5 0.5q-66 0 -72 -34q-1 -9 -1.5 -17.5t11 -14t35.5 -5.5h28l-13 -77h-46q-41 0 -66.5 11.5t-32.5 28.5t-9 36.5t3 35.5q11 62 55.5 87.5t119.5 25.5q53 0 85 -14l13 74q3 22 -14 29t-51 7
q-70 0 -76 -36l-5 -27h-90l5 27q21 120 181 120q12 0 18 -1l127 52l13 -67z" />
    <glyph glyph-name="hohipthai" unicode="&#xe2b;" horiz-adv-x="415" 
d="M47 0l70 400h90l-17 -95h118q9 0 13 1t8.5 8t7.5 22l11 64h90l-11 -64q-8 -45 -35 -72q17 -34 6 -92l-30 -172h-90l31 177q6 38 3.5 44.5t-16.5 6.5h-119l-40 -228h-90z" />
    <glyph glyph-name="lochulathai" unicode="&#xe2c;" horiz-adv-x="500" 
d="M377 104l43 244q6 38 -38 38h-22l13 77h25q47 0 58 67h90q-14 -75 -61 -109q33 -28 25 -73l-42 -237q-7 -38 -22 -63t-37 -35.5t-41 -14t-46 -3.5q-49 0 -69 34q-14 -15 -34.5 -23.5t-33.5 -9.5l-13 -1q-27 0 -45 3.5t-36.5 14t-25 35.5t0.5 63l51 289h90l-52 -296
q-6 -32 30 -32q32 0 37 32l38 219h88l-38 -219q-5 -32 25 -32q36 0 42 32z" />
    <glyph glyph-name="oangthai" unicode="&#xe2d;" horiz-adv-x="398" 
d="M408 285l-27 -153q-25 -137 -185 -137t-136 137l16 91h133l-14 -77h-43l-3 -21q-5 -27 12 -40t48 -13q71 0 81 53l28 160q3 22 -14 29t-51 7q-70 0 -76 -36l-4 -20h-90l4 20q21 120 181 120q77 0 114 -29t26 -91z" />
    <glyph glyph-name="honokhukthai" unicode="&#xe2e;" horiz-adv-x="398" 
d="M384 374q34 -31 24 -89l-27 -153q-25 -137 -185 -137t-136 137l16 91h133l-14 -77h-43l-3 -21q-5 -27 12 -40t48 -13q71 0 81 53l28 160q3 22 -14 29t-51 7q-70 0 -76 -36l-4 -20h-90l4 20q21 120 181 120q13 0 19 -1l126 52l13 -67z" />
    <glyph glyph-name="paiyannoithai" unicode="&#xe2f;" horiz-adv-x="351" 
d="M202 -65l53 301q-20 -15 -58 -15q-83 0 -107 35t-12 106l7 38h90l-7 -38q-2 -17 -2.5 -31t10.5 -23.5t35 -9.5q35 0 48 17.5t19 49.5l6 35h90l-82 -465h-90z" />
    <glyph glyph-name="saraathai" unicode="&#xe30;" horiz-adv-x="260" 
d="M104 339h90l-6 -36h81l-14 -77h-133q-16 1 -24.5 12t-6.5 28zM75 172h90l-7 -36h81l-13 -77h-133q-17 1 -25.5 12t-5.5 28z" />
    <glyph glyph-name="maihanakatthai" unicode="&#xe31;" 
d="M85 485h-252l21 119h90l-7 -42h162z" />
    <glyph glyph-name="saraaathai" unicode="&#xe32;" horiz-adv-x="313" 
d="M266 0h-90l48 273q5 27 -9.5 37.5t-35.5 10.5q-51 0 -82 -26l-35 58q51 47 131 47q66 0 99 -32.5t21 -98.5z" />
    <glyph glyph-name="saraamthai" unicode="&#xe33;" horiz-adv-x="313" 
d="M266 0h-90l48 273q5 27 -9.5 37.5t-35.5 10.5q-51 0 -82 -26l-35 58q51 47 131 47q66 0 99 -32.5t21 -98.5zM-15 616q32 0 50 -23t12 -56q-5 -32 -31.5 -54.5t-57.5 -22.5q-33 0 -51.5 22.5t-13.5 54.5q6 33 32.5 56t59.5 23zM-32 517q19 0 23 20q3 21 -16 21
q-21 0 -25 -21q-2 -8 3.5 -14t14.5 -6z" />
    <glyph glyph-name="saraithai" unicode="&#xe34;" 
d="M-254 485l14 77h292l-14 -77h-292z" />
    <glyph glyph-name="saraiithai" unicode="&#xe35;" 
d="M-37 562l8 46h89l-22 -123h-292l14 77h203z" />
    <glyph glyph-name="sarauethai" unicode="&#xe36;" 
d="M4 626q29 0 46 -21t12 -50t-29 -49.5t-53 -20.5h-234l14 77h164q8 27 30.5 45.5t49.5 18.5zM-11 536q8 0 14.5 5.5t7.5 13.5t-3 14t-12 6t-15 -6t-8 -14t4 -13.5t12 -5.5z" />
    <glyph glyph-name="saraueethai" unicode="&#xe37;" 
d="M-29 608h89l-22 -123h-292l14 77h77l8 46h90l-8 -46h36z" />
    <glyph glyph-name="sarauthai" unicode="&#xe38;" 
d="M-82 -200h-78l11 62h-30l13 73h108z" />
    <glyph glyph-name="sarauuthai" unicode="&#xe39;" 
d="M-58 -65l-11 -60q-9 -49 -31 -71.5t-82 -22.5q-52 0 -70 22t-12 59h-22l13 73h101l-14 -77q-1 -6 2 -9t5.5 -3.5t7.5 -0.5q19 0 21 13l14 77h78z" />
    <glyph glyph-name="phinthuthai" unicode="&#xe3a;" 
d="M-165 -114q4 20 21 34.5t37 14.5t32 -14.5t8 -34.5q-3 -20 -20 -34.5t-37 -14.5t-32 14.5t-9 34.5z" />
    <glyph glyph-name="nptp3.001march2007r" unicode="&#xe3e;" 
 />
    <glyph glyph-name="bahtthai" unicode="&#xe3f;" horiz-adv-x="479" 
d="M439 249q29 -29 15 -102q-13 -76 -49.5 -111.5t-101.5 -35.5h-16l-10 -55h-90l10 55h-142l88 500h142l10 60h90l-10 -60h16q64 0 88.5 -36t11.5 -112q-15 -75 -52 -103zM218 416l-23 -128h52l23 128h-52zM158 77h52l24 134h-52zM316 77q37 0 48 68q4 21 4 33.5t-5 22
t-18 10.5h-21l-24 -134h16zM353 288q22 0 32 15.5t16 48.5q7 28 2 46t-27 18h-16l-23 -128h16z" />
    <glyph glyph-name="saraethai" unicode="&#xe40;" horiz-adv-x="184" 
d="M47 0l70 400h90l-70 -400h-90z" />
    <glyph glyph-name="saraaethai" unicode="&#xe41;" horiz-adv-x="364" 
d="M50 0l70 400h90l-70 -400h-90zM227 0l70 400h90l-70 -400h-90z" />
    <glyph glyph-name="saraothai" unicode="&#xe42;" horiz-adv-x="185" 
d="M59 0l71 404q3 16 -9 33.5t-22.5 40t-5.5 51.5q4 21 7.5 32t14.5 27.5t34 24.5t57 8h132l-14 -77h-120q-17 0 -22 -20q-4 -21 19.5 -55t18.5 -65l-71 -404h-90z" />
    <glyph glyph-name="saraaimaimuanthai" unicode="&#xe43;" horiz-adv-x="202" 
d="M281 522q-6 -35 -29.5 -70.5t-30.5 -61.5l-68 -390h-90l68 390q6 31 30 65.5t28 59.5q6 29 -19 29q-24 0 -65 -34l-43 54q52 57 126 57q58 0 79 -28.5t14 -70.5z" />
    <glyph glyph-name="saraaimaimalaithai" unicode="&#xe44;" horiz-adv-x="178" 
d="M204 404l-71 -404h-90l71 404q5 31 40.5 65t39.5 55q5 20 -16 20h-115l14 77h127q34 0 54 -8t25.5 -24.5t5.5 -28t-4 -31.5q-5 -29 -24 -51.5t-36.5 -40t-20.5 -33.5z" />
    <glyph glyph-name="lakkhangyaothai" unicode="&#xe45;" horiz-adv-x="313" 
d="M231 -196h-90l83 469q5 27 -9.5 37.5t-35.5 10.5q-51 0 -82 -26l-35 58q51 47 131 47q66 0 99 -32.5t21 -98.5z" />
    <glyph glyph-name="maiyamokthai" unicode="&#xe46;" horiz-adv-x="374" 
d="M178 294l-5 -33h46l-14 -77h-134l14 78q12 70 36 100.5t88 42.5l38 -27l48 27q52 -11 72 -37t10 -80l-62 -353h-90l63 359q4 22 -9 27l-46 -21l-36 21q-14 -4 -19 -27z" />
    <glyph glyph-name="maitaikhuthai" unicode="&#xe47;" 
d="M-21 586h77q-10 -54 -33 -73t-77 -28l-34 23l-42 -23q-51 10 -68 32t-8 73q10 56 31 74.5t70 18.5h201l-14 -77h-187q-14 0 -16 -12l-4 -22q-1 -11 7 -17l42 25l36 -25q15 7 19 31z" />
    <glyph glyph-name="maiekthai" unicode="&#xe48;" 
d="M-15 643l22 131h82l-23 -131h-81z" />
    <glyph glyph-name="maithothai" unicode="&#xe49;" 
d="M-101 643l9 54h-40l14 77h118l-10 -54h89l-13 -77h-167z" />
    <glyph glyph-name="maitrithai" unicode="&#xe4a;" 
d="M-79 724l-4 -21h37l-10 -60h-121l11 65q10 56 34 77.5t80 32.5l23 -19l30 19q52 -11 69 -33.5t6 -81.5h18l-10 -60h-99l14 81q1 11 -9 17l-32 -18l-22 18q-13 -8 -15 -17z" />
    <glyph glyph-name="maichattawathai" unicode="&#xe4b;" 
d="M129 756l-13 -70h-43l-7 -43h-77l7 43h-43l13 70h42l8 45h78l-8 -45h43z" />
    <glyph glyph-name="thanthakhatthai" unicode="&#xe4c;" 
d="M-113 643l20 113h194l-14 -77h-104l-6 -36h-90z" />
    <glyph glyph-name="nikhahitthai" unicode="&#xe4d;" 
d="M-15 616q32 0 50 -23t12 -56q-5 -32 -31.5 -54.5t-57.5 -22.5q-33 0 -51.5 22.5t-13.5 54.5q6 33 32.5 56t59.5 23zM-32 517q19 0 23 20q3 21 -16 21q-21 0 -25 -21q-2 -8 3.5 -14t14.5 -6z" />
    <glyph glyph-name="yamakkanthai" unicode="&#xe4e;" 
 />
    <glyph glyph-name="fongmanthai" unicode="&#xe4f;" horiz-adv-x="447" 
d="M289 380q71 0 111.5 -49.5t28.5 -120.5q-13 -70 -71 -118.5t-129 -48.5t-110.5 48.5t-26.5 118.5q12 71 69 120.5t128 49.5zM233 66q62 0 112 41.5t61 102.5q10 61 -25 104t-97 43q-61 0 -109.5 -42.5t-59.5 -104.5q-11 -61 23 -102.5t95 -41.5zM160 210q7 41 41 70.5
t75 29.5q40 0 64 -29.5t17 -70.5q-8 -41 -42 -69.5t-74 -28.5q-41 0 -65 28.5t-16 69.5z" />
    <glyph glyph-name="zerothai" unicode="&#xe50;" horiz-adv-x="405" 
d="M397 186l-10 -57q-12 -66 -61 -100t-124 -34q-81 0 -116 35t-24 99l10 57q12 67 61 100.5t126 33.5q80 0 114.5 -35t23.5 -99zM296 124l11 60q4 26 -14.5 39t-48.5 13q-32 0 -55 -13t-27 -39l-11 -60q-4 -26 14 -39t50 -13q31 0 54 13t27 39z" />
    <glyph glyph-name="onethai" unicode="&#xe51;" horiz-adv-x="382" 
d="M203 148l-14 -77q-92 0 -123 21.5t-21 80.5l2 14q25 136 187 136q81 0 116 -36t24 -100l-9 -52q-30 -173 -185 -173q-70 0 -112 16l35 72q32 -11 90 -11q31 0 50.5 14.5t27.5 54.5l13 75q4 27 -15 40t-50 13q-32 0 -55 -13t-27 -40l-2 -10q-3 -17 12 -21t56 -4z" />
    <glyph glyph-name="twothai" unicode="&#xe52;" horiz-adv-x="464" 
d="M268 210l-9 -47h-80l4 21q7 39 19 66t30 41t33 20.5t38 11.5l33 -26l36 26q105 -21 86 -127l-11 -62q-5 -30 -10 -47t-18 -40.5t-37.5 -35t-60.5 -11.5h-179q-29 0 -47.5 9t-26.5 21t-10 32.5t-0.5 34.5t5.5 37l46 258h90l-46 -258q-6 -22 -3 -39t24 -17h142q20 0 28 14
t13 42l13 75q4 19 -9 26l-38 -22l-37 23q-15 -6 -18 -26z" />
    <glyph glyph-name="threethai" unicode="&#xe53;" horiz-adv-x="407" 
d="M254 293l68 30q48 -10 69 -38t12 -80l-36 -205h-90l36 209q4 23 -9 27l-64 -24l-54 25q-16 -6 -20 -28l-13 -76q-6 -21 -4 -38.5t18 -17.5h38l-13 -77h-50q-29 0 -47.5 9t-26.5 21t-10 32.5t-0.5 34.5t5.5 36l13 72q9 53 40 80.5t85 37.5z" />
    <glyph glyph-name="fourthai" unicode="&#xe54;" horiz-adv-x="414" 
d="M278 236h-51q-55 0 -65 -52l-10 -55q-9 -57 46 -57q31 0 53 10q-6 19 2 55l11 62h132l-14 -77h-42q-1 -22 10 -35.5t46 -14.5l-13 -77q-75 0 -106 22q-29 -22 -92 -22q-78 0 -106 34.5t-17 99.5l10 57q24 134 170 134h51q19 0 28.5 1t19.5 6.5t12 17.5l7 40h90l-9 -53
q-6 -33 -23 -54t-44.5 -29.5t-46.5 -10.5t-49 -2z" />
    <glyph glyph-name="fivethai" unicode="&#xe55;" horiz-adv-x="414" 
d="M340 122q-1 -22 10 -35.5t46 -14.5l-13 -77q-75 0 -106 22q-29 -22 -92 -22q-78 0 -106 34.5t-17 99.5l10 57q19 106 112 128q-10 17 -5 40q5 31 30 52.5t56 21.5t48.5 -21.5t12.5 -52.5q-3 -18 -14 -34q37 2 41 25l7 40h90l-9 -53q-6 -33 -23 -54t-44.5 -29.5
t-46.5 -10.5t-49 -2h-51q-55 0 -65 -52l-10 -55q-9 -57 46 -57q31 0 53 10q-6 19 2 55l11 62h132l-14 -77h-42zM255 373q-7 0 -13 -5.5t-8 -12.5q-1 -7 3.5 -12.5t11.5 -5.5q18 0 22 18q1 7 -4 12.5t-12 5.5z" />
    <glyph glyph-name="sixthai" unicode="&#xe56;" horiz-adv-x="394" 
d="M79 153h90l-4 -28q-6 -30 5.5 -41.5t55.5 -11.5q26 0 40.5 12.5t19.5 40.5l9 55q11 56 -44 56t-78 -32h-77l-7 188h91l3 -90q29 21 83 21q144 0 118 -152l-7 -40q-12 -68 -48.5 -102t-115.5 -34q-76 0 -109.5 20.5t-32.5 55.5t8 82z" />
    <glyph glyph-name="seventhai" unicode="&#xe57;" horiz-adv-x="531" 
d="M374 0h-97l36 209q4 23 -9 27l-64 -24l-54 25q-16 -6 -20 -28l-13 -76q-6 -21 -4 -38.5t18 -17.5h38l-13 -77h-50q-29 0 -47.5 9t-26.5 21t-10 32.5t-0.5 34.5t5.5 36l13 72q9 53 40 80.5t85 37.5l53 -30l68 30q48 -10 69 -38t12 -80l-24 -133q21 0 29 7.5t11 25.5
l51 287h90l-49 -278q-10 -54 -38.5 -84t-98.5 -30z" />
    <glyph glyph-name="eightthai" unicode="&#xe58;" horiz-adv-x="412" 
d="M277 236h-51q-58 0 -66 -52l-14 -77q-2 -11 2.5 -21.5t12.5 -13.5l56 29l51 -29q12 5 16 35l3 15h-42l14 77h131l-15 -80q-10 -62 -37 -89.5t-82 -34.5l-52 28l-55 -28q-54 7 -76.5 35.5t-11.5 89.5l11 66q13 70 54 102t115 32h51q19 0 28.5 1t19.5 6.5t12 17.5l7 40h90
l-9 -53q-6 -33 -23 -54t-44.5 -29.5t-46.5 -10.5t-49 -2z" />
    <glyph glyph-name="ninethai" unicode="&#xe59;" horiz-adv-x="414" 
d="M63 133l13 75q9 55 46 83.5t91 28.5q50 0 74 -25q15 25 65 25q13 0 18 0.5t8 3t4 9.5l9 52h90l-9 -52q-5 -27 -15.5 -46t-21.5 -28.5t-26.5 -14.5t-24 -5.5t-21.5 -0.5q-35 0 -39 -21v-11q10 -57 24 -206h-82q-12 105 -23 157.5t-20.5 65.5t-24.5 13q-16 0 -22.5 -7.5
t-9.5 -22.5l-13 -73q-6 -21 -4 -38.5t18 -17.5h38l-13 -77h-50q-29 0 -47.5 9t-26.5 21t-10 32.5t-0.5 34.5t5.5 36z" />
    <glyph glyph-name="angkhankhuthai" unicode="&#xe5a;" horiz-adv-x="491" 
d="M202 -65l53 301q-20 -15 -58 -15q-83 0 -107 35t-12 106l7 38h90l-7 -38q-2 -17 -2.5 -31t10.5 -23.5t35 -9.5q35 0 48 17.5t19 49.5l6 35h90l-82 -465h-90zM342 -65l82 465h90l-82 -465h-90z" />
    <glyph glyph-name="khomutthai" unicode="&#xe5b;" 
 />
    <glyph glyph-name="ZWSP" unicode="&#x200b;" 
 />
    <glyph glyph-name="endash" unicode="&#x2013;" horiz-adv-x="502" 
d="M96 238h392l-13 -77h-392z" />
    <glyph glyph-name="emdash" unicode="&#x2014;" horiz-adv-x="579" 
d="M96 238h469l-13 -77h-469z" />
    <glyph glyph-name="quoteleft" unicode="&#x2018;" horiz-adv-x="244" 
d="M125 401l91 137h67l-70 -137h-88z" />
    <glyph glyph-name="quoteright" unicode="&#x2019;" horiz-adv-x="244" 
d="M283 538l-91 -137h-67l70 137h88z" />
    <glyph glyph-name="bullet" unicode="&#x2022;" horiz-adv-x="301" 
d="M105 203q6 34 34 57.5t61 23.5t52 -26t14 -59q-6 -32 -33.5 -54t-61.5 -22q-33 0 -52 23.5t-14 56.5z" />
    <glyph glyph-name="ellipsis" unicode="&#x2026;" horiz-adv-x="605" 
d="M62 44q4 21 20.5 35.5t37.5 14.5t33 -14.5t8 -35.5t-20.5 -35t-37.5 -14t-33 14t-8 35zM260 44q4 21 20.5 35.5t37.5 14.5t33 -14.5t8 -35.5t-20.5 -35t-37.5 -14t-33 14t-8 35zM458 44q4 21 20.5 35.5t37.5 14.5t33 -14.5t8 -35.5t-20.5 -35t-37.5 -14t-33 14t-8 35z
" />
    <glyph glyph-name="uni25CC" unicode="&#x25cc;" horiz-adv-x="512" 
 />
    <glyph glyph-name="thothannobasethai" unicode="&#xf700;" horiz-adv-x="393" 
d="M283 114l30 171q3 22 -14 29t-50 7q-34 0 -54 -7t-23 -29l-6 -33h-90l6 33q21 120 182 120q12 0 18 -1l126 52l13 -67l-42 -15q34 -31 24 -89l-29 -164q-9 -53 -46 -87t-87 -34h-105l-1 126h-42l13 77h121l-2 -126h28q19 1 30 37z" />
    <glyph glyph-name="saraileftthai" unicode="&#xf701;" 
d="M-314 485l14 77h238l-14 -77h-238z" />
    <glyph glyph-name="saraiileftthai" unicode="&#xf702;" 
d="M-152 562l8 46h90l-22 -123h-238l14 77h148z" />
    <glyph glyph-name="saraueleftthai" unicode="&#xf703;" 
d="M-112 626q29 0 46 -21t12 -50t-29.5 -49.5t-53.5 -20.5h-177l14 77h107q8 27 31 45.5t50 18.5zM-128 536q8 0 15 6t8 13q2 8 -3 14t-13 6t-15 -6t-8 -14t4 -13.5t12 -5.5z" />
    <glyph glyph-name="saraueeleftthai" unicode="&#xf704;" 
d="M-144 608h90l-22 -123h-245l14 77h42l8 46h85l-8 -46h28z" />
    <glyph glyph-name="maieklowleftthai" unicode="&#xf705;" 
d="M-167 485l22 123h78l-22 -123h-78z" />
    <glyph glyph-name="maitholowleftthai" unicode="&#xf706;" 
d="M-257 485l10 54h-40l13 77h118l-9 -54h90l-14 -77h-168z" />
    <glyph glyph-name="maitrilowleftthai" unicode="&#xf707;" 
d="M-225 566l-3 -21h32l-11 -60h-121l11 65q10 56 34 77.5t80 32.5l24 -19l30 19q52 -11 69 -33.5t7 -81.5h18l-11 -60h-105l14 81q3 13 -4 17l-32 -18l-22 18q-7 -4 -10 -17z" />
    <glyph glyph-name="maichattawalowleftthai" unicode="&#xf708;" 
d="M-69 598l-12 -70h-43l-8 -43h-78l8 43h-43l12 70h43l8 45h78l-8 -45h43z" />
    <glyph glyph-name="thanthakhatlowleftthai" unicode="&#xf709;" 
d="M-284 485l20 113h195l-14 -77h-105l-6 -36h-90z" />
    <glyph glyph-name="maieklowrightthai" unicode="&#xf70a;" 
d="M-39 485l22 123h77l-22 -123h-77z" />
    <glyph glyph-name="maitholowrightthai" unicode="&#xf70b;" 
d="M-129 485l10 54h-40l13 77h118l-9 -54h89l-14 -77h-167z" />
    <glyph glyph-name="maitrilowrightthai" unicode="&#xf70c;" 
d="M-115 566l-3 -21h32l-11 -60h-121l11 65q10 55 35 77t82 33l29 -19l35 19q51 -11 68 -33.5t7 -81.5h32l-11 -60h-115l14 81q3 12 -5 17l-39 -18l-29 18q-8 -5 -11 -17z" />
    <glyph glyph-name="maichattawalowrightthai" unicode="&#xf70d;" 
d="M101 598l-12 -70h-43l-8 -43h-77l8 43h-43l12 70h43l8 45h77l-8 -45h43z" />
    <glyph glyph-name="thanthakhatlowrightthai" unicode="&#xf70e;" 
d="M-141 485l20 113h194l-14 -77h-104l-6 -36h-90z" />
    <glyph glyph-name="yoyingnobasethai" unicode="&#xf70f;" horiz-adv-x="614" 
d="M295 136l24 134q3 18 -4.5 29.5t-22 15.5t-22 5t-14.5 1q-24 0 -41.5 -7.5t-23.5 -14.5l-6 -7l-39 -220h42l-12 -72h-132l57 325q68 80 170 80q45 0 75.5 -13.5t43 -30.5t17.5 -39.5t4 -33t-2 -18.5l-25 -141q-9 -57 48 -57q58 0 67 57l48 271h90l-47 -264
q-13 -76 -56 -108.5t-115 -32.5q-71 0 -104 32.5t-20 108.5z" />
    <glyph glyph-name="maihanakatleftthai" unicode="&#xf710;" 
d="M-81 485h-203l21 119h90l-7 -42h113z" />
    <glyph glyph-name="nikhahitleftthai" unicode="&#xf711;" 
d="M-143 616q32 0 50.5 -23t12.5 -56q-5 -32 -31.5 -54.5t-58.5 -22.5q-33 0 -51.5 22.5t-13.5 54.5q6 33 32.5 56t59.5 23zM-160 517q19 0 23 20q3 21 -16 21q-21 0 -25 -21q-2 -8 3.5 -14t14.5 -6z" />
    <glyph glyph-name="maitaikhuleftthai" unicode="&#xf712;" 
d="M-127 586h78q-10 -54 -33.5 -73t-77.5 -28l-34 23l-42 -23q-51 10 -68 32t-8 73q10 56 31 74.5t70 18.5h202l-14 -77h-188q-14 0 -16 -12l-4 -22q-1 -11 7 -17l42 25l36 -25q15 7 19 31z" />
    <glyph glyph-name="maiekupperleftthai" unicode="&#xf713;" 
d="M-130 643l23 131h82l-23 -131h-82z" />
    <glyph glyph-name="maithoupperleftthai" unicode="&#xf714;" 
d="M-216 643l9 54h-40l14 77h118l-10 -54h90l-13 -77h-168z" />
    <glyph glyph-name="maitriupperleftthai" unicode="&#xf715;" 
d="M-194 724l-4 -21h37l-10 -60h-121l11 65q10 56 34 77.5t80 32.5l23 -19l31 19q52 -11 69 -33.5t6 -81.5h18l-10 -60h-100l14 81q2 10 -9 17l-32 -18l-22 18q-13 -8 -15 -17z" />
    <glyph glyph-name="maichattawaupperleftthai" unicode="&#xf716;" 
d="M14 756l-13 -70h-42l-7 -43h-78l7 43h-43l13 70h43l8 45h78l-8 -45h42z" />
    <glyph glyph-name="thanthakhatupperleftthai" unicode="&#xf717;" 
d="M-229 643l20 113h195l-14 -77h-105l-6 -36h-90z" />
    <glyph glyph-name="saraulowthai" unicode="&#xf718;" 
d="M-113 -378h-78l11 62h-30l13 73h108z" />
    <glyph glyph-name="sarauulowthai" unicode="&#xf719;" 
d="M-89 -243l-11 -60q-9 -49 -31.5 -71.5t-82.5 -22.5q-94 0 -81 81h-22l13 73h101l-14 -77q-1 -6 2 -9t5.5 -3.5t7.5 -0.5q19 0 21 13l14 77h78z" />
    <glyph glyph-name="phinthulowthai" unicode="&#xf71a;" 
d="M-196 -292q4 20 21 34.5t37 14.5t32 -14.5t8 -34.5t-21 -34.5t-37 -14.5t-32 14.5t-8 34.5z" />
    <glyph glyph-name="lochula.short" unicode="&#xf71d;" horiz-adv-x="496" 
d="M377 104l20 114q6 38 -38 38h-22l13 77h25q47 0 58 67h90q-14 -75 -61 -109q33 -28 25 -73l-19 -107q-7 -38 -22 -63t-37 -35.5t-41 -14t-46 -3.5q-49 0 -69 34q-14 -15 -34.5 -23.5t-33.5 -9.5l-13 -1q-27 0 -45 3.5t-36.5 14t-25 35.5t0.5 63l47 264h90l-48 -271
q-6 -32 30 -32q32 0 37 32l20 113h88l-20 -113q-5 -32 25 -32q36 0 42 32z" />
    <glyph glyph-name="saraamleft" horiz-adv-x="313" 
d="M266 0h-90l48 273q5 27 -9.5 37.5t-35.5 10.5q-51 0 -82 -26l-35 58q51 47 131 47q66 0 99 -32.5t21 -98.5zM-143 616q32 0 50.5 -23t12.5 -56q-5 -32 -31.5 -54.5t-58.5 -22.5q-33 0 -51.5 22.5t-13.5 54.5q6 33 32.5 56t59.5 23zM-160 517q19 0 23 20q3 21 -16 21
q-21 0 -25 -21q-2 -8 3.5 -14t14.5 -6z" />
    <glyph glyph-name="yamakkanleftthai" 
 />
    <glyph glyph-name="_0015" 
 />
    <glyph glyph-name="_0016" 
 />
    <glyph glyph-name="Superstore" horiz-adv-x="614" 
d="M306 505q106 0 180 -74t74 -180q0 -104 -74 -177.5t-180 -73.5q-104 0 -177.5 74t-73.5 177q0 106 73.5 180t177.5 74zM413 90q32 0 32 27q0 30 -24 30v133q0 43 -32 71q6 2 19 2t19 -2h11v65q-73 -9 -115 -32q-12 2 -37 2q-49 0 -88 -14v-63h6q50 16 76 16q74 0 74 -43
l-82 -8q-46 -4 -74 -23t-28 -69q0 -42 28.5 -67t73.5 -25q30 0 43 3v54l-6 4q-9 -4 -23 -4q-18 0 -31.5 10t-13.5 31q0 16 18 22.5t95 18.5v-71q0 -37 10.5 -52.5t39.5 -15.5h9z" />
    </font>
</defs>
</svg>
