<?xml version="1.0" standalone="no"?>
<!DOCTYPE svg PUBLIC "-//W3C//DTD SVG 1.1//EN" "http://www.w3.org/Graphics/SVG/1.1/DTD/svg11.dtd" >
<svg xmlns="http://www.w3.org/2000/svg" xmlns:xlink="http://www.w3.org/1999/xlink" version="1.1">
<metadata>
Created by FontForge 20161013 at Thu Jan 19 16:52:55 2012
 By ,,,
Copyright (c) 2012 by Superstorefont. All rights reserved.
</metadata>
<defs>
<font id="Superstore-Light" horiz-adv-x="0" >
  <font-face 
    font-family="Superstore"
    font-weight="300"
    font-stretch="normal"
    units-per-em="1000"
    panose-1="2 0 0 0 0 0 0 0 0 0"
    ascent="800"
    descent="-200"
    x-height="400"
    cap-height="500"
    bbox="-360 -382 644 769"
    underline-thickness="35"
    underline-position="-176"
    unicode-range="U+0020-F882"
  />
<missing-glyph horiz-adv-x="750" 
d="M644 -14h-519v650h519v-650zM144 -4h481q9 0 9 8v612q0 10 -9 10h-481q-9 0 -9 -10v-612q0 -8 9 -8z" />
    <glyph glyph-name="copyright2" unicode="&#x3b;&#x3b;For&#x20;Education&#x20;Used&#x20;Only&#x3b;&#x3b;" horiz-adv-x="620" 
d="M310 505q106 0 180.5 -74.5t74.5 -180.5t-74.5 -180.5t-180.5 -74.5t-180.5 74.5t-74.5 180.5t74.5 180.5t180.5 74.5zM310 28q92 0 157 65t65 157t-65 157t-157 65t-157 -65t-65 -157t65 -157t157 -65zM176 279v-62q0 -72 36 -99.5t100 -27.5q62 0 107 20l-12 29
q-33 -18 -87 -18q-110 0 -110 96v62q0 95 110 95q54 0 87 -18l12 30q-45 20 -107 20q-64 0 -100 -27.5t-36 -99.5z" />
    <glyph glyph-name="registered2" unicode="&#x3b;&#x3b;Registered&#x3b;&#x3b;" horiz-adv-x="620" 
d="M310 505q106 0 180.5 -74.5t74.5 -180.5t-74.5 -180.5t-180.5 -74.5t-180.5 74.5t-74.5 180.5t74.5 180.5t180.5 74.5zM310 28q92 0 157 65t65 157t-65 157t-157 65t-157 -65t-65 -157t65 -157t157 -65zM208 107v292h149q36 0 55.5 -25t19.5 -69q0 -35 -17.5 -60
t-43.5 -35q19 -40 44 -103h-32l-44 103h-97v-103h-34zM242 367v-125h105q51 0 51 63q0 62 -51 62h-105z" />
    <glyph glyph-name="multiply2" unicode="&#x3b;&#x3b;Multiply&#x3b;&#x3b;" horiz-adv-x="386" 
d="M307 332l25 -25l-115 -115l114 -114l-25 -25l-114 114l-115 -115l-25 25l115 115l-115 115l25 25l115 -115z" />
    <glyph glyph-name="divide2" unicode="&#x3b;&#x3b;Divide&#x3b;&#x3b;" horiz-adv-x="471" 
d="M55 209h361v-35h-361v35zM208 72q0 10 8 18t18 8t18 -8t8 -18t-8 -18t-18 -8t-18 8t-8 18zM208 314q0 10 8 18t18 8t18 -8t8 -18t-8 -18t-18 -8t-18 8t-8 18z" />
    <glyph glyph-name="quotedblleft" unicode="&#x2018;&#x2018;" horiz-adv-x="261" 
d="M55 453l45 85h26l-30 -85h-41zM135 453l45 85h26l-30 -85h-41z" />
    <glyph glyph-name="quotedblright" unicode="&#x2019;&#x2019;" horiz-adv-x="261" 
d="M206 538l-45 -85h-26l30 85h41zM126 538l-45 -85h-26l30 85h41z" />
    <glyph glyph-name="trademark2" unicode="&#x3b;&#x3b;Trademark&#x3b;&#x3b;" horiz-adv-x="647" 
d="M278 500v-30h-96v-280h-32v280h-95v30h223zM475 190h-44l-86 283v-283h-32v310h57l82 -276l83 276h57v-310h-32v283z" />
    <glyph glyph-name="rulakkhangyao" unicode="&#xe24;&#xe32;" horiz-adv-x="626" 
d="M82 35h45v-35h-80v337q50 68 148 68q43 0 74.5 -12t46.5 -27.5t23.5 -36t10 -30t1.5 -16.5v-479h-35v474q0 26 -12 45t-26.5 27.5t-35 13.5t-29.5 5.5t-18 0.5q-80 0 -113 -47v-288zM579 -196h-35v481q0 28 -9 46.5t-25.5 26t-31 10t-34.5 2.5q-56 0 -85 -14l-14 27
q32 22 99 22q65 0 100 -26.5t35 -93.5v-481z" />
    <glyph glyph-name="lulakkhangyao" unicode="&#xe26;&#xe32;" horiz-adv-x="637" 
d="M590 -196h-35v481q0 28 -9 46.5t-25.5 26t-31 10t-34.5 2.5q-56 0 -85 -14l-14 27q32 22 99 22q65 0 100 -26.5t35 -93.5v-481zM58 35v302q50 68 148 68q43 0 74.5 -12t46.5 -27.5t23.5 -36t10 -30t1.5 -16.5v-479h-35v474q0 26 -12 45t-26.5 27.5t-35 13.5t-29.5 5.5
t-18 0.5q-80 0 -113 -47v-323h-78v35h43z" />
    <glyph glyph-name=".notdef" horiz-adv-x="750" 
d="M644 -14h-519v650h519v-650zM144 -4h481q9 0 9 8v612q0 10 -9 10h-481q-9 0 -9 -10v-612q0 -8 9 -8z" />
    <glyph glyph-name=".null" 
 />
    <glyph glyph-name="nonmarkingreturn" horiz-adv-x="283" 
 />
    <glyph glyph-name="space" unicode=" " horiz-adv-x="185" 
 />
    <glyph glyph-name="exclam" unicode="!" horiz-adv-x="153" 
d="M93 86h-34q-3 393 -3 414h41q-2 -84 -2.5 -219.5t-1.5 -194.5zM50 21q0 11 8 18.5t18 7.5t18 -7.5t8 -18.5t-8 -18.5t-18 -7.5t-18 7.5t-8 18.5z" />
    <glyph glyph-name="quotedbl" unicode="&#x22;" horiz-adv-x="219" 
d="M64 453l-9 85h38q-1 -7 -9 -85h-20zM136 453l-11 85h39q-1 -7 -9 -85h-19z" />
    <glyph glyph-name="numbersign" unicode="#" horiz-adv-x="619" 
d="M330 0l46 136h-224l-47 -136h-35l46 136h-61v35h72l55 161h-67v35h79q35 105 45 133h35l-44 -133h225l44 133h37l-45 -133h73v-35h-86l-54 -161h80v-35h-92l-47 -136h-35zM218 332l-55 -161h225l54 161h-224z" />
    <glyph glyph-name="dollar" unicode="$" horiz-adv-x="458" 
d="M403 136q0 -135 -158 -141v-51h-35v51q-83 2 -150 43l20 30q55 -35 130 -38v209q-36 11 -59.5 20.5t-49 25t-38 36t-12.5 46.5q0 137 158 137h1v55h35v-55q77 -4 117 -19l-13 -33q-43 14 -104 16v-202q36 -12 59 -21.5t48.5 -25t38 -36.5t12.5 -47zM86 367
q0 -32 31.5 -51.5t92.5 -38.5v192h-2q-122 0 -122 -102zM245 30q123 5 123 106q0 33 -31.5 53t-91.5 39v-198z" />
    <glyph glyph-name="percent" unicode="%" horiz-adv-x="544" 
d="M108 0h-39l368 500h39zM145 270q-45 0 -67.5 17.5t-22.5 57.5v86q0 75 90 75t90 -75v-86q0 -40 -22.5 -57.5t-67.5 -17.5zM145 474q-20 0 -32.5 -4t-17 -13t-5 -13t-0.5 -13v-86v-11.5t2.5 -10.5t8 -11t16.5 -6t28 -3q21 0 33 3.5t16.5 11.5t5 12t0.5 15v86v9.5
t-2.5 10.5t-8 12t-17 7.5t-27.5 3.5zM400 0q-45 0 -67.5 17.5t-22.5 57.5v86q0 75 90 75t90 -75v-86q0 -40 -22.5 -57.5t-67.5 -17.5zM400 204q-20 0 -32.5 -4t-17 -13t-5 -13t-0.5 -13v-86v-11.5t2.5 -10.5t8 -11t16.5 -6t28 -3q21 0 33 3.5t16.5 11.5t5 12t0.5 15v86v9.5
t-2.5 10.5t-8 12t-17 7.5t-27.5 3.5z" />
    <glyph glyph-name="ampersand" unicode="&#x26;" horiz-adv-x="510" 
d="M55 140q0 70 121 117q-43 53 -43 125q0 65 24.5 94t98.5 29t98 -29t24 -94q0 -30 -11.5 -52.5t-38.5 -39.5t-46 -25.5t-59 -23.5q42 -49 167 -172q41 64 45 131h35q-4 -86 -56 -152l49 -48h-40l-32 28q-54 -33 -135 -33q-37 0 -55 1t-46.5 4.5t-42.5 12.5t-29.5 24.5
t-21.5 41.5t-6 61zM255 30q5 0 14 -0.5t13 -0.5q39 0 82 21q-122 116 -173 178q-101 -40 -101 -88q0 -81 48 -100q27 -10 117 -10zM168 382q0 -49 38 -114q36 13 53.5 20.5t41 21.5t33 31.5t9.5 40.5q0 53 -14 70.5t-74 17.5q-61 0 -74 -17t-13 -71z" />
    <glyph glyph-name="quotesingle" unicode="'" horiz-adv-x="148" 
d="M64 453l-9 85h38q-1 -7 -9 -85h-20z" />
    <glyph glyph-name="parenleft" unicode="(" horiz-adv-x="195" 
d="M139 -53h-34q-23 64 -36.5 151.5t-13.5 157.5q0 64 13.5 149.5t36.5 147.5h35q-22 -67 -36 -152t-14 -149q0 -58 14.5 -146.5t34.5 -158.5z" />
    <glyph glyph-name="parenright" unicode=")" horiz-adv-x="195" 
d="M90 -53h-34q20 70 34.5 158.5t14.5 146.5q0 64 -14 149t-36 152h35q23 -62 36.5 -147.5t13.5 -149.5q0 -70 -13.5 -157.5t-36.5 -151.5z" />
    <glyph glyph-name="asterisk" unicode="*" horiz-adv-x="366" 
d="M160 538h46l-13 -112l110 31l8 -41l-114 -11l78 -87l-36 -23l-56 94l-56 -94l-36 23l78 87l-114 11l8 41l110 -31z" />
    <glyph glyph-name="plus" unicode="+" horiz-adv-x="472" 
d="M417 209v-35h-163v-163h-35v163h-164v35h164v161h35v-161h163z" />
    <glyph glyph-name="comma" unicode="," horiz-adv-x="143" 
d="M55 -46v104h33v-90z" />
    <glyph glyph-name="hyphen" unicode="-" horiz-adv-x="402" 
d="M55 209h292v-35h-292v35z" />
    <glyph glyph-name="period" unicode="." horiz-adv-x="162" 
d="M55 21q0 11 7.5 18.5t18.5 7.5t18.5 -7.5t7.5 -18.5t-7.5 -18.5t-18.5 -7.5t-18.5 7.5t-7.5 18.5z" />
    <glyph glyph-name="slash" unicode="/" horiz-adv-x="346" 
d="M30 0l251 553h35l-251 -553h-35z" />
    <glyph glyph-name="zero" unicode="0" horiz-adv-x="454" 
d="M227 470q-29 0 -44.5 -1t-37.5 -6t-32.5 -15t-19 -30t-8.5 -49v-213q0 -42 10.5 -69t33 -38.5t43.5 -15t55 -3.5t55 3.5t43.5 15t33 38.5t10.5 69v213q0 29 -8.5 49t-19 30t-32.5 15t-37.5 6t-44.5 1zM227 -5q-94 0 -135.5 36t-41.5 121v220q0 71 41.5 102t135.5 31
t135.5 -30.5t41.5 -102.5v-220q0 -85 -41 -121t-136 -36z" />
    <glyph glyph-name="one" unicode="1" horiz-adv-x="269" 
d="M40 437l138 63h36v-500h-35v465l-125 -58z" />
    <glyph glyph-name="two" unicode="2" horiz-adv-x="414" 
d="M81 35h283v-35h-318v35q0 41 28.5 80.5t69 70.5t80.5 59t68.5 58t28.5 57v42q0 24 -8.5 38.5t-26.5 20.5t-33.5 7.5t-42.5 1.5h-20q-36 0 -55.5 -2.5t-37 -17.5t-17.5 -45h-35q1 55 35 77.5t120 22.5t121 -23.5t35 -79.5v-42q0 -35 -28.5 -70t-68.5 -63.5t-80.5 -57
t-69 -63.5t-28.5 -71z" />
    <glyph glyph-name="three" unicode="3" horiz-adv-x="406" 
d="M156 233v35h46q50 0 82 22.5t32 69.5v42q0 17 -4 29.5t-14.5 19.5t-18 11t-26 6t-27 2h-31.5h-31t-26.5 -1.5t-26 -5.5t-18 -11t-14.5 -19t-4 -28h-35q1 55 35 77.5t120 22.5t121 -23.5t35 -79.5v-42q0 -71 -49 -107q49 -31 49 -94v-41q0 -65 -34.5 -94t-121.5 -29
t-120 28.5t-35 87.5h35q4 -81 120 -81q121 0 121 88v41q0 45 -29.5 59.5t-84.5 14.5h-46z" />
    <glyph glyph-name="four" unicode="4" horiz-adv-x="421" 
d="M15 173l250 327h53v-327h73v-35h-73v-138h-35v138h-268v35zM57 173h226v292z" />
    <glyph glyph-name="five" unicode="5" horiz-adv-x="416" 
d="M50 100h36q9 -70 119 -70q121 0 121 88v92q0 47 -31.5 62t-89.5 15q-52 0 -82 -11t-37 -48h-36v272h297v-35h-262v-172q48 29 120 29t114 -28.5t42 -83.5v-92q0 -64 -37 -93.5t-119 -29.5q-81 0 -116 25.5t-39 79.5z" />
    <glyph glyph-name="six" unicode="6" horiz-adv-x="401" 
d="M200 299q72 0 114 -28.5t42 -82.5v-70q0 -62 -41 -92.5t-115 -30.5q-77 0 -116 32t-39 91v70q0 21 5 36q54 142 107 276h35l-82 -218q35 17 90 17zM321 118v70q0 25 -9.5 41t-28 23t-37 9.5t-46.5 2.5q-27 0 -45.5 -2.5t-37 -9.5t-28 -23t-9.5 -41v-70q0 -88 120 -88
q121 0 121 88z" />
    <glyph glyph-name="seven" unicode="7" horiz-adv-x="345" 
d="M15 465v35h290v-35l-170 -465h-39l174 465h-255z" />
    <glyph glyph-name="eight" unicode="8" horiz-adv-x="421" 
d="M55 360v42q0 55 36 79t119 24q84 0 120 -24t36 -79v-42q0 -77 -52 -107q52 -25 52 -94v-41q0 -65 -36 -94t-120 -29q-88 0 -121.5 30.5t-33.5 92.5v41q0 69 49 93q-49 30 -49 108zM90 402v-42q0 -49 33.5 -71t86.5 -22t87 22t34 71v42q0 20 -7.5 34t-16 20.5t-29 9.5
t-31 3.5t-37.5 0.5t-37.5 -0.5t-30.5 -3.5t-28.5 -9.5t-16 -20.5t-7.5 -34zM90 159v-41q0 -88 120 -88q121 0 121 88v41q0 24 -8.5 39.5t-26.5 22.5t-34.5 9t-43.5 2h-8q-29 0 -45.5 -1.5t-36.5 -8t-29 -22.5t-9 -41z" />
    <glyph glyph-name="nine" unicode="9" horiz-adv-x="381" 
d="M181 196q-72 0 -114 28.5t-42 82.5v70q0 62 41 92.5t115 30.5q77 0 116 -32t39 -91v-70q0 -21 -5 -36q-54 -142 -107 -276h-35l82 218q-35 -17 -90 -17zM60 377v-70q0 -25 9.5 -41t28 -23t37 -9.5t46.5 -2.5q27 0 45.5 2.5t37 9.5t28 23t9.5 41v70q0 88 -120 88
q-121 0 -121 -88z" />
    <glyph glyph-name="colon" unicode=":" horiz-adv-x="162" 
d="M55 21q0 11 7.5 18.5t18.5 7.5t18.5 -7.5t7.5 -18.5t-7.5 -18.5t-18.5 -7.5t-18.5 7.5t-7.5 18.5zM55 339q0 11 7.5 18.5t18.5 7.5t18.5 -7.5t7.5 -18.5t-7.5 -18.5t-18.5 -7.5t-18.5 7.5t-7.5 18.5z" />
    <glyph glyph-name="semicolon" unicode=";" horiz-adv-x="162" 
d="M55 339q0 11 7.5 18.5t18.5 7.5t18.5 -7.5t7.5 -18.5t-7.5 -18.5t-18.5 -7.5t-18.5 7.5t-7.5 18.5zM62 -46v104h33v-90z" />
    <glyph glyph-name="less" unicode="&#x3c;" horiz-adv-x="427" 
d="M372 7l-317 151v44l317 151v-35l-286 -137q153 -75 286 -139v-35z" />
    <glyph glyph-name="equal" unicode="=" horiz-adv-x="403" 
d="M56 271h292v-35h-292v35zM56 135h292v-35h-292v35z" />
    <glyph glyph-name="greater" unicode="&#x3e;" horiz-adv-x="427" 
d="M372 158l-317 -151v35q133 64 286 139l-286 137v35l317 -151v-44z" />
    <glyph glyph-name="question" unicode="?" horiz-adv-x="355" 
d="M131 93v120q0 36 21 62t46 39t46 35t21 50q0 71 -105 71q-67 0 -95 -10l-10 30q33 15 106 15q72 0 105.5 -26.5t33.5 -79.5q0 -28 -13 -49.5t-32 -35t-38 -26t-34 -31.5t-17 -44v-120h-35zM123 21q0 11 7.5 18.5t18.5 7.5t18.5 -7.5t7.5 -18.5t-7.5 -18.5t-18.5 -7.5
t-18.5 7.5t-7.5 18.5z" />
    <glyph glyph-name="at" unicode="@" horiz-adv-x="534" 
d="M248 505h38q98 0 145.5 -28t47.5 -105v-372h-35v42q-27 -47 -134 -47q-141 0 -141 127v93q0 54 40 81t112 27q89 0 123 -31v80q0 29 -10.5 48.5t-22.5 29t-38.5 14.5t-40.5 5.5t-46 0.5h-38q-32 0 -46 -0.5t-40.5 -5.5t-38.5 -14.5t-22.5 -29t-10.5 -48.5v-251
q0 -20 0.5 -29t3 -22.5t7.5 -19.5t14.5 -10.5t23.5 -4.5h12v-35h-12q-24 0 -40.5 6.5t-25 15t-13 27.5t-5 32t-0.5 40v251q0 77 47.5 105t145.5 28zM444 108v133q-26 47 -123 47q-37 0 -59 -4t-40 -21.5t-18 -50.5v-90q0 -92 110 -92q54 0 92 24.5t38 53.5z" />
    <glyph glyph-name="A" unicode="A" horiz-adv-x="478" 
d="M216 500h46l201 -500h-41l-52 136h-262l-52 -136h-41zM122 171h234l-117 294z" />
    <glyph glyph-name="B" unicode="B" horiz-adv-x="465" 
d="M55 0v500h248q61 0 86.5 -30.5t25.5 -104.5q0 -76 -39 -116q39 -40 39 -115q0 -74 -25.5 -104t-86.5 -30h-248zM303 465h-213v-197h213q49 0 63 22t14 75q0 54 -14 77t-63 23zM311 232h-221v-197h213q49 0 63 22.5t14 76.5q0 50 -13 74t-56 24z" />
    <glyph glyph-name="C" unicode="C" horiz-adv-x="468" 
d="M50 196v108q0 63 18.5 105t52.5 62t68.5 27t79.5 7q94 0 164 -27l-11 -31q-54 23 -144 23q-22 0 -34.5 -0.5t-35.5 -3.5t-37 -9t-32.5 -18t-28.5 -29t-17.5 -44t-7.5 -61v-109q0 -47 14 -80.5t32 -49.5t48.5 -25t49 -10t49.5 -1q90 0 144 23l11 -31q-70 -27 -164 -27
q-45 0 -79.5 7t-68.5 27t-52.5 62t-18.5 105z" />
    <glyph glyph-name="D" unicode="D" horiz-adv-x="481" 
d="M55 0v500h157q48 0 84.5 -8.5t68.5 -29.5t49 -62t17 -101v-98q0 -60 -17 -101t-49 -62t-68.5 -29.5t-84.5 -8.5h-157zM199 465h-109v-430h109q22 0 34.5 0.5t36 3.5t38 9t33.5 18t29.5 29.5t18 44.5t7.5 61v98q0 34 -7.5 61t-18 44.5t-29.5 29.5t-33.5 18t-38 9t-36 3.5
t-34.5 0.5z" />
    <glyph glyph-name="E" unicode="E" horiz-adv-x="420" 
d="M55 0v500h320v-35h-285v-194h285v-35h-285v-201h285v-35h-320z" />
    <glyph glyph-name="F" unicode="F" horiz-adv-x="397" 
d="M55 0v500h317v-35h-282v-176h248v-35h-248v-254h-35z" />
    <glyph glyph-name="G" unicode="G" horiz-adv-x="482" 
d="M85 305v-109q0 -34 7.5 -61t18 -44.5t29 -29.5t33 -18t38 -9t36 -3.5t34.5 -0.5q66 0 122 15v175h-102v35h136v-233q-69 -27 -169 -27q-45 0 -79 7t-68 27t-52.5 62t-18.5 105v108q0 63 18.5 105t52.5 62t68.5 27t79.5 7q94 0 164 -27l-11 -31q-54 23 -144 23
q-22 0 -34.5 -0.5t-35.5 -3.5t-37 -9t-32.5 -18t-28.5 -29t-17.5 -44t-7.5 -61z" />
    <glyph glyph-name="H" unicode="H" horiz-adv-x="489" 
d="M399 0v238h-309v-238h-35v500h35v-227h309v227h35v-500h-35z" />
    <glyph glyph-name="I" unicode="I" horiz-adv-x="145" 
d="M55 0v500h35v-500h-35z" />
    <glyph glyph-name="J" unicode="J" horiz-adv-x="347" 
d="M262 152v348h35v-348q0 -50 -10 -82t-32 -48t-47.5 -21.5t-64.5 -5.5q-73 0 -128 18l11 36q49 -19 106 -19q24 0 37 1t34 7t31.5 18t19 36.5t8.5 59.5z" />
    <glyph glyph-name="K" unicode="K" horiz-adv-x="474" 
d="M414 0l-153 351l-171 -136v-215h-35v500h35v-241l303 241h47l-151 -130l164 -370h-39z" />
    <glyph glyph-name="L" unicode="L" horiz-adv-x="384" 
d="M55 0v500h35v-465h264v-35h-299z" />
    <glyph glyph-name="M" unicode="M" horiz-adv-x="590" 
d="M500 471l-182 -471h-46l-182 471v-471h-35v500h64l176 -465l176 465h64v-500h-35v471z" />
    <glyph glyph-name="N" unicode="N" horiz-adv-x="510" 
d="M397 0l-307 470v-470h-35v500h58l307 -470v470h35v-500h-58z" />
    <glyph glyph-name="O" unicode="O" horiz-adv-x="488" 
d="M244 470q-34 0 -57 -3t-49 -13t-39.5 -33t-13.5 -59v-201q0 -42 13.5 -69.5t38.5 -40t49.5 -17t57.5 -4.5t57.5 4.5t49.5 17t38.5 40t13.5 69.5v201q0 36 -13.5 59t-39.5 33t-49 13t-57 3zM244 -5q-194 0 -194 157v219q0 134 194 134t194 -134v-219q0 -157 -194 -157z
" />
    <glyph glyph-name="P" unicode="P" horiz-adv-x="433" 
d="M55 0v500h232q60 0 85.5 -38t25.5 -112q0 -156 -111 -156h-197v-194h-35zM90 465v-236h197q25 0 41 9.5t23 28t9.5 37t2.5 46.5q0 56 -14.5 85.5t-61.5 29.5h-197z" />
    <glyph glyph-name="Q" unicode="Q" horiz-adv-x="488" 
d="M438 152q0 -118 -108 -147q42 -33 108 -43v-36q-78 3 -140 72q-26 -3 -54 -3q-194 0 -194 157v219q0 134 194 134t194 -134v-219zM244 30q33 0 57.5 4.5t49.5 17t38.5 40t13.5 69.5v201q0 36 -13.5 59t-39.5 33t-49 13t-57 3t-57 -3t-49 -13t-39.5 -33t-13.5 -59v-201
q0 -42 13.5 -69.5t38.5 -40t49.5 -17t57.5 -4.5z" />
    <glyph glyph-name="R" unicode="R" horiz-adv-x="428" 
d="M55 0v500h231q61 0 87 -36.5t26 -113.5q0 -71 -21 -104.5t-72 -46.5q23 -45 45.5 -89.5t34.5 -68t22 -41.5h-38l-101 199h-179v-199h-35zM90 465v-231h196q48 0 63 29.5t15 86.5q0 56 -15 85.5t-63 29.5h-196z" />
    <glyph glyph-name="S" unicode="S" horiz-adv-x="432" 
d="M75 368q0 -30 32.5 -51.5t79.5 -35.5t93.5 -30t79 -44.5t32.5 -69.5q0 -142 -172 -142q-99 0 -171 44l20 30q61 -39 150 -39q67 0 102.5 24.5t35.5 82.5q0 31 -32.5 52.5t-79.5 35.5t-93.5 30t-79 44t-32.5 69q0 137 158 137q102 0 153 -19l-13 -33q-50 17 -141 17
q-122 0 -122 -102z" />
    <glyph glyph-name="T" unicode="T" horiz-adv-x="417" 
d="M389 500v-35h-165v-465h-35v465h-161v35h361z" />
    <glyph glyph-name="U" unicode="U" horiz-adv-x="488" 
d="M403 500h35v-348q0 -83 -48 -120t-146 -37t-146 37t-48 120v348h35v-344q0 -34 10 -58.5t24 -37t37 -20t42 -9t46 -1.5t46 1.5t42 9t37 20t24 37t10 58.5v344z" />
    <glyph glyph-name="V" unicode="V" horiz-adv-x="478" 
d="M216 0l-201 500h41l183 -465l183 465h41l-201 -500h-46z" />
    <glyph glyph-name="W" unicode="W" horiz-adv-x="576" 
d="M316 337l112 -302l95 465h38q-18 -92 -54 -262t-50 -238h-54l-115 309l-115 -309h-54q-14 68 -50 238t-54 262h38l95 -465l112 302h56z" />
    <glyph glyph-name="X" unicode="X" horiz-adv-x="442" 
d="M386 0l-165 230l-165 -230h-41q131 185 184 252q-43 54 -180 248h41l161 -225l161 225h41q-137 -194 -180 -248q53 -67 184 -252h-41z" />
    <glyph glyph-name="Y" unicode="Y" horiz-adv-x="439" 
d="M202 232l-187 268h39l165 -235l166 235h39l-187 -268v-232h-35v232z" />
    <glyph glyph-name="Z" unicode="Z" horiz-adv-x="433" 
d="M45 465v35h342v-35l-297 -430h298v-35h-343v35l300 430h-300z" />
    <glyph glyph-name="bracketleft" unicode="[" horiz-adv-x="194" 
d="M139 518h-49v-536h49v-35h-84v606h84v-35z" />
    <glyph glyph-name="backslash" unicode="\" horiz-adv-x="346" 
d="M65 553l251 -553h-35l-251 553h35z" />
    <glyph glyph-name="bracketright" unicode="]" horiz-adv-x="194" 
d="M104 518h-49v35h84v-606h-84v35h49v536z" />
    <glyph glyph-name="asciicircum" unicode="^" horiz-adv-x="354" 
d="M55 253l100 247h44l100 -247h-33q-14 39 -44.5 111t-44.5 108q-14 -36 -44.5 -108t-44.5 -111h-33z" />
    <glyph glyph-name="underscore" unicode="_" horiz-adv-x="361" 
d="M0 -50h361v-35h-361v35z" />
    <glyph glyph-name="grave" unicode="`" horiz-adv-x="181" 
d="M103 451l-46 87h40q6 -15 15 -44t14 -43h-23z" />
    <glyph glyph-name="a" unicode="a" horiz-adv-x="419" 
d="M193 30q58 0 97 24t39 56v22q0 20 -12.5 32.5t-37 17.5t-41.5 6t-45 1q-113 0 -113 -74q0 -26 2 -37.5t12 -25t34 -18t65 -4.5zM364 300v-300h-35v43q-33 -48 -137 -48q-50 0 -81.5 9.5t-45 29t-17 36t-3.5 43.5q0 56 39.5 83.5t107.5 27.5q86 0 137 -23v94q0 21 -6.5 35
t-16.5 22t-27 12t-31 5t-37 1t-37 -1t-31 -5t-27 -11.5t-16.5 -22t-6.5 -34.5h-35v4q0 56 37.5 80.5t115.5 24.5q79 0 116 -24.5t37 -80.5z" />
    <glyph glyph-name="b" unicode="b" horiz-adv-x="413" 
d="M90 538v-170q43 37 125 37q153 0 153 -105v-176q0 -129 -142 -129q-94 0 -136 48v-43h-35v538h35zM215 370q-99 0 -125 -48v-219q0 -29 38.5 -51t93.5 -22q62 0 86.5 25t24.5 79v159q0 47 -30.5 62t-87.5 15z" />
    <glyph glyph-name="c" unicode="c" horiz-adv-x="375" 
d="M45 155v90q0 50 15 83.5t42.5 49.5t54.5 21.5t62 5.5q75 0 131 -20l-8 -32q-43 17 -112 17q-26 0 -40 -1t-38 -7.5t-37.5 -18.5t-24 -37t-10.5 -61v-90q0 -36 10.5 -61t24 -37t37.5 -18.5t38 -7.5t40 -1q69 0 112 17l8 -32q-56 -20 -131 -20q-35 0 -62 5.5t-54.5 21.5
t-42.5 49.5t-15 83.5z" />
    <glyph glyph-name="d" unicode="d" horiz-adv-x="413" 
d="M323 368v170h35v-538h-35v43q-42 -48 -136 -48q-142 0 -142 129v176q0 105 153 105q82 0 125 -37zM198 370q-57 0 -87.5 -15t-30.5 -62v-159q0 -54 24.5 -79t86.5 -25q55 0 93.5 22t38.5 51v219q-26 48 -125 48z" />
    <glyph glyph-name="e" unicode="e" horiz-adv-x="405" 
d="M352 47l8 -33q-54 -19 -135 -19q-41 0 -69.5 5.5t-55.5 21.5t-41 49.5t-14 83.5v125q0 63 42 94t117 31q79 0 119 -32.5t40 -92.5v-86h-283v-39q0 -36 11 -61t25 -37t39 -18.5t40 -7.5t41 -1q70 0 116 17zM80 272v-43h248v43q0 50 -35 74t-89 24q-53 0 -88.5 -24
t-35.5 -74z" />
    <glyph glyph-name="f" unicode="f" horiz-adv-x="259" 
d="M187 515q-34 0 -44 -16.5t-10 -75.5v-23h117v-35h-117v-365h-35v365h-72v35h72v23q0 75 18.5 101t69.5 26q38 0 68 -14l-10 -30q-32 9 -57 9z" />
    <glyph glyph-name="g" unicode="g" horiz-adv-x="413" 
d="M198 30q99 0 125 48v219q0 29 -38.5 51t-93.5 22q-62 0 -86.5 -25t-24.5 -79v-159q0 -47 30.5 -62t87.5 -15zM323 -25v57q-43 -37 -125 -37q-153 0 -153 105v176q0 129 142 129q94 0 136 -48v43h35v-425q0 -51 -10.5 -84t-32.5 -49t-47.5 -21.5t-65.5 -5.5q-77 0 -131 19
l9 32q60 -16 112 -16q61 0 81 9q50 23 50 116z" />
    <glyph glyph-name="h" unicode="h" horiz-adv-x="417" 
d="M372 0h-35v266q0 51 -30.5 77.5t-83.5 26.5q-58 0 -95.5 -28.5t-37.5 -75.5v-266h-35v538h35v-186q36 53 137 53q145 0 145 -131v-274z" />
    <glyph glyph-name="i" unicode="i" horiz-adv-x="153" 
d="M59 0v400h35v-400h-35zM50 489q0 11 8 18.5t18 7.5t18 -7.5t8 -18.5t-8 -18.5t-18 -7.5t-18 7.5t-8 18.5z" />
    <glyph glyph-name="j" unicode="j" horiz-adv-x="136" 
d="M76 400h-35v-458q0 -48 -7.5 -70t-30.5 -22q-34 0 -60 18l-19 -27q28 -26 79 -26q25 0 40 8.5t22 28t9 38.5t2 52v458zM33 489q0 11 7.5 18.5t18.5 7.5t18.5 -7.5t7.5 -18.5t-7.5 -18.5t-18.5 -7.5t-18.5 7.5t-7.5 18.5z" />
    <glyph glyph-name="k" unicode="k" horiz-adv-x="399" 
d="M338 0l-144 260l-104 -91v-169h-35v538h35v-322l209 184h52l-130 -114l158 -286h-41z" />
    <glyph glyph-name="l" unicode="l" horiz-adv-x="145" 
d="M55 0v538h35v-538h-35z" />
    <glyph glyph-name="m" unicode="m" horiz-adv-x="598" 
d="M333 0h-35v268q0 54 -19 78t-71 24q-54 0 -86 -31t-32 -71v-268h-35v400h35v-52q6 16 20.5 27.5t29 17t32 8.5t24.5 3.5t12 0.5q76 0 112 -51q14 23 42 35.5t41 14t23 1.5q71 0 99 -33t28 -97v-275h-35v268q0 54 -20 78t-72 24q-60 0 -98 -47q5 -26 5 -55v-268z" />
    <glyph glyph-name="n" unicode="n" horiz-adv-x="417" 
d="M372 0h-35v266q0 51 -30.5 77.5t-83.5 26.5q-58 0 -95.5 -28.5t-37.5 -75.5v-266h-35v400h35v-48q36 53 137 53q145 0 145 -131v-274z" />
    <glyph glyph-name="o" unicode="o" horiz-adv-x="406" 
d="M80 295v-170q0 -50 34.5 -72.5t88.5 -22.5q123 0 123 95v170q0 25 -9.5 41t-29 23t-37.5 9t-47 2t-46.5 -2t-37.5 -8.5t-29.5 -23t-9.5 -41.5zM45 120v180q0 56 39.5 80.5t118.5 24.5t118.5 -24.5t39.5 -80.5v-180q0 -63 -41.5 -94t-116.5 -31q-78 0 -118 32.5t-40 92.5z
" />
    <glyph glyph-name="p" unicode="p" horiz-adv-x="413" 
d="M90 32v-217h-35v585h35v-43q42 48 136 48q142 0 142 -129v-176q0 -105 -153 -105q-82 0 -125 37zM215 30q57 0 87.5 15t30.5 62v159q0 54 -24.5 79t-86.5 25q-55 0 -93.5 -22t-38.5 -51v-219q26 -48 125 -48z" />
    <glyph glyph-name="q" unicode="q" horiz-adv-x="413" 
d="M323 -185v217q-43 -37 -125 -37q-153 0 -153 105v176q0 129 142 129q94 0 136 -48v43h35v-585h-35zM198 30q99 0 125 48v219q0 29 -38.5 51t-93.5 22q-62 0 -86.5 -25t-24.5 -79v-159q0 -47 30.5 -62t87.5 -15z" />
    <glyph glyph-name="r" unicode="r" horiz-adv-x="213" 
d="M206 405v-35q-51 -3 -83.5 -32t-32.5 -73v-270h-35v405h35v-48q7 10 15.5 17.5t16 13t17 9.5t15 6t15.5 3.5t13.5 2t13 1t10.5 0.5z" />
    <glyph glyph-name="s" unicode="s" horiz-adv-x="331" 
d="M60 297q0 -24 25.5 -41t61.5 -28.5t72 -24.5t61.5 -37t25.5 -59q0 -112 -135 -112q-103 0 -142 35l17 28q40 -28 123 -28q102 0 102 77q0 26 -25.5 43t-61.5 27.5t-72 22.5t-61.5 36.5t-25.5 60.5q0 108 126 108q78 0 123 -16q-3 -7 -10 -32q-46 13 -113 13
q-45 0 -68 -16t-23 -57z" />
    <glyph glyph-name="t" unicode="t" horiz-adv-x="237" 
d="M10 365v35h74v120h35v-120h96v-35h-96v-244q0 -25 1 -36t5.5 -25t15.5 -19.5t29 -5.5h43v-35h-43q-24 0 -41.5 8t-26 19t-13 30t-5 31t-0.5 33v244h-74z" />
    <glyph glyph-name="u" unicode="u" horiz-adv-x="427" 
d="M55 400h35v-266q0 -51 30.5 -77.5t83.5 -26.5q58 0 95.5 28.5t37.5 75.5v266h35v-400h-35v48q-36 -53 -137 -53q-145 0 -145 131v274z" />
    <glyph glyph-name="v" unicode="v" horiz-adv-x="386" 
d="M166 0l-156 400h40l143 -370l143 370h40l-156 -400h-54z" />
    <glyph glyph-name="w" unicode="w" horiz-adv-x="534" 
d="M239 342h56q14 -42 49 -150.5t52 -161.5l73 370h37l-79 -400h-57q-10 30 -49 150t-54 170q-15 -50 -54 -170t-49 -150h-57l-79 400h37l73 -370q17 53 52 161.5t49 150.5z" />
    <glyph glyph-name="x" unicode="x" horiz-adv-x="386" 
d="M319 0l-126 173l-126 -173h-41l143 201l-144 199h42l126 -174l126 174h42l-144 -199l143 -201h-41z" />
    <glyph glyph-name="y" unicode="y" horiz-adv-x="394" 
d="M110 -185l67 169l-162 416h39l143 -370l143 370h39l-227 -585h-42z" />
    <glyph glyph-name="z" unicode="z" horiz-adv-x="351" 
d="M35 365v35h280v-33l-233 -332h234v-35h-281v33l238 332h-238z" />
    <glyph glyph-name="braceleft" unicode="{" horiz-adv-x="254" 
d="M119 -7v138q0 44 -12.5 70t-51.5 33v31q23 1 37 7.5t19.5 20.5t6.5 25t1 33v156q0 46 33 46h47v-31h-14q-20 0 -25.5 -4t-5.5 -23v-129q0 -94 -32 -117q32 -23 32 -118v-126q0 -19 5.5 -23t25.5 -4h14v-31h-47q-33 0 -33 46z" />
    <glyph glyph-name="bar" unicode="|" horiz-adv-x="145" 
d="M55 -53v606h35v-606h-35z" />
    <glyph glyph-name="braceright" unicode="}" horiz-adv-x="254" 
d="M135 131v-138q0 -46 -33 -46h-47v31h14q20 0 25.5 4t5.5 23v126q0 95 32 118q-32 23 -32 117v129q0 19 -5.5 23t-25.5 4h-14v31h47q33 0 33 -46v-156q0 -22 1 -33t6.5 -25t19.5 -20.5t37 -7.5v-31q-39 -7 -51.5 -33t-12.5 -70z" />
    <glyph glyph-name="asciitilde" unicode="~" horiz-adv-x="459" 
d="M133 263q-35 0 -64 -23l-14 29q35 29 78 29q34 0 98 -28.5t96 -28.5q30 0 64 23q4 -7 15 -29q-34 -29 -79 -29q-28 0 -96.5 28.5t-97.5 28.5z" />
    <glyph glyph-name="uni00A0" unicode="&#xa0;" horiz-adv-x="452" 
 />
    <glyph glyph-name="onequarter" unicode="&#xbc;" horiz-adv-x="540" 
d="M118 0l240 500h35l-240 -500h-35zM47 459l81 41h28v-303h-28v273l-69 -37zM276 118l137 185h38v-185h42v-27h-42v-91h-28v91h-147v27zM312 118h111v152z" />
    <glyph glyph-name="onehalf" unicode="&#xbd;" horiz-adv-x="582" 
d="M118 0l240 500h35l-240 -500h-35zM47 459l81 41h28v-303h-28v273l-69 -37zM365 27h171v-27h-201v27q0 31 26 59.5t56.5 46t56.5 38.5t26 38v24q0 48 -67 48q-76 0 -76 -48v-8h-28v8q0 36 29 55.5t75 19.5q45 0 70 -19.5t25 -55.5v-24q0 -26 -25.5 -50.5t-56 -41t-56 -41
t-25.5 -49.5z" />
    <glyph glyph-name="threequarters" unicode="&#xbe;" horiz-adv-x="610" 
d="M188 0l240 500h35l-240 -500h-35zM346 118l137 185h38v-185h42v-27h-42v-91h-28v91h-147v27zM382 118h111v152zM132 338v27h31q24 0 44 13t20 35v18q0 17 -7 27t-20.5 14t-23 5t-25.5 1q-21 0 -34 -1.5t-27.5 -12.5t-14.5 -33v-9h-28v9q0 74 104 74t104 -74v-18
q0 -37 -33 -60q33 -21 33 -53v-17q0 -41 -26.5 -63.5t-77.5 -22.5q-104 0 -104 86v6h28v-6q0 -59 76 -59t76 59v17q0 20 -19.5 29t-44.5 9h-31z" />
    <glyph glyph-name="questiondown" unicode="&#xbf;" horiz-adv-x="355" 
d="M224 307v-120q0 -36 -21 -62t-46 -39t-46 -35t-21 -50q0 -71 105 -71q67 0 95 10l10 -30q-33 -15 -106 -15q-72 0 -105.5 26.5t-33.5 79.5q0 28 13 49.5t32 35t38 26t34 31.5t17 44v120h35zM232 379q0 -11 -8 -18.5t-18 -7.5t-18 7.5t-8 18.5t8 18.5t18 7.5t18 -7.5
t8 -18.5z" />
    <glyph glyph-name="nptp3.001march2007p" unicode="&#xdb;" 
 />
    <glyph glyph-name="nptp3.001march2007p" unicode="&#xe3b;" 
 />
    <glyph glyph-name="nptp3.001march2007u" unicode="&#xdc;" 
 />
    <glyph glyph-name="nptp3.001march2007u" unicode="&#xe3c;" 
 />
    <glyph glyph-name="nptp3.001march2007c" unicode="&#xdd;" 
 />
    <glyph glyph-name="nptp3.001march2007c" unicode="&#xe3d;" 
 />
    <glyph glyph-name="Naipol" unicode="&#xff;" horiz-adv-x="948" 
 />
    <glyph glyph-name="kokaithai" unicode="&#xe01;" horiz-adv-x="395" 
d="M79 323v-323h-35v337q50 68 148 68q43 0 74.5 -12t46.5 -27.5t23.5 -36t10 -30t1.5 -16.5v-283h-35v278q0 26 -12 45t-26.5 27.5t-35 13.5t-29.5 5.5t-18 0.5q-80 0 -113 -47z" />
    <glyph glyph-name="khokhaithai" unicode="&#xe02;" horiz-adv-x="350" 
d="M173 30q64 1 81.5 23.5t17.5 73.5v273h35v-276q0 -65 -28 -97t-106 -32q-46 0 -75 11.5t-41 33.5t-15.5 41t-3.5 48v36q0 32 28.5 75.5t28.5 72.5q0 38 -5 44.5t-33 7.5h-19v35h13q58 0 68.5 -11t10.5 -76q0 -38 -28.5 -83.5t-28.5 -64.5v-32q0 -25 2.5 -40.5t12 -31.5
t30.5 -23.5t55 -7.5z" />
    <glyph glyph-name="khokhuatthai" unicode="&#xe03;" horiz-adv-x="355" 
d="M100 313q0 29 -2 39.5t-11 15.5l-40 -31l-42 43l21 20l23 -24l29 24q40 0 48.5 -15t8.5 -72q0 -38 -28.5 -83.5t-28.5 -64.5v-32q0 -26 2.5 -41t12 -31t30.5 -23.5t55 -7.5q64 0 81.5 23t17.5 74v273h35v-276q0 -65 -28 -97t-106 -32q-46 0 -75 11.5t-41 33.5t-15.5 41
t-3.5 48v36q0 32 28.5 75.5t28.5 72.5z" />
    <glyph glyph-name="khokhwaithai" unicode="&#xe04;" horiz-adv-x="406" 
d="M200 405q81 0 120 -27.5t39 -92.5v-285h-35v292q0 33 -19.5 51.5t-43.5 22.5t-61 4q-38 0 -62 -4t-43.5 -22.5t-19.5 -51.5v-100q36 22 99 22h31v-36h-31q-79 0 -99 -29v-149h-35v285q0 65 39.5 92.5t120.5 27.5z" />
    <glyph glyph-name="khokhonthai" unicode="&#xe05;" horiz-adv-x="410" 
d="M40 0v290q0 94 89 114l73 -33l72 34q40 -10 64.5 -39.5t24.5 -75.5v-290h-35v292q0 28 -15 49.5t-40 29.5q-4 -1 -71 -34l-73 33q-54 -16 -54 -78v-100q36 22 99 22h31v-36h-31q-79 0 -99 -29v-149h-35z" />
    <glyph glyph-name="khorakhangthai" unicode="&#xe06;" horiz-adv-x="399" 
d="M38 0v165q0 32 28.5 75.5t28.5 72.5t-2 39.5t-11 15.5l-40 -31l-42 43l21 20l23 -24l29 24q40 0 48.5 -15t8.5 -72q0 -38 -28.5 -83.5t-28.5 -64.5v-31q0 -47 37.5 -75.5t94.5 -28.5q52 0 82 26.5t30 77.5v266h35v-276q0 -129 -143 -129q-85 0 -136 53v-48h-35z" />
    <glyph glyph-name="ngonguthai" unicode="&#xe07;" horiz-adv-x="275" 
d="M141 365v35h87v-307q0 -98 -115 -98q-74 0 -108 32l20 29q36 -26 88 -26q80 0 80 72v263h-52z" />
    <glyph glyph-name="chochanthai" unicode="&#xe08;" horiz-adv-x="371" 
d="M296 105v190q0 25 -9 41t-27.5 23t-36 9t-45.5 2q-29 0 -46.5 -2t-37 -9t-28.5 -23t-9 -41v-4h-35v9q0 56 38.5 80.5t117.5 24.5q78 0 115.5 -24.5t37.5 -80.5v-193q0 -107 -96 -107h-95l-27 148h-43v35h75l25 -148h66q26 2 39 12t16 21.5t5 36.5z" />
    <glyph glyph-name="chochingthai" unicode="&#xe09;" horiz-adv-x="391" 
d="M309 128v167q0 21 -6.5 35t-16.5 22t-27 12t-31 5t-37 1q-29 0 -46 -2t-36 -8.5t-28 -22.5t-9 -41h-35v4q0 56 37.5 80.5t116.5 24.5t116 -24.5t37 -80.5v-300h-35v48q-25 -53 -124 -53q-71 0 -95.5 32t-24.5 97v24h-30v35h65v-55q0 -53 18.5 -75.5t71.5 -22.5
q57 0 88 25t31 73z" />
    <glyph glyph-name="chochangthai" unicode="&#xe0a;" horiz-adv-x="355" 
d="M38 129v37q0 32 28.5 75.5t28.5 72.5q0 38 -5 44.5t-33 7.5h-19v35h13q58 0 68.5 -11t10.5 -76q0 -38 -28.5 -83.5t-28.5 -64.5v-33q0 -26 2.5 -41t11.5 -31t30 -23.5t55 -7.5q65 0 82.5 23t17.5 74v99q0 63 -76 72v35q34 2 57 19.5t23 47.5h36q0 -20 -2 -30t-15.5 -25.5
t-40.5 -28.5q24 -9 37 -26.5t14.5 -30t1.5 -33.5v-102q0 -65 -28 -97t-107 -32q-45 0 -74 11.5t-41 33.5t-15.5 41t-3.5 48z" />
    <glyph glyph-name="sosothai" unicode="&#xe0b;" horiz-adv-x="360" 
d="M43 129v36q0 32 28.5 75.5t28.5 72.5t-2 39.5t-11 15.5l-40 -31l-42 43l21 20l23 -24l29 24q40 0 48.5 -15t8.5 -72q0 -38 -28.5 -83.5t-28.5 -64.5v-32q0 -26 2.5 -41t11.5 -31t30 -23.5t55 -7.5q65 0 82.5 23t17.5 74v99q0 63 -76 72v35q34 2 57 19.5t23 47.5h36
q0 -20 -2 -30t-15.5 -25.5t-40.5 -28.5q24 -9 37 -26.5t14.5 -30t1.5 -33.5v-102q0 -65 -28 -97t-107 -32q-45 0 -74 11.5t-41 33.5t-15.5 41t-3.5 48z" />
    <glyph glyph-name="chochoethai" unicode="&#xe0c;" horiz-adv-x="636" 
d="M313 0v278q0 26 -12 45t-26.5 27.5t-35 13.5t-29.5 5.5t-18 0.5q-80 0 -113 -47v-288h45v-35h-80v337q50 68 148 68q43 0 74.5 -12t46.5 -27.5t23.5 -36t10 -30t1.5 -16.5v-136q0 -51 28 -84t83 -33q52 0 73.5 24.5t21.5 76.5v269h35v-276q0 -62 -29.5 -95.5
t-100.5 -33.5q-9 0 -23.5 1.5t-44 14.5t-43.5 37v-48h-35z" />
    <glyph glyph-name="yoyingthai" unicode="&#xe0d;" horiz-adv-x="636" 
d="M554 2v46q-14 -24 -43.5 -37t-44 -14.5t-23.5 -1.5q-71 0 -100.5 33.5t-29.5 95.5v154q0 26 -12 45t-26.5 27.5t-35 13.5t-29.5 5.5t-18 0.5q-80 0 -113 -47v-288h45v-35h-80v337q50 68 148 68q43 0 74.5 -12t46.5 -27.5t23.5 -36t10 -30t1.5 -16.5v-152
q0 -52 21.5 -76.5t73.5 -24.5q55 0 83 33t28 84v253h35v-397q0 -64 -34 -89t-108 -25q-45 0 -91 7l8 33q32 -5 83 -5q56 0 81.5 14.5t25.5 63.5z" />
    <glyph glyph-name="dochadathai" unicode="&#xe0e;" horiz-adv-x="409" 
d="M327 -68v346q0 26 -12 45t-26.5 27.5t-35 13.5t-29.5 5.5t-18 0.5q-80 0 -113 -47v-323h-78v35h43v302q50 68 148 68q43 0 74.5 -12t46.5 -27.5t23.5 -36t10 -30t1.5 -16.5v-355q0 -11 -1.5 -22.5t-9.5 -31t-22 -34t-42.5 -25.5t-66.5 -11h-158v35h159q10 0 16.5 0.5
t25.5 5t31 13t22.5 28t10.5 46.5z" />
    <glyph glyph-name="topatakthai" unicode="&#xe0f;" horiz-adv-x="409" 
d="M327 -97v375q0 26 -12 45t-26.5 27.5t-35 13.5t-29.5 5.5t-18 0.5q-80 0 -113 -47v-323h-78v35h43v302q50 68 148 68q43 0 74.5 -12t46.5 -27.5t23.5 -36t10 -30t1.5 -16.5v-377q0 -45 -21 -69t-64 -33l-67 28l-69 -28h-79v35h85l63 27l64 -27q22 2 37.5 19t15.5 45z" />
    <glyph glyph-name="thothanthai" unicode="&#xe10;" horiz-adv-x="371" 
d="M296 -20h35q0 -47 -21 -62.5t-66 -15.5h-154v35h154q15 0 22 1t15.5 4.5t11.5 12.5t3 25zM296 105v190q0 25 -9 41t-27.5 23t-36 9t-45.5 2q-29 0 -46.5 -2t-37 -9t-28.5 -23t-9 -41v-4h-35v9q0 56 38.5 80.5t117.5 24.5q14 0 38 -2l101 39l14 -30l-56 -22q56 -23 56 -90
v-193q0 -107 -96 -107h-95l-27 148h-43v35h75l25 -148h66q26 2 39 12t16 21.5t5 36.5z" />
    <glyph glyph-name="thonangmonthothai" unicode="&#xe11;" horiz-adv-x="409" 
d="M246 405q70 0 93 -31.5t23 -97.5v-276h-35v276q0 53 -19 73.5t-72 20.5q-63 0 -107.5 -55.5t-44.5 -158.5v-156h-35v156q0 88 34 153q0 30 -2 42t-11 17l-40 -31l-42 43l21 20l23 -24l29 24q34 0 44.5 -10t12.5 -40q22 25 48.5 38t41 15t38.5 2z" />
    <glyph glyph-name="thophuthaothai" unicode="&#xe12;" horiz-adv-x="651" 
d="M363 290v-143q0 -51 28 -84t83 -33q52 0 73.5 24.5t21.5 76.5v269h35v-276q0 -62 -29.5 -95.5t-100.5 -33.5q-9 0 -23.5 1.5t-44 14.5t-43.5 37v-48h-35v292q0 28 -15 49.5t-40 29.5q-4 -1 -71 -34l-73 33q-54 -16 -54 -78v-165q0 -26 1 -38t5.5 -27t16 -21t30.5 -6h25
v-35h-25q-31 0 -50 11t-26.5 33t-9.5 38.5t-2 44.5v163q0 94 89 114l73 -33l72 34q40 -10 64.5 -39.5t24.5 -75.5z" />
    <glyph glyph-name="nonenthai" unicode="&#xe13;" horiz-adv-x="636" 
d="M348 283v-152q0 -52 21.5 -76.5t73.5 -24.5q55 0 83 33t28 84v253h35v-122v-278h-35v48q-14 -24 -43.5 -37t-44 -14.5t-23.5 -1.5q-71 0 -100.5 33.5t-29.5 95.5v154q0 26 -12 45t-26.5 27.5t-35 13.5t-29.5 5.5t-18 0.5q-80 0 -113 -47v-288h45v-35h-80v337
q50 68 148 68q43 0 74.5 -12t46.5 -27.5t23.5 -36t10 -30t1.5 -16.5z" />
    <glyph glyph-name="dodekthai" unicode="&#xe14;" horiz-adv-x="406" 
d="M40 123v162q0 64 39.5 92t120.5 28q80 0 119.5 -28t39.5 -92v-285h-35v293q0 33 -20 51t-43.5 22t-60.5 4q-38 0 -62 -4t-43.5 -22t-19.5 -51v-164q0 -26 1 -38t5.5 -27.5t15.5 -22t30 -6.5h24v-35h-24q-30 0 -49 11t-26.5 32t-9.5 37.5t-2 42.5z" />
    <glyph glyph-name="totaothai" unicode="&#xe15;" horiz-adv-x="410" 
d="M129 404l73 -33l72 34q40 -10 64.5 -39.5t24.5 -75.5v-290h-35v292q0 28 -15 49.5t-40 29.5q-4 -1 -71 -34l-73 33q-54 -16 -54 -78v-165q0 -26 1 -38t5.5 -27t16 -21t30.5 -6h25v-35h-25q-31 0 -50 11t-26.5 33t-9.5 38.5t-2 44.5v163q0 94 89 114z" />
    <glyph glyph-name="thothungthai" unicode="&#xe16;" horiz-adv-x="395" 
d="M79 35h45v-35h-80v337q50 68 148 68q43 0 74.5 -12t46.5 -27.5t23.5 -36t10 -30t1.5 -16.5v-283h-35v278q0 26 -12 45t-26.5 27.5t-35 13.5t-29.5 5.5t-18 0.5q-80 0 -113 -47v-288z" />
    <glyph glyph-name="thothahanthai" unicode="&#xe17;" horiz-adv-x="408" 
d="M361 0h-35v266q0 51 -30 77.5t-82 26.5q-57 0 -94.5 -28.5t-37.5 -75.5v-266h-35v400h35v-48q51 53 136 53q143 0 143 -129v-276z" />
    <glyph glyph-name="thothongthai" unicode="&#xe18;" horiz-adv-x="336" 
d="M160 405q80 0 131 -16q-2 -5 -5.5 -16t-5.5 -15q-50 12 -120 12q-48 0 -70.5 -11.5t-22.5 -53.5q0 -28 38 -45.5t84 -25.5t84 -30t38 -59v-54q0 -96 -130 -96q-102 0 -151 41v116h35v-98q52 -24 115 -24q32 0 50 3t32 18.5t14 44.5v54q0 21 -38 35.5t-84 23t-84 33
t-38 63.5q0 32 10.5 52.5t30.5 30.5t40 13.5t47 3.5z" />
    <glyph glyph-name="nonuthai" unicode="&#xe19;" horiz-adv-x="401" 
d="M40 400h35v-266q0 -51 30 -77.5t82 -26.5q57 0 94.5 28.5t37.5 75.5v266h35v-400h-35v48q-51 -53 -136 -53q-143 0 -143 129v276z" />
    <glyph glyph-name="bobaimaithai" unicode="&#xe1a;" horiz-adv-x="392" 
d="M310 400h35v-277q0 -24 -3.5 -40.5t-16.5 -39.5t-47 -35.5t-87 -12.5t-87.5 12.5t-48 35.5t-17 39.5t-3.5 40.5v277h35v-273q0 -97 121 -97q30 0 47.5 2.5t36 11.5t27 29.5t8.5 53.5v273z" />
    <glyph glyph-name="poplathai" unicode="&#xe1b;" horiz-adv-x="392" 
d="M310 530h35v-407q0 -24 -3.5 -40.5t-16.5 -39.5t-47 -35.5t-87 -12.5t-87.5 12.5t-48 35.5t-17 39.5t-3.5 40.5v277h35v-273q0 -97 121 -97q30 0 47.5 2.5t36 11.5t27 29.5t8.5 53.5v403z" />
    <glyph glyph-name="phophungthai" unicode="&#xe1c;" horiz-adv-x="483" 
d="M82 365v-265q0 -41 17.5 -55.5t54.5 -14.5q70 0 70 70v158h36v-158q0 -70 70 -70q37 0 54 12.5t17 53.5v304h35v-304q0 -34 -9 -55.5t-26 -31t-32 -12t-38 -2.5q-7 0 -18.5 1t-35.5 11t-36 28q-11 -18 -33 -28t-38 -11l-17 -1q-23 0 -38.5 2.5t-33 12t-26 31t-8.5 55.5
v304h105v-35h-70z" />
    <glyph glyph-name="fofathai" unicode="&#xe1d;" horiz-adv-x="483" 
d="M82 365v-265q0 -41 17.5 -55.5t54.5 -14.5q70 0 70 70v158h36v-158q0 -70 70 -70q37 0 54 12.5t17 53.5v434h35v-434q0 -34 -9 -55.5t-26 -31t-32 -12t-38 -2.5q-7 0 -18.5 1t-35.5 11t-36 28q-11 -18 -33 -28t-38 -11l-17 -1q-23 0 -38.5 2.5t-33 12t-26 31t-8.5 55.5
v304h105v-35h-70z" />
    <glyph glyph-name="phophanthai" unicode="&#xe1e;" horiz-adv-x="483" 
d="M401 400h35v-304q0 -34 -9 -55.5t-26 -31t-32 -12t-38 -2.5q-7 0 -18.5 1t-35.5 11t-36 28q-11 -18 -33 -28t-38 -11l-17 -1q-23 0 -38.5 2.5t-33 12t-26 31t-8.5 55.5v304h35v-300q0 -41 17.5 -55.5t54.5 -14.5q70 0 70 70v261h36v-261q0 -70 70 -70q37 0 54 12.5
t17 53.5v304z" />
    <glyph glyph-name="fofanthai" unicode="&#xe1f;" horiz-adv-x="483" 
d="M401 530h35v-434q0 -34 -9 -55.5t-26 -31t-32 -12t-38 -2.5q-7 0 -18.5 1t-35.5 11t-36 28q-11 -18 -33 -28t-38 -11l-17 -1q-23 0 -38.5 2.5t-33 12t-26 31t-8.5 55.5v304h35v-300q0 -41 17.5 -55.5t54.5 -14.5q70 0 70 70v261h36v-261q0 -70 70 -70q37 0 54 12.5
t17 53.5v434z" />
    <glyph glyph-name="phosamphaothai" unicode="&#xe20;" horiz-adv-x="409" 
d="M58 35v302q50 68 148 68q43 0 74.5 -12t46.5 -27.5t23.5 -36t10 -30t1.5 -16.5v-283h-35v278q0 26 -12 45t-26.5 27.5t-35 13.5t-29.5 5.5t-18 0.5q-80 0 -113 -47v-323h-78v35h43z" />
    <glyph glyph-name="momathai" unicode="&#xe21;" horiz-adv-x="408" 
d="M326 400h35v-276q0 -129 -143 -129q-85 0 -136 53v-48h-35v400h35v-266q0 -47 37.5 -75.5t94.5 -28.5q52 0 82 26.5t30 77.5v266z" />
    <glyph glyph-name="yoyakthai" unicode="&#xe22;" horiz-adv-x="408" 
d="M326 400h35v-298q0 -49 -27 -78t-79 -29h-108q-66 0 -87.5 29.5t-21.5 87.5q0 16 1 26t6.5 26t19.5 27t36 17q-32 7 -48.5 27t-18.5 33.5t-2 33.5q0 98 91 98h68v-35h-28q-31 0 -44.5 -1t-28 -7t-19 -19t-4.5 -36q0 -39 26 -57t65 -18h33v-35h-30q-41 0 -64.5 -21
t-23.5 -59q0 -41 15 -61.5t64 -20.5h103q37 2 52.5 19t18.5 51v300z" />
    <glyph glyph-name="roruathai" unicode="&#xe23;" horiz-adv-x="318" 
d="M62 297q0 -26 23.5 -43.5t56.5 -28t66 -22.5t56.5 -36t23.5 -60q0 -112 -137 -112q-93 0 -131 35q3 3 10 15t10 16q41 -31 110 -31q103 0 103 77q0 27 -23.5 44.5t-56.5 27.5t-66 21.5t-56.5 35.5t-23.5 61q0 108 124 108q71 0 113 -15l-10 -33q-38 13 -103 13
q-44 0 -66.5 -16t-22.5 -57z" />
    <glyph glyph-name="ruthai" unicode="&#xe24;" horiz-adv-x="395" 
d="M79 35h45v-35h-80v337q50 68 148 68q43 0 74.5 -12t46.5 -27.5t23.5 -36t10 -30t1.5 -16.5v-479h-35v474q0 26 -12 45t-26.5 27.5t-35 13.5t-29.5 5.5t-18 0.5q-80 0 -113 -47v-288z" />
    <glyph glyph-name="lolingthai" unicode="&#xe25;" horiz-adv-x="389" 
d="M307 202v93q0 21 -6.5 35t-16.5 22t-27 12t-31 5t-37 1q-29 0 -46 -2t-36 -8.5t-28 -22.5t-9 -41h-35v4q0 56 37.5 80.5t116.5 24.5t116 -24.5t37 -80.5v-300h-35v132q0 20 -12.5 32.5t-37.5 17.5t-41.5 6t-45.5 1q-49 0 -77 -15.5t-28 -58.5q0 -55 12 -67.5t75 -12.5
v-35h-24q-36 0 -56.5 7t-29.5 25t-10.5 33t-1.5 48q0 111 139 111q93 0 138 -22z" />
    <glyph glyph-name="luthai" unicode="&#xe26;" horiz-adv-x="409" 
d="M58 35v302q50 68 148 68q43 0 74.5 -12t46.5 -27.5t23.5 -36t10 -30t1.5 -16.5v-479h-35v474q0 26 -12 45t-26.5 27.5t-35 13.5t-29.5 5.5t-18 0.5q-80 0 -113 -47v-323h-78v35h43z" />
    <glyph glyph-name="wowaenthai" unicode="&#xe27;" horiz-adv-x="344" 
d="M262 108v187q0 49 -25 62t-83 13q-56 0 -77.5 -12.5t-21.5 -61.5h-35v4q0 57 30 81t104 24q76 0 109.5 -24t33.5 -81v-182q0 -76 -29.5 -99.5t-104.5 -23.5q-54 0 -83 9q1 3 3 10t4 13t4 10q29 -7 72 -7q56 0 77.5 14t21.5 64z" />
    <glyph glyph-name="sosalathai" unicode="&#xe28;" horiz-adv-x="407" 
d="M200 405q17 0 45 -2l101 39l14 -30l-60 -23q59 -27 59 -104v-285h-35v292q0 33 -19.5 51.5t-43.5 22.5t-61 4q-38 0 -62 -4t-43.5 -22.5t-19.5 -51.5v-100q36 22 99 22h31v-36h-31q-79 0 -99 -29v-149h-35v285q0 65 39.5 92.5t120.5 27.5z" />
    <glyph glyph-name="sorusithai" unicode="&#xe29;" horiz-adv-x="401" 
d="M381 241v-35h-36v-83q0 -24 -3.5 -40.5t-16.5 -39.5t-47 -35.5t-87 -12.5t-87.5 12.5t-48 35.5t-17 39.5t-3.5 40.5v277h35v-273q0 -97 121 -97q30 0 47.5 2.5t36 11.5t27 29.5t8.5 53.5v79h-1h-126v68h35v-33h91h1v159h35v-159h36z" />
    <glyph glyph-name="sosuathai" unicode="&#xe2a;" horiz-adv-x="390" 
d="M30 113q0 111 139 111q93 0 138 -22v93q0 21 -6.5 35t-16.5 22t-27 12t-31 5t-37 1q-29 0 -46 -2t-36 -8.5t-28 -22.5t-9 -41h-35v4q0 56 37.5 80.5t116.5 24.5q15 0 39 -2l101 39l14 -30l-57 -22q56 -22 56 -90v-300h-35v132q0 20 -12.5 32.5t-37.5 17.5t-41.5 6
t-45.5 1q-49 0 -77 -15.5t-28 -58.5q0 -55 12 -67.5t75 -12.5v-35h-24q-36 0 -56.5 7t-29.5 25t-10.5 33t-1.5 48z" />
    <glyph glyph-name="hohipthai" unicode="&#xe2b;" horiz-adv-x="401" 
d="M47 0v400h35v-109h179q58 9 58 70v39h35v-39q0 -34 -9.5 -51.5t-32.5 -35.5q42 -40 42 -106v-168h-35v163q0 36 -14 64.5t-48 28.5h-175v-256h-35z" />
    <glyph glyph-name="lochulathai" unicode="&#xe2c;" horiz-adv-x="488" 
d="M401 96v280q0 63 -76 72v35q34 2 57 19.5t23 47.5h36q0 -20 -2 -30t-15.5 -25.5t-40.5 -28.5q24 -9 37 -26.5t14.5 -30t1.5 -33.5v-280q0 -34 -9 -55.5t-26 -31t-32 -12t-38 -2.5q-7 0 -18.5 1t-35.5 11t-36 28q-11 -18 -33 -28t-38 -11l-17 -1q-23 0 -38.5 2.5t-33 12
t-26 31t-8.5 55.5v304h35v-300q0 -41 17.5 -55.5t54.5 -14.5q70 0 70 70v261h36v-261q0 -70 70 -70q37 0 54 12.5t17 53.5z" />
    <glyph glyph-name="oangthai" unicode="&#xe2d;" horiz-adv-x="385" 
d="M345 300v-180q0 -125 -153 -125q-155 0 -155 125v85h88v-35h-53v-46q0 -94 120 -94q118 0 118 94v173q0 45 -30.5 59t-87.5 14q-27 0 -45.5 -2.5t-37 -9.5t-28 -22t-9.5 -39v-10h-35v13q0 105 155 105q153 0 153 -105z" />
    <glyph glyph-name="honokhukthai" unicode="&#xe2e;" horiz-adv-x="385" 
d="M287 389q58 -24 58 -89v-180q0 -125 -153 -125q-155 0 -155 125v85h88v-35h-53v-46q0 -94 120 -94q118 0 118 94v173q0 45 -30.5 59t-87.5 14q-27 0 -45.5 -2.5t-37 -9.5t-28 -22t-9.5 -39v-10h-35v13q0 105 155 105q14 0 38 -2l101 39l14 -30z" />
    <glyph glyph-name="paiyannoithai" unicode="&#xe2f;" horiz-adv-x="333" 
d="M251 -66v350q-22 -30 -101 -30q-77 0 -106 35.5t-29 101.5v9h35v-10q0 -26 2.5 -41.5t12 -30.5t30.5 -22t55 -7q35 0 56.5 7.5t30.5 24.5t11.5 32.5t2.5 41.5v5h35v-466h-35z" />
    <glyph glyph-name="saraathai" unicode="&#xe30;" horiz-adv-x="215" 
d="M45 328h35v-32h91v-35h-115q-11 0 -11 15v52zM45 147h35v-32h91v-35h-115q-11 0 -11 15v52z" />
    <glyph glyph-name="maihanakatthai" unicode="&#xe31;" 
d="M15 485h-253v71h35v-36h218v-35z" />
    <glyph glyph-name="saraaathai" unicode="&#xe32;" horiz-adv-x="281" 
d="M234 0h-35v285q0 28 -9 46.5t-25.5 26t-31 10t-34.5 2.5q-56 0 -85 -14l-14 27q32 22 99 22q65 0 100 -26.5t35 -93.5v-285z" />
    <glyph glyph-name="saraamthai" unicode="&#xe33;" horiz-adv-x="281" 
d="M234 0h-35v285q0 28 -9 46.5t-25.5 26t-31 10t-34.5 2.5q-56 0 -85 -14l-14 27q32 22 99 22q65 0 100 -26.5t35 -93.5v-285zM-122 573q24 0 40.5 -17t16.5 -40t-16.5 -39.5t-40.5 -16.5q-23 0 -39 16.5t-16 39.5t16.5 40t38.5 17zM-122 489q12 0 20 8t8 19t-8 19.5
t-20 8.5q-10 0 -18 -8.5t-8 -19.5t8 -19t18 -8z" />
    <glyph glyph-name="saraithai" unicode="&#xe34;" 
d="M-340 485v35h293v-35h-293z" />
    <glyph glyph-name="saraiithai" unicode="&#xe35;" 
d="M-47 485h-293v35h258v36h35v-71z" />
    <glyph glyph-name="sarauethai" unicode="&#xe36;" 
d="M-95 581q19 0 33.5 -14.5t14.5 -33.5t-14.5 -33.5t-33.5 -14.5h-245v35h199q-2 8 -2 13q0 19 14.5 33.5t33.5 14.5zM-95 515q7 0 13 5.5t6 12.5t-6 13t-13 6t-12.5 -6t-5.5 -13t5.5 -12.5t12.5 -5.5z" />
    <glyph glyph-name="saraueethai" unicode="&#xe37;" 
d="M-47 485h-293v35h187v36h35v-36h36v36h35v-71z" />
    <glyph glyph-name="sarauthai" unicode="&#xe38;" 
d="M-47 -166h-35v66h-34v35h69v-101z" />
    <glyph glyph-name="sarauuthai" unicode="&#xe39;" 
d="M-47 -65v-33q0 -59 -13.5 -73t-63.5 -14t-64 14t-14 71h-25v35h60v-38q0 -37 5.5 -44t37.5 -7q31 0 36.5 7t5.5 44v38h35z" />
    <glyph glyph-name="phinthuthai" unicode="&#xe3a;" 
d="M-69 -65q8 0 15 -6.5t7 -15.5q0 -7 -7 -13.5t-15 -6.5t-14.5 6.5t-6.5 13.5q0 9 6.5 15.5t14.5 6.5z" />
    <glyph glyph-name="nptp3.001march2007r" unicode="&#xe3e;" 
 />
    <glyph glyph-name="bahtthai" unicode="&#xe3f;" horiz-adv-x="465" 
d="M415 365q0 -76 -39 -116q39 -40 39 -115q0 -74 -25.5 -104t-86.5 -30h-50v-55h-35v55h-163v500h163v60h35v-60h50q61 0 86.5 -30.5t25.5 -104.5zM303 465h-50v-197h50q49 0 63 22t14 75q0 54 -14 77t-63 23zM90 465v-197h128v197h-128zM90 35h128v197h-128v-197zM380 134
q0 50 -13 74t-56 24h-58v-197h50q49 0 63 22.5t14 76.5z" />
    <glyph glyph-name="saraethai" unicode="&#xe40;" horiz-adv-x="129" 
d="M47 0v400h35v-400h-35z" />
    <glyph glyph-name="saraaethai" unicode="&#xe41;" horiz-adv-x="262" 
d="M50 0v400h35v-400h-35zM180 0v400h35v-400h-35z" />
    <glyph glyph-name="saraothai" unicode="&#xe42;" horiz-adv-x="171" 
d="M69 0v404q0 22 -34.5 66t-34.5 76q0 16 1.5 25.5t8 22.5t23.5 20t43 7h139v-35h-139q-19 0 -28.5 -6t-11 -14t-1.5 -25t34.5 -61.5t34.5 -75.5v-404h-35z" />
    <glyph glyph-name="saraaimaimuanthai" unicode="&#xe43;" horiz-adv-x="152" 
d="M139 544q0 -28 -20 -76t-20 -75v-393h-35v393q0 33 20 77.5t20 75.5q0 40 -61 40q-34 0 -62 -21l-18 27q27 29 80 29q96 0 96 -77z" />
    <glyph glyph-name="saraaimaimalaithai" unicode="&#xe44;" horiz-adv-x="169" 
d="M114 404v-404h-35v404q0 31 34.5 75.5t34.5 61.5t-1.5 25t-11 14t-28.5 6h-139v35h139q26 0 43 -7t23.5 -20t8 -22.5t1.5 -25.5q0 -32 -34.5 -76t-34.5 -66z" />
    <glyph glyph-name="lakkhangyaothai" unicode="&#xe45;" horiz-adv-x="281" 
d="M234 -196h-35v481q0 28 -9 46.5t-25.5 26t-31 10t-34.5 2.5q-56 0 -85 -14l-14 27q32 22 99 22q65 0 100 -26.5t35 -93.5v-481z" />
    <glyph glyph-name="maiyamokthai" unicode="&#xe46;" horiz-adv-x="356" 
d="M39 236v54q0 54 18 80t58 35l57 -25l56 25q43 -9 62 -35t19 -80v-355h-35v363q0 56 -48 72l-55 -26l-52 26q-28 -8 -36.5 -24t-8.5 -48v-27h53v-35h-88z" />
    <glyph glyph-name="maitaikhuthai" unicode="&#xe47;" 
d="M-249 571v-8q0 -20 7.5 -30t15 -11.5t21.5 -1.5l43 24l46 -25q34 11 34 40h35q0 -33 -16.5 -49.5t-49.5 -24.5l-49 26l-48 -26q-17 2 -28.5 5.5t-23 11.5t-17 24t-5.5 40q0 41 16.5 55.5t53.5 14.5h195v-35h-189q-17 0 -24 -1t-12 -7.5t-5 -21.5z" />
    <glyph glyph-name="maiekthai" unicode="&#xe48;" 
d="M-82 635v78h35v-78h-35z" />
    <glyph glyph-name="maithothai" unicode="&#xe49;" 
d="M-117 635v44h-39v35h74v-44h100v-35h-135z" />
    <glyph glyph-name="maitrithai" unicode="&#xe4a;" 
d="M-47 670h31v-35h-66v41q0 31 -9 42.5t-36 15.5l-38 -21l-45 21q-26 -4 -33.5 -15t-7.5 -43v-6h38v-35h-73v39q0 49 18 68.5t58 26.5l45 -22l38 22q44 -7 62 -25t18 -74z" />
    <glyph glyph-name="maichattawathai" unicode="&#xe4b;" 
d="M-1 703v-32h-46v-36h-35v36h-46v32h46v39h35v-39h46z" />
    <glyph glyph-name="thanthakhatthai" unicode="&#xe4c;" 
d="M-117 635v71h151v-35h-116v-36h-35z" />
    <glyph glyph-name="nikhahitthai" unicode="&#xe4d;" 
d="M-104 573q24 0 40.5 -17t16.5 -40t-16.5 -39.5t-40.5 -16.5q-23 0 -39 16.5t-16 39.5t16.5 40t38.5 17zM-104 489q12 0 20 8t8 19t-8 19.5t-20 8.5q-10 0 -18 -8.5t-8 -19.5t8 -19t18 -8z" />
    <glyph glyph-name="yamakkanthai" unicode="&#xe4e;" 
 />
    <glyph glyph-name="fongmanthai" unicode="&#xe4f;" horiz-adv-x="447" 
d="M222 380q71 0 120.5 -49.5t49.5 -120.5q0 -70 -49.5 -118.5t-120.5 -48.5q-70 0 -118.5 48.5t-48.5 118.5q0 71 48.5 120.5t118.5 49.5zM222 66q62 0 104.5 41.5t42.5 102.5q0 62 -42.5 104.5t-104.5 42.5q-61 0 -102.5 -42.5t-41.5 -104.5q0 -61 41.5 -102.5
t102.5 -41.5zM123 210q0 41 29 70.5t70 29.5q40 0 69 -29.5t29 -70.5q0 -40 -29 -69t-69 -29q-41 0 -70 28.5t-29 69.5z" />
    <glyph glyph-name="zerothai" unicode="&#xe50;" horiz-adv-x="401" 
d="M361 191v-68q0 -64 -42.5 -96t-118.5 -32q-80 0 -120 33.5t-40 94.5v68q0 65 42 97t118 32q161 0 161 -129zM326 123v68q0 94 -126 94q-125 0 -125 -94v-68q0 -93 125 -93q126 0 126 93z" />
    <glyph glyph-name="onethai" unicode="&#xe51;" horiz-adv-x="375" 
d="M139 119v-35q-73 2 -98.5 20t-25.5 72v15q0 65 42 97t119 32q159 0 159 -129v-76q0 -69 -36.5 -105.5t-107.5 -36.5q-49 0 -91 6l7 36q36 -7 84 -7q50 0 79.5 26.5t29.5 75.5v81q0 94 -124 94q-126 0 -126 -94v-15q0 -36 20.5 -46t68.5 -11z" />
    <glyph glyph-name="twothai" unicode="&#xe52;" horiz-adv-x="416" 
d="M111 201v5q0 50 18.5 77.5t59.5 36.5l53 -28l49 28q85 -21 85 -114v-77q0 -23 -0.5 -36t-5 -33.5t-13.5 -31.5t-26.5 -19.5t-43.5 -8.5h-158q-31 0 -50.5 11t-27 33.5t-9.5 39t-2 45.5v263h35v-254q0 -27 1 -40t5.5 -30.5t16.5 -25t31 -7.5h158q19 0 31 7.5t16.5 25
t5.5 30.5t1 40v71q0 59 -50 76l-49 -27l-53 27q-25 -8 -34 -26t-9 -50v-8h-35z" />
    <glyph glyph-name="threethai" unicode="&#xe53;" horiz-adv-x="402" 
d="M128 320l73 -31l73 31q88 -21 88 -114v-206h-35v211q0 55 -54 74l-72 -31l-72 31q-54 -19 -54 -74v-83q0 -26 1 -38.5t5.5 -27.5t16 -21t30.5 -6h24v-35h-24q-25 0 -42.5 8.5t-26.5 19.5t-13.5 31.5t-5 33t-0.5 35.5v78q0 93 88 114z" />
    <glyph glyph-name="fourthai" unicode="&#xe54;" horiz-adv-x="416" 
d="M243 285h-63q-53 0 -79 -21t-26 -74v-67q0 -53 25.5 -73t79.5 -20q61 0 98 33q-10 29 -10 82v54h86v-35h-51q0 -75 14.5 -101.5t68.5 -32.5v-35q-59 3 -94 35q-34 -35 -112 -35q-77 0 -108.5 32.5t-31.5 95.5v67q0 68 33.5 99t106.5 31h63q26 0 39 1t30.5 5.5t25.5 15.5
t8 29v21h35v-25q0 -28 -13 -46t-37 -25t-42.5 -9t-45.5 -2z" />
    <glyph glyph-name="fivethai" unicode="&#xe55;" horiz-adv-x="416" 
d="M243 285h-63q-53 0 -79 -21t-26 -74v-67q0 -53 25.5 -73t79.5 -20q61 0 98 33q-10 29 -10 82v54h86v-35h-51q0 -75 14.5 -101.5t68.5 -32.5v-35q-59 3 -94 35q-34 -35 -112 -35q-77 0 -108.5 32.5t-31.5 95.5v67q0 64 30 95t95 34q-13 17 -13 37q0 24 16.5 40.5
t39.5 16.5q25 0 41.5 -16.5t16.5 -40.5q0 -20 -14 -36q30 0 47 2.5t32 14t15 34.5v21h35v-25q0 -28 -13 -46t-37 -25t-42.5 -9t-45.5 -2zM208 330q11 0 18 7.5t7 18.5q0 9 -7.5 17t-17.5 8q-11 0 -18 -7.5t-7 -17.5q0 -11 7 -18.5t18 -7.5z" />
    <glyph glyph-name="sixthai" unicode="&#xe56;" horiz-adv-x="381" 
d="M52 118h35q1 -53 23.5 -70.5t97.5 -17.5q53 0 75.5 20t22.5 73v60q0 50 -26.5 76t-75.5 26q-86 0 -113 -38h-41l-30 145h35l25 -116q16 21 38.5 31t38.5 11.5t47 1.5q137 0 137 -148v-49q0 -65 -29 -96.5t-104 -31.5q-53 0 -85.5 8.5t-47.5 27t-19 37t-4 50.5z" />
    <glyph glyph-name="seventhai" unicode="&#xe57;" horiz-adv-x="498" 
d="M362 207v-171q20 0 28.5 1.5t17.5 7.5t12 20.5t3 39.5v287h35v-287q0 -29 -2 -44t-10 -31t-27 -22.5t-51 -6.5h-41v211q0 55 -54 74l-72 -31l-72 31q-54 -19 -54 -74v-83q0 -26 1 -38.5t5.5 -27.5t16 -21t30.5 -6h24v-35h-24q-25 0 -42.5 8.5t-26.5 19.5t-13.5 31.5
t-5 33t-0.5 35.5v78q0 93 88 114l73 -31l73 31q88 -21 88 -114z" />
    <glyph glyph-name="eightthai" unicode="&#xe58;" horiz-adv-x="412" 
d="M244 285h-63q-54 0 -80 -20.5t-26 -73.5v-87q0 -51 63 -74l65 28l67 -28q47 17 47 74v47h-52v35h87v-75q0 -54 -19.5 -80.5t-59.5 -35.5l-70 30q-9 -4 -32 -14.5t-35 -15.5q-96 24 -96 116v80q0 66 34.5 97.5t106.5 31.5h63q26 0 39 1t30.5 5.5t25.5 15.5t8 29v21h35v-25
q0 -28 -13 -46t-37 -25t-42.5 -9t-45.5 -2z" />
    <glyph glyph-name="ninethai" unicode="&#xe59;" horiz-adv-x="420" 
d="M385 392h35v-20q0 -25 -6.5 -42.5t-14.5 -26t-24 -13t-26.5 -5t-31.5 -0.5q-26 0 -44 -18t-10 -43q26 -60 68 -224h-35q-37 131 -63 193.5t-43 77t-44 14.5q-44 0 -57.5 -17t-13.5 -54v-88q0 -26 1 -37.5t5.5 -26.5t15.5 -21t29 -6h25v-35h-25q-30 0 -49 11t-26.5 33.5
t-9 38t-1.5 43.5v92q0 50 27.5 76t77.5 26q26 0 53 -10.5t41 -32.5q25 43 77 43q46 0 57.5 7.5t11.5 44.5v20z" />
    <glyph glyph-name="angkhankhuthai" unicode="&#xe5a;" horiz-adv-x="418" 
d="M251 -66v350q-22 -30 -101 -30q-77 0 -106 35.5t-29 101.5v9h35v-10q0 -26 2.5 -41.5t12 -30.5t30.5 -22t55 -7q35 0 56.5 7.5t30.5 24.5t11.5 32.5t2.5 41.5v5h35v-466h-35zM336 -65v465h35v-465h-35z" />
    <glyph glyph-name="khomutthai" unicode="&#xe5b;" 
 />
    <glyph glyph-name="ZWSP" unicode="&#x200b;" 
 />
    <glyph glyph-name="endash" unicode="&#x2013;" horiz-adv-x="487" 
d="M55 209h377v-35h-377v35z" />
    <glyph glyph-name="emdash" unicode="&#x2014;" horiz-adv-x="573" 
d="M55 209h463v-35h-463v35z" />
    <glyph glyph-name="quoteleft" unicode="&#x2018;" horiz-adv-x="180" 
d="M54 453l45 85h26l-30 -85h-41z" />
    <glyph glyph-name="quoteright" unicode="&#x2019;" horiz-adv-x="181" 
d="M126 538l-45 -85h-26l30 85h41z" />
    <glyph glyph-name="bullet" unicode="&#x2022;" horiz-adv-x="235" 
d="M70 171q0 19 14 33t33 14q20 0 34 -13.5t14 -33.5t-14 -34t-34 -14t-33.5 14t-13.5 34z" />
    <glyph glyph-name="ellipsis" unicode="&#x2026;" horiz-adv-x="370" 
d="M55 21q0 11 7.5 18.5t18.5 7.5t18.5 -7.5t7.5 -18.5t-7.5 -18.5t-18.5 -7.5t-18.5 7.5t-7.5 18.5zM159 21q0 11 7.5 18.5t18.5 7.5t18.5 -7.5t7.5 -18.5t-7.5 -18.5t-18.5 -7.5t-18.5 7.5t-7.5 18.5zM263 21q0 11 7.5 18.5t18.5 7.5t18.5 -7.5t7.5 -18.5t-7.5 -18.5
t-18.5 -7.5t-18.5 7.5t-7.5 18.5z" />
    <glyph glyph-name="uni25CC" unicode="&#x25cc;" horiz-adv-x="512" 
 />
    <glyph glyph-name="thothannobasethai" unicode="&#xf700;" horiz-adv-x="381" 
d="M306 105v190q0 25 -9 41t-27.5 23t-36 9t-45.5 2q-29 0 -46.5 -2t-37 -9t-28.5 -23t-9 -41v-4h-35v9q0 56 38.5 80.5t117.5 24.5q14 0 38 -2l101 39l14 -30l-56 -22q56 -23 56 -90v-193q0 -107 -96 -107h-95l-27 148h-43v35h75l25 -148h66q26 2 39 12t16 21.5t5 36.5z
" />
    <glyph glyph-name="saraileftthai" unicode="&#xf701;" 
d="M-357 485v35h236v-35h-236z" />
    <glyph glyph-name="saraiileftthai" unicode="&#xf702;" 
d="M-121 485h-236v35h201v36h35v-71z" />
    <glyph glyph-name="saraueleftthai" unicode="&#xf703;" 
d="M-169 581q19 0 33.5 -14.5t14.5 -33.5t-14.5 -33.5t-33.5 -14.5h-188v35h142q-2 8 -2 13q0 19 14.5 33.5t33.5 14.5zM-169 515q7 0 13 5.5t6 12.5t-6 13t-13 6t-12.5 -6t-5.5 -13t5.5 -12.5t12.5 -5.5z" />
    <glyph glyph-name="saraueeleftthai" unicode="&#xf704;" 
d="M-121 485h-236v35h130v36h35v-36h36v36h35v-71z" />
    <glyph glyph-name="maieklowleftthai" unicode="&#xf705;" 
d="M-175 485v83h35v-83h-35z" />
    <glyph glyph-name="maitholowleftthai" unicode="&#xf706;" 
d="M-275 485v49h-39v35h74v-49h100v-35h-135z" />
    <glyph glyph-name="maitrilowleftthai" unicode="&#xf707;" 
d="M-118 520h15v-35h-50v41q0 31 -9 42.5t-36 15.5l-38 -21l-45 21q-26 -4 -33.5 -15t-7.5 -43v-6h24v-35h-59v39q0 49 18 68.5t58 26.5l45 -22l38 22q44 -7 62 -25t18 -74z" />
    <glyph glyph-name="maichattawalowleftthai" unicode="&#xf708;" 
d="M-140 558v-32h-46v-41h-35v41h-46v32h46v44h35v-44h46z" />
    <glyph glyph-name="thanthakhatlowleftthai" unicode="&#xf709;" 
d="M-291 485v71h151v-35h-116v-36h-35z" />
    <glyph glyph-name="maieklowrightthai" unicode="&#xf70a;" 
d="M-82 485v83h35v-83h-35z" />
    <glyph glyph-name="maitholowrightthai" unicode="&#xf70b;" 
d="M-118 485v49h-39v35h74v-49h100v-35h-135z" />
    <glyph glyph-name="maitrilowrightthai" unicode="&#xf70c;" 
d="M-47 520h31v-35h-66v41q0 31 -9 42.5t-36 15.5l-38 -21l-45 21q-26 -4 -33.5 -15t-7.5 -43v-6h38v-35h-73v39q0 49 18 68.5t58 26.5l45 -22l38 22q44 -7 62 -25t18 -74z" />
    <glyph glyph-name="maichattawalowrightthai" unicode="&#xf70d;" 
d="M-1 558v-32h-46v-41h-35v41h-46v32h46v44h35v-44h46z" />
    <glyph glyph-name="thanthakhatlowrightthai" unicode="&#xf70e;" 
d="M-151 485v71h151v-35h-116v-36h-35z" />
    <glyph glyph-name="yoyingnobasethai" unicode="&#xf70f;" horiz-adv-x="639" 
d="M348 283v-155q0 -98 107 -98q53 0 77.5 23.5t24.5 74.5v272h35v-276q0 -71 -34.5 -100t-102.5 -29t-105 29.5t-37 99.5v154q0 26 -12 45t-26.5 27.5t-35 13.5t-29.5 5.5t-18 0.5q-80 0 -113 -47v-288h45v-35h-80v337q50 68 148 68q43 0 74.5 -12t46.5 -27.5t23.5 -36
t10 -30t1.5 -16.5z" />
    <glyph glyph-name="maihanakatleftthai" unicode="&#xf710;" 
d="M-145 531v-32h-215v71h35v-39h180z" />
    <glyph glyph-name="nikhahitleftthai" unicode="&#xf711;" 
d="M-197 573q24 0 40.5 -17t16.5 -40t-16.5 -39.5t-40.5 -16.5q-23 0 -39 16.5t-16 39.5t16.5 40t38.5 17zM-197 489q12 0 20 8t8 19t-8 19.5t-20 8.5q-10 0 -18 -8.5t-8 -19.5t8 -19t18 -8z" />
    <glyph glyph-name="maitaikhuleftthai" unicode="&#xf712;" 
d="M-322 571v-8q0 -20 7.5 -30t15 -11.5t21.5 -1.5l43 24l46 -25q34 11 34 40h35q0 -33 -16.5 -49.5t-49.5 -24.5l-49 26l-48 -26q-17 2 -28.5 5.5t-23 11.5t-17 24t-5.5 40q0 41 16.5 55.5t53.5 14.5h195v-35h-189q-17 0 -24 -1t-12 -7.5t-5 -21.5z" />
    <glyph glyph-name="maiekupperleftthai" unicode="&#xf713;" 
d="M-156 635v78h35v-78h-35z" />
    <glyph glyph-name="maithoupperleftthai" unicode="&#xf714;" 
d="M-191 635v44h-39v35h74v-44h100v-35h-135z" />
    <glyph glyph-name="maitriupperleftthai" unicode="&#xf715;" 
d="M-121 670h31v-35h-66v41q0 31 -9 42.5t-36 15.5l-38 -21l-45 21q-26 -4 -33.5 -15t-7.5 -43v-6h38v-35h-73v39q0 49 18 68.5t58 26.5l45 -22l38 22q44 -7 62 -25t18 -74z" />
    <glyph glyph-name="maichattawaupperleftthai" unicode="&#xf716;" 
d="M-75 703v-32h-46v-36h-35v36h-46v32h46v39h35v-39h46z" />
    <glyph glyph-name="thanthakhatupperleftthai" unicode="&#xf717;" 
d="M-191 635v71h151v-35h-116v-36h-35z" />
    <glyph glyph-name="saraulowthai" unicode="&#xf718;" 
d="M-54 -365h-35v69h-34v32h69v-101z" />
    <glyph glyph-name="sarauulowthai" unicode="&#xf719;" 
d="M-54 -264v-33q0 -48 -15.5 -66.5t-61.5 -18.5t-62 20t-16 67h-25v31h60v-38q0 -37 5.5 -44t37.5 -7q31 0 36.5 7t5.5 44v38h35z" />
    <glyph glyph-name="phinthulowthai" unicode="&#xf71a;" 
d="M-76 -264q8 0 15 -6.5t7 -15.5q0 -8 -7 -14.5t-15 -6.5t-14.5 6.5t-6.5 14.5q0 9 6.5 15.5t14.5 6.5z" />
    <glyph glyph-name="lochula.short" unicode="&#xf71d;" horiz-adv-x="484" 
d="M401 96v130q0 63 -76 72v35q34 2 57 19.5t23 47.5h36q0 -20 -2 -30t-15.5 -25.5t-40.5 -28.5q24 -9 37 -26.5t14.5 -30t1.5 -33.5v-130q0 -34 -9 -55.5t-26 -31t-32 -12t-38 -2.5q-7 0 -18.5 1t-35.5 11t-36 28q-11 -18 -33 -28t-38 -11l-17 -1q-23 0 -38.5 2.5t-33 12
t-26 31t-8.5 55.5v304h35v-300q0 -41 17.5 -55.5t54.5 -14.5q70 0 70 70v261h36v-261q0 -70 70 -70q37 0 54 12.5t17 53.5z" />
    <glyph glyph-name="saraamleft" horiz-adv-x="281" 
d="M234 0h-35v285q0 28 -9 46.5t-25.5 26t-31 10t-34.5 2.5q-56 0 -85 -14l-14 27q32 22 99 22q65 0 100 -26.5t35 -93.5v-285zM-197 573q24 0 40.5 -17t16.5 -40t-16.5 -39.5t-40.5 -16.5q-23 0 -39 16.5t-16 39.5t16.5 40t38.5 17zM-197 489q12 0 20 8t8 19t-8 19.5
t-20 8.5q-10 0 -18 -8.5t-8 -19.5t8 -19t18 -8z" />
    <glyph glyph-name="yamakkanleftthai" 
 />
    <glyph glyph-name="_0015" 
 />
    <glyph glyph-name="_0016" 
 />
    <glyph glyph-name="Superstore" horiz-adv-x="614" 
d="M306 505q106 0 180 -74t74 -180q0 -104 -74 -177.5t-180 -73.5q-104 0 -177.5 74t-73.5 177q0 106 73.5 180t177.5 74zM413 90q32 0 32 27q0 30 -24 30v133q0 43 -32 71q6 2 19 2t19 -2h11v65q-73 -9 -115 -32q-12 2 -37 2q-49 0 -88 -14v-63h6q50 16 76 16q74 0 74 -43
l-82 -8q-46 -4 -74 -23t-28 -69q0 -42 28.5 -67t73.5 -25q30 0 43 3v54l-6 4q-9 -4 -23 -4q-18 0 -31.5 10t-13.5 31q0 16 18 22.5t95 18.5v-71q0 -37 10.5 -52.5t39.5 -15.5h9z" />
    </font>
</defs>
</svg>
